<svg xmlns="http://www.w3.org/2000/svg" xmlns:xlink="http://www.w3.org/1999/xlink" width="60.34" height="39.2" style="background: rgb(64, 16, 81);"><path fill="#bfcbff" d="M8.15 9.30L8.15 9.30Q11.79 9.30 13.58 12.04L13.58 12.04L13.58 12.04Q15.23 14.59 15.23 19.18L15.23 19.18L15.23 19.18Q15.23 23.80 13.44 26.88L13.44 26.88L13.44 26.88Q11.51 30.07 8.12 30.07L8.12 30.07L8.12 30.07Q2.77 30.07 1.93 24.81L1.93 24.81L3.64 24.81L3.64 24.81Q4.31 28.59 8.15 28.59L8.15 28.59L8.15 28.59Q10.67 28.59 12.15 26.04L12.15 26.04L12.15 26.04Q13.55 23.58 13.55 19.85L13.55 19.85L13.55 18.87L13.44 18.87L13.44 18.87Q12.74 20.58 11.26 21.64L11.26 21.64L11.26 21.64Q9.80 22.65 7.90 22.65L7.90 22.65L7.90 22.65Q5.04 22.65 3.30 20.80L3.30 20.80L3.30 20.80Q1.60 19.01 1.60 16.10L1.60 16.10L1.60 16.10Q1.60 13.16 3.44 11.23L3.44 11.23L3.44 11.23Q5.29 9.30 8.15 9.30L8.15 9.30ZM8.20 10.78L8.20 10.78Q5.99 10.78 4.65 12.29L4.65 12.29L4.65 12.29Q3.30 13.80 3.30 16.10L3.30 16.10L3.30 16.10Q3.30 18.40 4.62 19.80L4.62 19.80L4.62 19.80Q5.96 21.20 8.18 21.20L8.18 21.20L8.18 21.20Q10.22 21.20 11.70 19.71L11.70 19.71L11.70 19.71Q13.16 18.20 13.16 16.07L13.16 16.07L13.16 16.07Q13.16 13.92 11.87 12.38L11.87 12.38L11.87 12.38Q10.44 10.78 8.20 10.78L8.20 10.78ZM25.23 9.69L26.60 9.69L26.60 29.68L24.89 29.68L24.89 11.82L24.89 11.82Q22.96 13.92 20.10 14.76L20.10 14.76L20.10 13.02L20.10 13.02Q21.53 12.60 22.88 11.76L22.88 11.76L22.88 11.76Q24.19 10.89 25.23 9.69L25.23 9.69ZM54.01 18.73L54.01 18.73Q56.17 18.73 57.34 20.36L57.34 20.36L57.34 20.36Q58.38 21.81 58.38 24.19L58.38 24.19L58.38 24.19Q58.38 26.52 57.34 28.03L57.34 28.03L57.34 28.03Q56.17 29.68 54.01 29.68L54.01 29.68L54.01 29.68Q51.83 29.68 50.68 28.03L50.68 28.03L50.68 28.03Q49.64 26.63 49.64 24.19L49.64 24.19L49.64 24.19Q49.64 21.76 50.68 20.36L50.68 20.36L50.68 20.36Q51.80 18.73 54.01 18.73L54.01 18.73ZM40.66 30.07L51.83 9.30L53.26 9.30L42.08 30.07L40.66 30.07ZM39.90 9.69L39.90 9.69Q42.06 9.69 43.23 11.31L43.23 11.31L43.23 11.31Q44.27 12.77 44.27 15.15L44.27 15.15L44.27 15.15Q44.27 17.47 43.23 18.98L43.23 18.98L43.23 18.98Q42.06 20.64 39.90 20.64L39.90 20.64L39.90 20.64Q37.74 20.64 36.60 18.98L36.60 18.98L36.60 18.98Q35.56 17.58 35.56 15.15L35.56 15.15L35.56 15.15Q35.56 12.71 36.60 11.31L36.60 11.31L36.60 11.31Q37.72 9.69 39.90 9.69L39.90 9.69ZM54.01 19.96L54.01 19.96Q52.58 19.96 51.91 21.17L51.91 21.17L51.91 21.17Q51.24 22.26 51.24 24.19L51.24 24.19L51.24 24.19Q51.24 26.18 51.88 27.22L51.88 27.22L51.88 27.22Q52.56 28.45 54.01 28.45L54.01 28.45L54.01 28.45Q55.38 28.45 56.14 27.19L56.14 27.19L56.14 27.19Q56.78 26.07 56.78 24.19L56.78 24.19L56.78 24.19Q56.78 22.26 56.11 21.17L56.11 21.17L56.11 21.17Q55.41 19.96 54.01 19.96L54.01 19.96ZM39.90 10.92L39.90 10.92Q38.47 10.92 37.80 12.12L37.80 12.12L37.80 12.12Q37.16 13.16 37.16 15.15L37.16 15.15L37.16 15.15Q37.16 17.14 37.80 18.17L37.80 18.17L37.80 18.17Q38.47 19.40 39.90 19.40L39.90 19.40L39.90 19.40Q41.33 19.40 42.03 18.14L42.03 18.14L42.03 18.14Q42.67 17.02 42.67 15.15L42.67 15.15L42.67 15.15Q42.67 13.22 42 12.12L42 12.12L42 12.12Q41.33 10.92 39.90 10.92L39.90 10.92Z"></path></svg>