<svg xmlns="http://www.w3.org/2000/svg" xmlns:xlink="http://www.w3.org/1999/xlink" width="77.14000000000001" height="39.2" style="background: rgb(64, 16, 81);"><path fill="#bfcbff" d="M8.15 9.30L8.15 9.30Q11.79 9.30 13.58 12.04L13.58 12.04L13.58 12.04Q15.23 14.59 15.23 19.18L15.23 19.18L15.23 19.18Q15.23 23.80 13.44 26.88L13.44 26.88L13.44 26.88Q11.51 30.07 8.12 30.07L8.12 30.07L8.12 30.07Q2.77 30.07 1.93 24.81L1.93 24.81L3.64 24.81L3.64 24.81Q4.31 28.59 8.15 28.59L8.15 28.59L8.15 28.59Q10.67 28.59 12.15 26.04L12.15 26.04L12.15 26.04Q13.55 23.58 13.55 19.85L13.55 19.85L13.55 18.87L13.44 18.87L13.44 18.87Q12.74 20.58 11.26 21.64L11.26 21.64L11.26 21.64Q9.80 22.65 7.90 22.65L7.90 22.65L7.90 22.65Q5.04 22.65 3.30 20.80L3.30 20.80L3.30 20.80Q1.60 19.01 1.60 16.10L1.60 16.10L1.60 16.10Q1.60 13.16 3.44 11.23L3.44 11.23L3.44 11.23Q5.29 9.30 8.15 9.30L8.15 9.30ZM8.20 10.78L8.20 10.78Q5.99 10.78 4.65 12.29L4.65 12.29L4.65 12.29Q3.30 13.80 3.30 16.10L3.30 16.10L3.30 16.10Q3.30 18.40 4.62 19.80L4.62 19.80L4.62 19.80Q5.96 21.20 8.18 21.20L8.18 21.20L8.18 21.20Q10.22 21.20 11.70 19.71L11.70 19.71L11.70 19.71Q13.16 18.20 13.16 16.07L13.16 16.07L13.16 16.07Q13.16 13.92 11.87 12.38L11.87 12.38L11.87 12.38Q10.44 10.78 8.20 10.78L8.20 10.78ZM25.20 9.30L25.20 9.30Q28.28 9.30 29.99 10.89L29.99 10.89L29.99 10.89Q31.56 12.32 31.56 14.48L31.56 14.48L31.56 14.48Q31.56 16.04 30.74 17.25L30.74 17.25L30.74 17.25Q29.88 18.45 28.28 18.96L28.28 18.96L28.28 19.07L28.28 19.07Q29.90 19.40 31.08 20.83L31.08 20.83L31.08 20.83Q32.26 22.26 32.26 24.22L32.26 24.22L32.26 24.22Q32.26 26.80 30.46 28.42L30.46 28.42L30.46 28.42Q28.59 30.07 25.20 30.07L25.20 30.07L25.20 30.07Q21.81 30.07 19.94 28.42L19.94 28.42L19.94 28.42Q18.14 26.82 18.14 24.22L18.14 24.22L18.14 24.22Q18.14 22.26 19.32 20.83L19.32 20.83L19.32 20.83Q20.44 19.40 22.15 19.07L22.15 19.07L22.15 18.96L22.15 18.96Q20.52 18.45 19.66 17.25L19.66 17.25L19.66 17.25Q18.84 16.10 18.84 14.48L18.84 14.48L18.84 14.48Q18.84 12.29 20.41 10.89L20.41 10.89L20.41 10.89Q22.09 9.30 25.20 9.30L25.20 9.30ZM25.20 10.75L25.20 10.75Q22.85 10.75 21.59 11.93L21.59 11.93L21.59 11.93Q20.50 12.94 20.50 14.53L20.50 14.53L20.50 14.53Q20.50 16.18 21.50 17.19L21.50 17.19L21.50 17.19Q22.74 18.37 25.20 18.37L25.20 18.37L25.20 18.37Q27.64 18.37 28.90 17.19L28.90 17.19L28.90 17.19Q29.90 16.18 29.90 14.53L29.90 14.53L29.90 14.53Q29.90 12.94 28.81 11.93L28.81 11.93L28.81 11.93Q27.52 10.75 25.20 10.75L25.20 10.75ZM25.20 19.77L25.20 19.77Q22.57 19.77 21.17 21.08L21.17 21.08L21.17 21.08Q19.82 22.26 19.82 24.22L19.82 24.22L19.82 24.22Q19.82 26.21 21.14 27.36L21.14 27.36L21.14 27.36Q22.57 28.64 25.20 28.64L25.20 28.64L25.20 28.64Q27.83 28.64 29.29 27.36L29.29 27.36L29.29 27.36Q30.58 26.15 30.58 24.22L30.58 24.22L30.58 24.22Q30.58 22.26 29.23 21.08L29.23 21.08L29.23 21.08Q27.83 19.77 25.20 19.77L25.20 19.77ZM41.75 9.30L41.75 9.30Q45.39 9.30 47.18 12.04L47.18 12.04L47.18 12.04Q48.83 14.59 48.83 19.18L48.83 19.18L48.83 19.18Q48.83 23.80 47.04 26.88L47.04 26.88L47.04 26.88Q45.11 30.07 41.72 30.07L41.72 30.07L41.72 30.07Q36.37 30.07 35.53 24.81L35.53 24.81L37.24 24.81L37.24 24.81Q37.91 28.59 41.75 28.59L41.75 28.59L41.75 28.59Q44.27 28.59 45.75 26.04L45.75 26.04L45.75 26.04Q47.15 23.58 47.15 19.85L47.15 19.85L47.15 18.87L47.04 18.87L47.04 18.87Q46.34 20.58 44.86 21.64L44.86 21.64L44.86 21.64Q43.40 22.65 41.50 22.65L41.50 22.65L41.50 22.65Q38.64 22.65 36.90 20.80L36.90 20.80L36.90 20.80Q35.20 19.01 35.20 16.10L35.20 16.10L35.20 16.10Q35.20 13.16 37.04 11.23L37.04 11.23L37.04 11.23Q38.89 9.30 41.75 9.30L41.75 9.30ZM41.80 10.78L41.80 10.78Q39.59 10.78 38.25 12.29L38.25 12.29L38.25 12.29Q36.90 13.80 36.90 16.10L36.90 16.10L36.90 16.10Q36.90 18.40 38.22 19.80L38.22 19.80L38.22 19.80Q39.56 21.20 41.78 21.20L41.78 21.20L41.78 21.20Q43.82 21.20 45.30 19.71L45.30 19.71L45.30 19.71Q46.76 18.20 46.76 16.07L46.76 16.07L46.76 16.07Q46.76 13.92 45.47 12.38L45.47 12.38L45.47 12.38Q44.04 10.78 41.80 10.78L41.80 10.78ZM70.81 18.73L70.81 18.73Q72.97 18.73 74.14 20.36L74.14 20.36L74.14 20.36Q75.18 21.81 75.18 24.19L75.18 24.19L75.18 24.19Q75.18 26.52 74.14 28.03L74.14 28.03L74.14 28.03Q72.97 29.68 70.81 29.68L70.81 29.68L70.81 29.68Q68.63 29.68 67.48 28.03L67.48 28.03L67.48 28.03Q66.44 26.63 66.44 24.19L66.44 24.19L66.44 24.19Q66.44 21.76 67.48 20.36L67.48 20.36L67.48 20.36Q68.60 18.73 70.81 18.73L70.81 18.73ZM57.46 30.07L68.63 9.30L70.06 9.30L58.88 30.07L57.46 30.07ZM56.70 9.69L56.70 9.69Q58.86 9.69 60.03 11.31L60.03 11.31L60.03 11.31Q61.07 12.77 61.07 15.15L61.07 15.15L61.07 15.15Q61.07 17.47 60.03 18.98L60.03 18.98L60.03 18.98Q58.86 20.64 56.70 20.64L56.70 20.64L56.70 20.64Q54.54 20.64 53.40 18.98L53.40 18.98L53.40 18.98Q52.36 17.58 52.36 15.15L52.36 15.15L52.36 15.15Q52.36 12.71 53.40 11.31L53.40 11.31L53.40 11.31Q54.52 9.69 56.70 9.69L56.70 9.69ZM70.81 19.96L70.81 19.96Q69.38 19.96 68.71 21.17L68.71 21.17L68.71 21.17Q68.04 22.26 68.04 24.19L68.04 24.19L68.04 24.19Q68.04 26.18 68.68 27.22L68.68 27.22L68.68 27.22Q69.36 28.45 70.81 28.45L70.81 28.45L70.81 28.45Q72.18 28.45 72.94 27.19L72.94 27.19L72.94 27.19Q73.58 26.07 73.58 24.19L73.58 24.19L73.58 24.19Q73.58 22.26 72.91 21.17L72.91 21.17L72.91 21.17Q72.21 19.96 70.81 19.96L70.81 19.96ZM56.70 10.92L56.70 10.92Q55.27 10.92 54.60 12.12L54.60 12.12L54.60 12.12Q53.96 13.16 53.96 15.15L53.96 15.15L53.96 15.15Q53.96 17.14 54.60 18.17L54.60 18.17L54.60 18.17Q55.27 19.40 56.70 19.40L56.70 19.40L56.70 19.40Q58.13 19.40 58.83 18.14L58.83 18.14L58.83 18.14Q59.47 17.02 59.47 15.15L59.47 15.15L59.47 15.15Q59.47 13.22 58.80 12.12L58.80 12.12L58.80 12.12Q58.13 10.92 56.70 10.92L56.70 10.92Z"></path></svg>