<svg xmlns="http://www.w3.org/2000/svg" xmlns:xlink="http://www.w3.org/1999/xlink" width="84" height="39.2" style="background: rgb(64, 16, 81);"><path fill="#4bffbb" d="M2.24 9.97L2.24 8.48L25.76 8.48L25.76 9.97L16.60 9.97L16.60 9.97Q15.85 11.73 14.78 13.50L14.78 13.50L14.78 32.48L13.22 32.48L13.22 15.79L13.22 15.79Q9.27 21.03 2.46 25.09L2.46 25.09L1.46 23.80L1.46 23.80Q11.23 18.12 14.92 9.97L14.92 9.97L2.24 9.97ZM17.22 16.97L18.28 15.90L18.28 15.90Q23.18 19.80 26.54 23.74L26.54 23.74L25.37 24.92L25.37 24.92Q22.40 21.22 17.22 16.97L17.22 16.97ZM45.84 6.97L47.35 6.97L47.35 6.97Q47.35 10.22 47.12 13.41L47.12 13.41L47.12 13.41Q49.42 24.50 54.99 31.00L54.99 31.00L53.93 32.23L53.93 32.23Q49.06 26.15 46.73 17.14L46.73 17.14L46.73 17.14Q46.48 18.84 46.14 20.41L46.14 20.41L46.14 20.41Q44.55 27.69 38.95 32.28L38.95 32.28L37.94 31.02L37.94 31.02Q42.92 26.88 44.55 20.55L44.55 20.55L44.55 20.55Q45.78 15.23 45.84 6.97L45.84 6.97ZM31.22 8.20L32.31 7.17L32.31 7.17Q35.17 9.35 37.21 11.62L37.21 11.62L36.18 12.68L36.18 12.68Q34.24 10.50 31.22 8.20L31.22 8.20ZM29.32 17.08L29.32 15.60L35.08 15.60L35.08 28.25L35.08 28.25Q36.74 26.94 38.64 25.12L38.64 25.12L39.06 26.68L39.06 26.68Q36.60 29.06 33.66 31.05L33.66 31.05L33.07 29.68L33.07 29.68Q33.60 29.15 33.60 28.64L33.60 28.64L33.60 17.08L29.32 17.08ZM62.64 19.04L62.64 14.62L64.06 14.62L64.06 19.04L66.84 19.04L66.84 20.41L64.06 20.41L64.06 24.64L66.92 23.94L66.92 25.37L66.92 25.37Q65.02 25.87 64.06 26.10L64.06 26.10L64.06 32.40L62.64 32.40L62.64 26.43L62.64 26.43Q60.70 26.82 57.48 27.33L57.48 27.33L57.26 25.82L57.26 25.82Q60.31 25.42 62.64 24.95L62.64 24.95L62.64 20.41L58.04 20.41L57.76 19.18L57.76 19.18Q59.05 16.38 60.03 12.40L60.03 12.40L57.51 12.40L57.51 10.95L60.37 10.95L60.37 10.95Q60.79 9.16 61.24 6.78L61.24 6.78L62.64 7.08L61.82 10.95L66.95 10.95L66.95 12.40L61.49 12.40L61.49 12.40Q60.54 16.04 59.33 19.04L59.33 19.04L62.64 19.04ZM70.73 14.62L70.73 13.33L78.65 13.33L78.65 14.62L70.73 14.62ZM72.69 32.26L71.26 32.26L70.90 30.94L72.24 31.02L72.24 31.02Q73.19 31.02 73.19 30.04L73.19 30.04L73.19 27.16L69.64 27.16L69.64 32.42L68.26 32.42L68.26 17.22L74.54 17.22L74.54 30.32L74.54 30.32Q74.54 32.26 72.69 32.26L72.69 32.26ZM69.64 22.85L69.64 25.93L73.19 25.93L73.19 22.85L69.64 22.85ZM69.64 18.48L69.64 21.64L73.19 21.64L73.19 18.48L69.64 18.48ZM76.55 27.89L76.55 17.92L77.78 17.92L77.78 27.89L76.55 27.89ZM79.44 32.28L77.06 32.28L76.75 30.94L76.75 30.94Q78.32 31.05 78.93 31.05L78.93 31.05L78.93 31.05Q79.94 31.05 79.94 29.76L79.94 29.76L79.94 16.58L81.31 16.58L81.31 30.10L81.31 30.10Q81.31 32.28 79.44 32.28L79.44 32.28ZM74.23 6.92L75.35 6.92L75.35 6.92Q79.10 11.59 82.91 14.25L82.91 14.25L82.10 15.48L82.10 15.48Q78.04 12.52 74.79 8.32L74.79 8.32L74.79 8.32Q71.32 12.63 67.28 15.74L67.28 15.74L66.44 14.48L66.44 14.48Q70.76 11.34 74.23 6.92L74.23 6.92Z"></path></svg>