<svg xmlns="http://www.w3.org/2000/svg" xmlns:xlink="http://www.w3.org/1999/xlink" width="588" height="39.2" style="background: rgb(64, 16, 81);"><path fill="#bfcbff" d="M13.22 11.93L13.22 6.75L14.78 6.75L14.78 11.93L24.92 11.93L24.92 24.81L23.38 24.81L23.38 22.93L14.78 22.93L14.78 32.62L13.22 32.62L13.22 22.93L4.65 22.93L4.65 24.81L3.11 24.81L3.11 11.93L13.22 11.93ZM4.65 13.44L4.65 21.45L13.22 21.45L13.22 13.44L4.65 13.44ZM14.78 13.44L14.78 21.45L23.38 21.45L23.38 13.44L14.78 13.44ZM34.50 11.87L39.09 11.87L39.09 30.69L37.63 30.69L37.63 28.98L31.98 28.98L31.98 31.47L30.52 31.47L30.52 11.87L33.04 11.87L33.04 11.87Q33.91 9.49 34.30 6.86L34.30 6.86L35.84 7.06L35.84 7.06Q35.39 9.63 34.50 11.87L34.50 11.87ZM31.98 20.94L31.98 27.58L37.63 27.58L37.63 20.94L31.98 20.94ZM31.98 13.33L31.98 19.57L37.63 19.57L37.63 13.33L31.98 13.33ZM42.62 18.98L43.85 18.20L43.85 18.20Q47.07 21.76 48.72 24.36L48.72 24.36L47.52 25.23L47.52 25.23Q45.84 22.51 42.62 18.98L42.62 18.98ZM44.46 11.90L53.59 11.90L53.59 11.90Q53.59 25.37 53.20 28.67L53.20 28.67L53.20 28.67Q52.78 32.03 49.31 32.03L49.31 32.03L46.56 31.98L46.20 30.58L46.20 30.58Q47.88 30.66 49.14 30.66L49.14 30.66L49.14 30.66Q51.41 30.66 51.74 28.17L51.74 28.17L51.74 28.17Q52.05 25.87 52.14 13.41L52.14 13.41L43.88 13.41L43.88 13.41Q42.67 16.18 41.05 18.31L41.05 18.31L40.15 17.14L40.15 17.14Q43.18 12.94 44.27 6.83L44.27 6.83L45.75 7L45.75 7Q45.22 9.74 44.46 11.90L44.46 11.90ZM70.08 21.59L70.08 8.12L80.33 8.12L80.33 21.59L70.08 21.59ZM71.57 20.24L78.85 20.24L78.85 17.47L71.57 17.47L71.57 20.24ZM71.57 13.55L71.57 16.18L78.85 16.18L78.85 13.55L71.57 13.55ZM71.57 9.52L71.57 12.26L78.85 12.26L78.85 9.52L71.57 9.52ZM64.09 14.78L64.09 22.18L62.58 22.18L62.58 13.97L62.58 13.97Q60.70 17.75 57.65 20.86L57.65 20.86L57.09 19.40L57.09 19.40Q60.56 16.21 62.50 11.90L62.50 11.90L57.74 11.90L57.74 10.44L62.58 10.44L62.58 7.22L64.09 7.22L64.09 10.44L67.98 10.44L67.98 11.90L64.09 11.90L64.09 13.44L64.09 13.44Q66.30 15.06 68.68 17.25L68.68 17.25L67.82 18.51L67.82 18.51Q65.63 16.16 64.09 14.78L64.09 14.78ZM60.45 23.88L61.94 24.22L61.94 24.22Q60.87 28.14 58.80 31.16L58.80 31.16L57.48 30.32L57.48 30.32Q59.56 27.38 60.45 23.88L60.45 23.88ZM73.58 31.81L66.70 31.81L66.70 31.81Q64.29 31.81 64.29 29.29L64.29 29.29L64.29 23.49L65.80 23.49L65.80 28.98L65.80 28.98Q65.80 30.32 67.17 30.32L67.17 30.32L73.30 30.32L73.30 30.32Q74.45 30.32 74.87 29.90L74.87 29.90L74.87 29.90Q75.49 29.26 75.68 26.43L75.68 26.43L77.11 26.91L77.11 26.91Q76.86 30.35 75.96 31.16L75.96 31.16L75.96 31.16Q75.24 31.81 73.58 31.81L73.58 31.81ZM68.40 23.77L69.61 23.02L69.61 23.02Q71.76 25.28 72.86 26.88L72.86 26.88L71.62 27.75L71.62 27.75Q70.56 26.10 68.40 23.77L68.40 23.77ZM77.14 23.97L78.37 23.21L78.37 23.21Q81.17 26.74 82.71 29.54L82.71 29.54L81.45 30.44L81.45 30.44Q79.83 27.44 77.14 23.97L77.14 23.97ZM100.58 11.56L100.58 6.83L102.09 6.83L102.09 11.56L109.51 11.56L109.51 13.05L102.09 13.05L102.09 18.73L110.24 18.73L110.24 20.24L101.00 20.24L101.00 20.24Q98.03 27.30 95.90 29.90L95.90 29.90L95.90 29.90Q101.44 29.37 107.16 28.17L107.16 28.17L107.16 28.17Q105.95 25.62 104.50 23.27L104.50 23.27L105.98 22.79L105.98 22.79Q108.50 26.96 110.46 31.86L110.46 31.86L109.03 32.51L109.03 32.51Q108.36 30.80 107.77 29.51L107.77 29.51L107.77 29.51Q101.56 30.69 93.91 31.47L93.91 31.47L93.58 30.13L93.91 30.02L93.91 30.02Q96.01 28.22 99.40 20.24L99.40 20.24L92.37 20.24L92.37 18.73L100.58 18.73L100.58 13.05L93.72 13.05L93.72 11.56L100.58 11.56ZM86.30 8.43L87.39 7.36L87.39 7.36Q90.08 9.44 92.04 11.62L92.04 11.62L90.97 12.71L90.97 12.71Q89.26 10.72 86.30 8.43L86.30 8.43ZM85.60 14.98L86.69 13.94L86.69 13.94Q89.21 16.10 91 18.31L91 18.31L89.94 19.38L89.94 19.38Q88.40 17.39 85.60 14.98L85.60 14.98ZM90.33 21.62L91.70 22.18L91.70 22.18Q89.80 27.66 87.64 32.23L87.64 32.23L86.16 31.56L86.16 31.56Q88.51 26.88 90.33 21.62L90.33 21.62ZM117.01 26.88L117.01 26.88Q118.69 26.88 118.69 29.20L118.69 29.20L118.69 29.20Q118.69 32.51 115.89 34.05L115.89 34.05L115.30 33.07L115.30 33.07Q117.32 31.72 117.43 29.65L117.43 29.65L117.01 29.68L117.01 29.68Q116.40 29.68 115.98 29.32L115.98 29.32L115.98 29.32Q115.58 28.95 115.58 28.31L115.58 28.31L115.58 28.31Q115.58 27.58 115.98 27.27L115.98 27.27L115.98 27.27Q116.34 26.88 117.01 26.88L117.01 26.88ZM153.80 13.94L153.80 6.75L155.29 6.75L155.29 13.61L163.69 11.70L163.69 11.70Q163.69 19.71 163.46 21.56L163.46 21.56L163.46 21.56Q163.07 24.44 159.99 24.44L159.99 24.44L158.70 24.44L158.28 23.02L160.27 23.04L160.27 23.04Q161.90 23.04 162.15 20.69L162.15 20.69L162.15 20.69Q162.26 19.46 162.26 13.61L162.26 13.61L155.29 15.15L155.29 25.65L153.80 25.65L153.80 15.48L147.31 16.91L147.31 27.78L147.31 27.78Q147.31 30.04 149.44 30.04L149.44 30.04L161.81 30.04L161.81 30.04Q163.52 30.04 164.30 29.43L164.30 29.43L164.30 29.43Q165.03 28.73 165.28 24.70L165.28 24.70L166.68 25.17L166.68 25.17Q166.35 29.68 165.45 30.60L165.45 30.60L165.45 30.60Q164.53 31.53 162.06 31.53L162.06 31.53L149.07 31.53L149.07 31.53Q145.82 31.53 145.82 27.97L145.82 27.97L145.82 17.25L141.18 18.26L141.18 16.80L145.82 15.74L145.82 8.99L147.31 8.99L147.31 15.40L153.80 13.94ZM171.53 8.09L193.70 8.09L193.70 9.41L184.44 9.41L184.44 9.41Q184.21 10.36 183.74 11.54L183.74 11.54L191.49 11.54L191.49 19.21L185.05 19.21L185.05 22.12L185.05 22.12Q185.05 24.05 183.04 24.05L183.04 24.05L180.77 24.05L180.46 22.74L180.46 22.74Q181.55 22.82 182.56 22.82L182.56 22.82L182.56 22.82Q183.54 22.82 183.54 21.78L183.54 21.78L183.54 19.21L176.57 19.21L176.57 11.54L182.22 11.54L182.22 11.54Q182.64 10.61 182.92 9.41L182.92 9.41L173.01 9.41L173.01 18.76L173.01 18.76Q172.90 27.10 170.35 32.23L170.35 32.23L169.20 31.19L169.20 31.19Q171.42 26.71 171.53 18.76L171.53 18.76L171.53 8.09ZM178.02 18.03L190.01 18.03L190.01 15.88L178.02 15.88L178.02 18.03ZM178.02 12.66L178.02 14.81L190.01 14.81L190.01 12.66L178.02 12.66ZM186.45 32.12L181.02 32.12L181.02 32.12Q178.78 32.12 178.78 30.04L178.78 30.04L178.78 25.34L180.24 25.34L180.24 29.74L180.24 29.74Q180.24 30.77 181.47 30.77L181.47 30.77L186.17 30.77L186.17 30.77Q186.93 30.77 187.21 30.41L187.21 30.41L187.21 30.41Q187.60 29.93 187.77 27.58L187.77 27.58L189.14 28.06L189.14 28.06Q188.92 30.94 188.27 31.58L188.27 31.58L188.27 31.58Q187.66 32.12 186.45 32.12L186.45 32.12ZM175.92 25.65L177.18 26.26L177.18 26.26Q175.78 29.57 173.88 31.89L173.88 31.89L172.65 31.05L172.65 31.05Q174.52 28.81 175.92 25.65L175.92 25.65ZM182.34 25.76L183.37 25.09L183.37 25.09Q185.08 27.08 186.09 28.81L186.09 28.81L185.02 29.57L185.02 29.57Q184.04 27.86 182.34 25.76L182.34 25.76ZM188.97 25.76L190.15 25.03L190.15 25.03Q192.89 28.25 194.38 30.69L194.38 30.69L193.17 31.56L193.17 31.56Q191.63 28.95 188.97 25.76L188.97 25.76ZM178.89 20.13L179.90 21L179.90 21Q177.74 23.07 174.78 24.56L174.78 24.56L173.88 23.38L173.88 23.38Q176.85 22.01 178.89 20.13L178.89 20.13ZM187.18 21.28L187.94 20.19L187.94 20.19Q191.18 21.50 193.93 23.38L193.93 23.38L193.09 24.64L193.09 24.64Q190.26 22.57 187.18 21.28L187.18 21.28ZM214.65 16.10L214.65 16.10Q213.84 17.81 212.91 19.15L212.91 19.15L212.02 18.06L212.02 18.06Q214.70 14 215.63 7.08L215.63 7.08L217.06 7.34L217.06 7.34Q216.72 9.44 216.24 11.40L216.24 11.40L222.46 11.40L222.46 12.82L221.06 12.82L221.06 12.82Q220.98 20.50 218.62 25.59L218.62 25.59L218.62 25.59Q220.28 28.84 222.91 31.33L222.91 31.33L221.87 32.34L221.87 32.34Q219.49 30.04 217.87 27.05L217.87 27.05L217.87 27.05Q215.99 30.32 213.00 32.34L213.00 32.34L212.10 31.19L212.10 31.19Q215.24 29.15 217.08 25.54L217.08 25.54L217.08 25.54Q215.15 21.34 214.65 16.10L214.65 16.10ZM217.81 23.88L217.81 23.88Q219.60 19.35 219.66 12.82L219.66 12.82L215.85 12.82L215.63 13.58L215.63 13.58Q215.94 19.43 217.81 23.88L217.81 23.88ZM202.92 6.97L204.26 7.59L204.26 7.59Q203.34 10.70 201.99 13.47L201.99 13.47L201.99 32.45L200.54 32.45L200.54 16.10L200.54 16.10Q199.30 18.03 197.57 20.16L197.57 20.16L197.06 18.56L197.06 18.56Q201.12 13.41 202.92 6.97L202.92 6.97ZM209.10 19.63L212.16 19.63L212.16 29.06L206.02 29.06L206.02 30.97L204.57 30.97L204.57 19.63L207.65 19.63L207.65 13.72L203.84 13.72L203.84 12.32L207.65 12.32L207.65 7.22L209.10 7.22L209.10 12.32L212.83 12.32L212.83 13.72L209.10 13.72L209.10 19.63ZM206.02 21L206.02 27.69L210.73 27.69L210.73 21L206.02 21ZM225.46 20.16L225.46 18.65L250.52 18.65L250.52 20.16L225.46 20.16ZM265.24 32.40L265.24 15.09L266.76 15.09L266.76 32.40L265.24 32.40ZM265.30 6.89L266.70 6.89L266.70 6.89Q270.23 12.80 278.91 17.30L278.91 17.30L278.01 18.65L278.01 18.65Q269.95 14.50 266 8.34L266 8.34L266 8.34Q261.24 15.09 253.99 18.82L253.99 18.82L253.09 17.44L253.09 17.44Q261.02 13.38 265.30 6.89L265.30 6.89ZM296.77 19.60L292.26 19.60L292.26 30.13L292.26 30.13Q295.26 29.34 298.28 27.97L298.28 27.97L298.62 29.37L298.62 29.37Q295.29 30.80 290.44 32.03L290.44 32.03L290.14 30.80L290.14 30.80Q290.81 30.55 290.81 30.10L290.81 30.10L290.81 8.12L303.97 8.12L303.97 19.60L298.17 19.60L298.17 19.60Q298.76 22.54 300.33 24.95L300.33 24.95L300.33 24.95Q302.82 23.74 305.14 21.17L305.14 21.17L306.12 22.15L306.12 22.15Q303.97 24.67 301.11 26.04L301.11 26.04L301.11 26.04Q303.27 28.87 306.85 30.88L306.85 30.88L306.04 32.17L306.04 32.17Q298.40 27.64 296.77 19.60L296.77 19.60ZM302.48 14.56L292.26 14.56L292.26 18.20L302.48 18.20L302.48 14.56ZM292.26 13.16L302.48 13.16L302.48 9.52L292.26 9.52L292.26 13.16ZM287.14 6.86L288.46 7.48L288.46 7.48Q286.27 12.04 281.60 15.46L281.60 15.46L281.15 14L281.15 14Q285.29 10.84 287.14 6.86L287.14 6.86ZM287.95 13.97L289.27 14.59L289.27 14.59Q288.12 16.86 286.69 18.62L286.69 18.62L286.69 32.40L285.21 32.40L285.21 20.27L285.21 20.27Q283.67 21.78 281.76 23.16L281.76 23.16L281.32 21.73L281.32 21.73Q285.88 18.31 287.95 13.97L287.95 13.97ZM314.19 6.50L315.67 6.66L315.67 6.66Q315.31 8.88 314.64 12.38L314.64 12.38L319.62 12.38L319.62 13.30L319.62 13.30Q319.14 20.10 316.74 24.98L316.74 24.98L316.74 24.98Q319.51 27.16 320.91 28.56L320.91 28.56L319.87 29.74L319.87 29.74Q318.28 28.14 316.01 26.29L316.01 26.29L316.01 26.29Q313.82 29.93 310.46 32.51L310.46 32.51L309.46 31.22L309.46 31.22Q312.79 28.78 314.83 25.34L314.83 25.34L314.83 25.34Q313.01 23.88 310.46 22.04L310.46 22.04L310.46 22.04Q311.81 18.23 312.82 13.86L312.82 13.86L309.62 13.86L309.62 12.38L313.12 12.38L313.12 12.38Q313.77 9.27 314.19 6.50L314.19 6.50ZM315.53 24.05L315.53 24.05Q317.66 19.68 318.14 13.86L318.14 13.86L314.30 13.86L314.30 13.86Q313.24 18.51 312.12 21.56L312.12 21.56L312.12 21.56Q313.96 22.85 315.53 24.05L315.53 24.05ZM320.77 20.30L320.77 18.79L327.35 18.79L327.35 15.04L327.35 15.04Q329.70 12.96 331.80 10.00L331.80 10.00L321.64 10.00L321.64 8.48L333.56 8.48L333.56 10.00L333.56 10.00Q331.52 12.94 328.86 15.54L328.86 15.54L328.86 18.79L334.80 18.79L334.80 20.30L328.86 20.30L328.86 29.74L328.86 29.74Q328.86 32.12 326.79 32.12L326.79 32.12L322.87 32.12L322.48 30.66L322.48 30.66Q324.72 30.72 326.17 30.72L326.17 30.72L326.17 30.72Q327.35 30.72 327.35 29.26L327.35 29.26L327.35 20.30L320.77 20.30ZM342.50 11.87L347.09 11.87L347.09 30.69L345.63 30.69L345.63 28.98L339.98 28.98L339.98 31.47L338.52 31.47L338.52 11.87L341.04 11.87L341.04 11.87Q341.91 9.49 342.30 6.86L342.30 6.86L343.84 7.06L343.84 7.06Q343.39 9.63 342.50 11.87L342.50 11.87ZM339.98 20.94L339.98 27.58L345.63 27.58L345.63 20.94L339.98 20.94ZM339.98 13.33L339.98 19.57L345.63 19.57L345.63 13.33L339.98 13.33ZM350.62 18.98L351.85 18.20L351.85 18.20Q355.07 21.76 356.72 24.36L356.72 24.36L355.52 25.23L355.52 25.23Q353.84 22.51 350.62 18.98L350.62 18.98ZM352.46 11.90L361.59 11.90L361.59 11.90Q361.59 25.37 361.20 28.67L361.20 28.67L361.20 28.67Q360.78 32.03 357.31 32.03L357.31 32.03L354.56 31.98L354.20 30.58L354.20 30.58Q355.88 30.66 357.14 30.66L357.14 30.66L357.14 30.66Q359.41 30.66 359.74 28.17L359.74 28.17L359.74 28.17Q360.05 25.87 360.14 13.41L360.14 13.41L351.88 13.41L351.88 13.41Q350.67 16.18 349.05 18.31L349.05 18.31L348.15 17.14L348.15 17.14Q351.18 12.94 352.27 6.83L352.27 6.83L353.75 7L353.75 7Q353.22 9.74 352.46 11.90L352.46 11.90ZM365.43 9.58L365.43 8.12L375.98 8.12L375.98 9.58L373.91 9.58L373.91 25.51L373.91 25.51Q374.67 25.28 376.12 24.78L376.12 24.78L376.12 26.26L376.12 26.26Q375.70 26.38 375.00 26.60L375.00 26.60L373.91 26.96L373.91 32.62L372.40 32.62L372.40 27.38L372.40 27.38Q369.32 28.22 365.74 28.92L365.74 28.92L365.37 27.50L367.19 27.19L367.19 9.58L365.43 9.58ZM368.62 21.39L368.62 26.88L368.62 26.88Q370.55 26.46 372.40 25.96L372.40 25.96L372.40 21.39L368.62 21.39ZM368.62 15.57L368.62 19.99L372.40 19.99L372.40 15.57L368.62 15.57ZM368.62 9.58L368.62 14.17L372.40 14.17L372.40 9.58L368.62 9.58ZM382.14 6.86L383.54 6.86L383.54 6.86Q385.73 12.26 391.10 16.38L391.10 16.38L390.26 17.64L390.26 17.64Q385.25 13.86 382.84 8.40L382.84 8.40L382.84 8.40Q379.96 14.45 375.68 17.70L375.68 17.70L374.86 16.44L374.86 16.44Q379.60 12.71 382.14 6.86L382.14 6.86ZM380.55 14.70L381.53 13.80L381.53 13.80Q383.43 15.12 385.17 17.14L385.17 17.14L384.24 18.14L384.24 18.14Q382.54 16.16 380.55 14.70L380.55 14.70ZM377.02 20.72L377.02 19.29L388.72 19.29L388.72 20.58L388.72 20.58Q386.40 24.81 383.49 27.92L383.49 27.92L383.49 27.92Q385.95 29.88 387.66 31.56L387.66 31.56L386.54 32.68L386.54 32.68Q383.21 29.20 377.33 25.26L377.33 25.26L378.36 24.25L378.36 24.25Q380.69 25.79 382.34 27.02L382.34 27.02L382.34 27.02Q384.83 24.36 387.04 20.72L387.04 20.72L377.02 20.72ZM417.14 7.25L417.90 8.60L417.90 8.60Q413.11 10.39 407.15 10.70L407.15 10.70L407.15 16.16L418.54 16.16L418.54 17.61L414.09 17.61L414.09 32.42L412.58 32.42L412.58 17.61L407.15 17.61L407.15 18.87L407.15 18.87Q406.87 27.13 402.36 32.09L402.36 32.09L401.24 30.94L401.24 30.94Q405.36 26.57 405.69 18.87L405.69 18.87L405.69 9.38L405.69 9.38Q412.05 9.21 417.14 7.25L417.14 7.25ZM394.80 9.46L402.02 9.46L402.02 25.96L396.31 25.96L396.31 28.20L394.80 28.20L394.80 9.46ZM396.31 10.92L396.31 24.50L400.51 24.50L400.51 10.92L396.31 10.92ZM424.28 11.37L424.28 9.94L432.04 9.94L432.04 6.80L433.55 6.80L433.55 9.94L440.52 9.94L440.52 11.37L433.55 11.37L433.55 15.15L437.30 15.15L437.30 15.15Q441.36 12.29 444.42 8.65L444.42 8.65L445.56 9.52L445.56 9.52Q442.88 12.71 439.77 15.15L439.77 15.15L446.46 15.15L446.46 16.60L437.75 16.60L436.35 17.50L436.35 17.50Q434 18.87 431.28 20.10L431.28 20.10L442.76 20.10L442.76 32.45L441.22 32.45L441.22 31.08L428.43 31.08L428.43 32.45L426.92 32.45L426.92 21.87L426.92 21.87Q424.00 22.90 421.93 23.49L421.93 23.49L421.32 22.09L421.32 22.09Q428.68 20.36 434.62 16.88L434.62 16.88L435.06 16.60L421.65 16.60L421.65 15.15L432.04 15.15L432.04 11.37L424.28 11.37ZM441.22 26.21L428.43 26.21L428.43 29.68L441.22 29.68L441.22 26.21ZM428.43 24.86L441.22 24.86L441.22 21.48L428.43 21.48L428.43 24.86ZM456.99 10.81L458.28 10.00L458.28 10.00Q462.06 14.22 464.27 17.67L464.27 17.67L463.01 18.56L463.01 18.56Q460.80 14.98 456.99 10.81L456.99 10.81ZM468.19 23.18L468.19 23.18Q465.50 28.56 459.26 32.23L459.26 32.23L458.22 30.97L458.22 30.97Q465.28 26.94 467.63 20.61L467.63 20.61L467.63 20.61Q469.39 15.23 469.39 7.14L469.39 7.14L470.96 7.14L470.96 7.14Q470.96 15.01 469.28 20.47L469.28 20.47L469.28 20.47Q469 21.31 468.83 21.70L468.83 21.70L468.83 21.70Q472.28 26.12 474.77 30.77L474.77 30.77L473.62 31.92L473.62 31.92Q471.46 27.64 468.19 23.18L468.19 23.18ZM451.75 29.20L451.28 27.78L451.28 27.78Q451.95 27.36 451.95 26.54L451.95 26.54L451.95 8.09L453.52 8.09L453.52 26.96L453.52 26.96Q457.02 25.59 460.32 23.58L460.32 23.58L460.77 25.09L460.77 25.09Q456.62 27.47 451.75 29.20L451.75 29.20ZM484.60 12.60L484.60 9.77L479.56 9.77L479.56 8.26L495.88 8.26L495.88 9.24L495.88 9.24Q495.18 12.80 494.34 15.85L494.34 15.85L500.02 15.85L500.02 16.77L500.02 16.77Q498.85 22.54 494.54 26.57L494.54 26.57L494.54 26.57Q497.87 29.15 502.38 31.14L502.38 31.14L501.37 32.45L501.37 32.45Q496.78 30.38 493.36 27.61L493.36 27.61L493.36 27.61Q489.66 30.60 484.09 32.54L484.09 32.54L483.22 31.14L483.22 31.14Q488.60 29.29 492.16 26.57L492.16 26.57L492.16 26.57Q487.73 22.57 485.83 17.25L485.83 17.25L485.83 17.25Q484.62 27.24 478.49 32.31L478.49 32.31L477.32 31.30L477.32 31.30Q484.46 25.45 484.60 12.60L484.60 12.60ZM493.33 25.59L493.33 25.59Q497.17 22.09 498.43 17.28L498.43 17.28L492.44 17.28L492.44 17.28Q493.25 14.81 494.23 9.77L494.23 9.77L486.11 9.77L486.11 13.10L486.08 13.64L486.08 13.64Q487.56 20.66 493.33 25.59L493.33 25.59ZM527.18 24.19L517.83 24.19L517.83 26.54L527.18 26.54L527.18 24.19ZM517.83 23.04L527.18 23.04L527.18 20.58L517.83 20.58L517.83 23.04ZM527.18 27.69L517.83 27.69L517.83 32.34L516.38 32.34L516.38 19.35L528.61 19.35L528.61 29.48L528.61 29.48Q528.61 32.23 526.43 32.23L526.43 32.23L524.33 32.23L523.96 30.94L525.98 31.00L525.98 31.00Q527.18 31.00 527.18 29.18L527.18 29.18L527.18 27.69ZM521.78 8.82L521.78 6.69L523.32 6.69L523.32 8.82L529.98 8.82L529.98 10.05L523.32 10.05L523.32 12.38L529.06 12.38L529.06 13.58L523.32 13.58L523.32 15.90L530.77 15.90L530.77 17.14L514.16 17.14L514.16 16.77L513.32 16.97L513.32 16.97Q512.46 14.48 511.08 12.01L511.08 12.01L512.12 11.68L512.12 11.68Q513.18 13.41 514.16 15.90L514.16 15.90L521.78 15.90L521.78 13.58L515.96 13.58L515.96 12.38L521.78 12.38L521.78 10.05L514.98 10.05L514.98 8.82L521.78 8.82ZM506.49 12.21L507.67 12.29L507.67 12.29Q507.50 16.41 506.10 20.13L506.10 20.13L504.95 19.82L504.95 19.82Q506.32 16.27 506.49 12.21L506.49 12.21ZM509.04 32.28L509.04 6.97L510.55 6.97L510.55 32.28L509.04 32.28ZM538.83 14.90L538.83 13.61L548.04 13.61L548.04 14.90L538.83 14.90ZM539.76 22.43L539.76 16.94L547.29 16.94L547.29 22.43L539.76 22.43ZM541.18 21.20L545.86 21.20L545.86 18.17L541.18 18.17L541.18 21.20ZM555.52 9.58L557.48 9.58L557.48 10.98L550.59 10.98L550.59 10.98Q550.76 14.22 551.35 16.32L551.35 16.32L551.35 16.32Q551.74 17.84 552.22 18.96L552.22 18.96L552.22 18.96Q553.87 16.46 555.07 12.80L555.07 12.80L556.28 13.41L556.28 13.41Q554.96 17.56 552.92 20.36L552.92 20.36L553.42 21.08L553.42 21.08Q554.62 22.54 555.63 22.54L555.63 22.54L555.63 22.54Q556.42 22.54 557.34 18.87L557.34 18.87L558.57 19.60L558.57 19.60Q557.37 23.97 555.77 23.97L555.77 23.97L555.77 23.97Q554.12 23.97 552.55 22.26L552.55 22.26L552.55 22.26Q552.33 22.01 551.99 21.50L551.99 21.50L551.99 21.50Q550.59 23.02 548.88 24.05L548.88 24.05L548.10 22.85L548.10 22.85Q549.78 21.87 551.24 20.24L551.24 20.24L551.24 20.24Q550.48 18.76 549.98 17.02L549.98 17.02L549.98 17.02Q549.33 14.64 549.11 10.98L549.11 10.98L537.35 10.98L537.35 14.62L537.35 14.62Q537.18 20.33 534.60 23.74L534.60 23.74L533.46 22.74L533.46 22.74Q535.75 19.77 535.84 14.62L535.84 14.62L535.84 9.58L549.05 9.58L549.05 9.58Q549.00 8.68 549.00 6.78L549.00 6.78L550.45 6.78L550.45 6.78Q550.45 8.68 550.51 9.58L550.51 9.58L554.18 9.58L554.18 9.58Q553.62 8.29 552.92 7.20L552.92 7.20L554.32 6.94L554.32 6.94Q555.04 8.34 555.52 9.58L555.52 9.58ZM536.68 24.22L538.08 24.53L538.08 24.53Q536.90 28.59 534.86 31.50L534.86 31.50L533.57 30.66L533.57 30.66Q535.67 27.78 536.68 24.22L536.68 24.22ZM549.22 31.98L543.40 31.98L543.40 31.98Q540.71 31.98 540.71 29.20L540.71 29.20L540.71 24.11L542.25 24.11L542.25 28.90L542.25 28.90Q542.25 30.55 543.84 30.55L543.84 30.55L548.94 30.55L548.94 30.55Q550.17 30.55 550.68 30.13L550.68 30.13L550.68 30.13Q551.29 29.60 551.54 27.02L551.54 27.02L553 27.47L553 27.47Q552.66 30.66 551.77 31.39L551.77 31.39L551.77 31.39Q550.98 31.98 549.22 31.98L549.22 31.98ZM553.36 25.68L554.60 24.89L554.60 24.89Q557.17 27.69 558.66 29.99L558.66 29.99L557.45 30.83L557.45 30.83Q555.91 28.42 553.36 25.68L553.36 25.68ZM544.68 24.61L545.83 23.88L545.83 23.88Q547.99 26.21 548.97 27.69L548.97 27.69L547.82 28.48L547.82 28.48Q546.62 26.66 544.68 24.61L544.68 24.61ZM563.22 10.16L563.22 8.68L584.84 8.68L584.84 10.16L580.02 10.16L580.02 18.12L586.32 18.12L586.32 19.60L580.02 19.60L580.02 32.20L578.51 32.20L578.51 19.60L569.91 19.60L569.91 19.60Q569.58 24.00 568.32 26.91L568.32 26.91L568.32 26.91Q566.72 30.38 563.08 32.34L563.08 32.34L562.21 31.05L562.21 31.05Q565.68 29.12 567.14 25.76L567.14 25.76L567.14 25.76Q568.09 23.24 568.40 19.60L568.40 19.60L561.71 19.60L561.71 18.12L568.48 18.12L568.51 16.88L568.51 10.16L563.22 10.16ZM578.51 10.16L570.02 10.16L570.02 17.50L570.00 18.12L578.51 18.12L578.51 10.16Z"></path></svg>