<svg xmlns="http://www.w3.org/2000/svg" xmlns:xlink="http://www.w3.org/1999/xlink" width="588" height="39.2" style="background: rgb(64, 16, 81);"><path fill="#bfcbff" d="M4.90 32.42L4.90 16.21L4.90 16.21Q3.53 18.26 1.51 20.47L1.51 20.47L1.01 18.87L1.01 18.87Q5.68 13.50 7.73 6.78L7.73 6.78L9.13 7.42L9.13 7.42Q8.06 10.72 6.41 13.75L6.41 13.75L6.41 32.42L4.90 32.42ZM20.92 18.45L22.29 18.00L22.29 18.00Q24.53 22.99 26.24 28.78L26.24 28.78L24.86 29.40L24.86 29.40Q23.10 23.21 20.92 18.45L20.92 18.45ZM24.00 11.93L12.88 11.93L12.88 11.93Q11.51 15.23 9.63 18.06L9.63 18.06L8.34 17.25L8.34 17.25Q11.56 12.60 13.08 6.72L13.08 6.72L14.53 7.03L14.53 7.03Q14.03 8.82 13.44 10.47L13.44 10.47L25.54 10.47L25.54 11.48L25.54 11.48Q24.86 14.08 23.72 16.63L23.72 16.63L22.26 16.21L22.26 16.21Q23.30 14.39 24.00 11.93L24.00 11.93ZM16.58 32.20L12.88 32.20L12.54 30.77L12.54 30.77Q15.01 30.88 16.07 30.88L16.07 30.88L16.07 30.88Q17.16 30.88 17.16 29.79L17.16 29.79L17.16 14.56L18.62 14.56L18.62 30.16L18.62 30.16Q18.62 32.20 16.58 32.20L16.58 32.20ZM12.60 18.20L13.97 18.56L13.97 18.56Q12.38 24.47 9.94 28.92L9.94 28.92L8.48 28.39L8.48 28.39Q10.84 24.39 12.60 18.20L12.60 18.20ZM33.74 17.36L33.74 7.92L50.54 7.92L50.54 17.36L33.74 17.36ZM35.25 16.02L49.03 16.02L49.03 13.30L35.25 13.30L35.25 16.02ZM35.25 9.24L35.25 12.04L49.03 12.04L49.03 9.24L35.25 9.24ZM41.58 30.18L41.58 21.11L29.71 21.11L29.71 19.74L54.38 19.74L54.38 21.11L43.06 21.11L43.06 24.75L51.35 24.75L51.35 26.15L43.06 26.15L43.06 30.41L43.06 30.41Q45.30 30.63 48.19 30.63L48.19 30.63L48.19 30.63Q50.93 30.63 54.18 30.52L54.18 30.52L53.76 32.00L48.30 31.98L48.30 31.98Q41.38 31.92 38.98 30.86L38.98 30.86L38.98 30.86Q36.74 29.85 34.97 26.85L34.97 26.85L34.97 26.85Q33.32 30.18 30.74 32.28L30.74 32.28L29.74 31.08L29.74 31.08Q33.66 27.83 35.06 22.34L35.06 22.34L36.51 22.60L36.51 22.60Q36.12 24.14 35.53 25.59L35.53 25.59L35.53 25.59Q37.35 28.78 39.68 29.71L39.68 29.71L39.68 29.71Q40.52 29.99 41.58 30.18L41.58 30.18ZM57.46 20.16L57.46 18.65L82.52 18.65L82.52 20.16L57.46 20.16ZM97.24 32.40L97.24 15.09L98.76 15.09L98.76 32.40L97.24 32.40ZM97.30 6.89L98.70 6.89L98.70 6.89Q102.23 12.80 110.91 17.30L110.91 17.30L110.01 18.65L110.01 18.65Q101.95 14.50 98 8.34L98 8.34L98 8.34Q93.24 15.09 85.99 18.82L85.99 18.82L85.09 17.44L85.09 17.44Q93.02 13.38 97.30 6.89L97.30 6.89ZM114.80 10.84L114.80 9.49L121.32 9.49L121.32 9.49Q120.71 8.18 119.90 7.03L119.90 7.03L121.55 6.75L121.55 6.75Q122.19 7.90 122.89 9.49L122.89 9.49L129.16 9.49L129.16 9.49Q130.23 8.06 130.70 6.69L130.70 6.69L132.30 6.92L132.30 6.92Q131.74 8.29 130.79 9.49L130.79 9.49L137.20 9.49L137.20 10.84L126.76 10.84L126.76 13.13L135.94 13.13L135.94 14.36L126.76 14.36L126.76 16.63L137.79 16.63L137.79 17.98L133.45 17.98L133.45 17.98Q132.92 19.49 131.91 21.03L131.91 21.03L138.21 21.03L138.21 22.40L113.79 22.40L113.79 21.03L120.04 21.03L120.04 21.03Q119.39 19.38 118.50 17.98L118.50 17.98L114.21 17.98L114.21 16.63L125.24 16.63L125.24 14.36L116.06 14.36L116.06 13.13L125.24 13.13L125.24 10.84L114.80 10.84ZM126.76 21.03L130.42 21.03L130.42 21.03Q131.38 19.60 131.96 17.98L131.96 17.98L126.76 17.98L126.76 21.03ZM125.24 17.98L120.12 17.98L120.12 17.98Q120.85 19.26 121.46 21.03L121.46 21.03L125.24 21.03L125.24 17.98ZM116.87 24.81L135.10 24.81L135.10 32.42L133.59 32.42L133.59 31.22L118.41 31.22L118.41 32.42L116.87 32.42L116.87 24.81ZM118.41 26.21L118.41 29.79L133.59 29.79L133.59 26.21L118.41 26.21ZM160.08 21.62L156.52 21.62L156.52 21.62Q155.76 23.21 154.73 24.33L154.73 24.33L153.83 23.24L153.83 23.24Q155.68 21.20 156.35 17.72L156.35 17.72L157.64 17.98L157.64 17.98Q157.39 19.24 157.05 20.22L157.05 20.22L160.08 20.22L160.08 17.50L161.56 17.50L161.56 20.22L165.98 20.22L165.98 21.62L161.56 21.62L161.56 25.45L166.57 25.45L166.57 26.88L161.56 26.88L161.56 32.48L160.08 32.48L160.08 26.88L153.89 26.88L153.89 25.45L160.08 25.45L160.08 21.62ZM158.06 10.05L154.11 10.05L154.11 8.71L165.54 8.71L165.54 8.71Q165.51 14.14 164.81 15.26L164.81 15.26L164.81 15.26Q164.14 16.35 162.40 16.35L162.40 16.35L162.40 16.35Q161.90 16.35 160.05 16.30L160.05 16.30L159.68 14.98L159.68 14.98Q159.96 15.01 162.06 15.09L162.06 15.09L162.06 15.09Q163.35 15.04 163.69 14.25L163.69 14.25L163.69 14.25Q164.00 13.41 164.08 10.05L164.08 10.05L159.49 10.05L159.49 10.05Q159.07 12.10 158.23 13.64L158.23 13.64L158.23 13.64Q157.16 15.34 155.04 16.77L155.04 16.77L154.14 15.62L154.14 15.62Q156.10 14.45 157.08 12.80L157.08 12.80L157.08 12.80Q157.78 11.54 158.06 10.05L158.06 10.05ZM147.31 20.22L144.37 20.22L144.37 23.83L144.34 24.25L147.31 24.25L147.31 20.22ZM147.31 25.56L144.26 25.56L144.26 25.56Q143.92 29.71 142.30 32.62L142.30 32.62L141.29 31.67L141.29 31.67Q142.94 28.53 143.02 23.52L143.02 23.52L143.02 14.36L142.38 15.09L141.46 13.97L141.46 13.97Q144.06 11.12 145.63 6.72L145.63 6.72L147.03 7.06L147.03 7.06Q146.58 8.29 146.24 9.07L146.24 9.07L151.42 9.07L151.42 10.16L151.42 10.16Q150.39 12.24 149.35 13.66L149.35 13.66L152.94 13.66L152.94 30.32L152.94 30.32Q152.94 32.23 151.09 32.23L151.09 32.23L149.32 32.23L148.99 30.94L148.99 30.94Q150.22 31.00 150.67 31.00L150.67 31.00L150.67 31.00Q151.62 31.00 151.62 29.88L151.62 29.88L151.62 25.56L148.60 25.56L148.60 32.09L147.31 32.09L147.31 25.56ZM143.56 13.66L147.76 13.66L147.76 13.66Q148.79 12.26 149.80 10.39L149.80 10.39L145.60 10.39L145.60 10.39Q144.76 12.01 143.56 13.66L143.56 13.66ZM148.60 24.25L151.62 24.25L151.62 20.22L148.60 20.22L148.60 24.25ZM148.60 18.87L151.62 18.87L151.62 15.01L148.60 15.01L148.60 18.87ZM147.31 18.87L147.31 15.01L144.37 15.01L144.37 18.87L147.31 18.87ZM181.24 6.92L182.78 6.92L182.78 6.92Q182.78 10.05 182.59 13.05L182.59 13.05L182.59 13.05Q184.94 24.70 194.88 30.86L194.88 30.86L193.87 32.14L193.87 32.14Q184.83 26.29 182.06 16.38L182.06 16.38L182.06 16.38Q179.73 25.93 170.02 32.17L170.02 32.17L169.09 30.83L169.09 30.83Q180.80 23.52 181.22 11.45L181.22 11.45L181.24 6.92ZM204.93 12.66L203.87 10.05L199.22 10.05L199.22 8.71L209.16 8.71L209.16 8.71Q208.77 7.73 208.18 6.78L208.18 6.78L209.80 6.50L209.80 6.50Q210.28 7.39 210.76 8.71L210.76 8.71L220.78 8.71L220.78 10.05L216.08 10.05L214.82 12.66L222.12 12.66L222.12 14L197.88 14L197.88 12.66L204.93 12.66ZM205.44 10.05L206.47 12.66L213.25 12.66L214.51 10.05L205.44 10.05ZM201.29 24.00L201.29 16.07L218.71 16.07L218.71 24.00L201.29 24.00ZM202.80 22.76L217.20 22.76L217.20 20.61L202.80 20.61L202.80 22.76ZM202.80 17.28L202.80 19.43L217.20 19.43L217.20 17.28L202.80 17.28ZM200.14 25.48L201.66 25.79L201.66 25.79Q200.68 29.09 198.86 31.58L198.86 31.58L197.54 30.74L197.54 30.74Q199.30 28.36 200.14 25.48L200.14 25.48ZM213.81 31.98L206.98 31.98L206.98 31.98Q204.46 31.98 204.46 29.60L204.46 29.60L204.46 25.82L205.97 25.82L205.97 29.26L205.97 29.26Q205.97 30.60 207.42 30.60L207.42 30.60L213.50 30.60L213.50 30.60Q214.51 30.60 214.90 30.21L214.90 30.21L214.90 30.21Q215.49 29.71 215.66 27.38L215.66 27.38L217.08 27.86L217.08 27.86Q216.83 30.74 215.99 31.42L215.99 31.42L215.99 31.42Q215.29 31.98 213.81 31.98L213.81 31.98ZM208.77 25.65L210.03 24.84L210.03 24.84Q211.90 26.77 212.88 28.14L212.88 28.14L211.62 29.04L211.62 29.04Q210.56 27.52 208.77 25.65L208.77 25.65ZM217.62 26.12L218.85 25.34L218.85 25.34Q221.40 28.34 222.57 30.32L222.57 30.32L221.34 31.22L221.34 31.22Q220.02 28.98 217.62 26.12L217.62 26.12ZM230.50 11.87L235.09 11.87L235.09 30.69L233.63 30.69L233.63 28.98L227.98 28.98L227.98 31.47L226.52 31.47L226.52 11.87L229.04 11.87L229.04 11.87Q229.91 9.49 230.30 6.86L230.30 6.86L231.84 7.06L231.84 7.06Q231.39 9.63 230.50 11.87L230.50 11.87ZM227.98 20.94L227.98 27.58L233.63 27.58L233.63 20.94L227.98 20.94ZM227.98 13.33L227.98 19.57L233.63 19.57L233.63 13.33L227.98 13.33ZM238.62 18.98L239.85 18.20L239.85 18.20Q243.07 21.76 244.72 24.36L244.72 24.36L243.52 25.23L243.52 25.23Q241.84 22.51 238.62 18.98L238.62 18.98ZM240.46 11.90L249.59 11.90L249.59 11.90Q249.59 25.37 249.20 28.67L249.20 28.67L249.20 28.67Q248.78 32.03 245.31 32.03L245.31 32.03L242.56 31.98L242.20 30.58L242.20 30.58Q243.88 30.66 245.14 30.66L245.14 30.66L245.14 30.66Q247.41 30.66 247.74 28.17L247.74 28.17L247.74 28.17Q248.05 25.87 248.14 13.41L248.14 13.41L239.88 13.41L239.88 13.41Q238.67 16.18 237.05 18.31L237.05 18.31L236.15 17.14L236.15 17.14Q239.18 12.94 240.27 6.83L240.27 6.83L241.75 7L241.75 7Q241.22 9.74 240.46 11.90L240.46 11.90ZM265.24 6.92L266.78 6.92L266.78 6.92Q266.78 10.05 266.59 13.05L266.59 13.05L266.59 13.05Q268.94 24.70 278.88 30.86L278.88 30.86L277.87 32.14L277.87 32.14Q268.83 26.29 266.06 16.38L266.06 16.38L266.06 16.38Q263.73 25.93 254.02 32.17L254.02 32.17L253.09 30.83L253.09 30.83Q264.80 23.52 265.22 11.45L265.22 11.45L265.24 6.92ZM285.01 26.88L285.01 26.88Q286.69 26.88 286.69 29.20L286.69 29.20L286.69 29.20Q286.69 32.51 283.89 34.05L283.89 34.05L283.30 33.07L283.30 33.07Q285.32 31.72 285.43 29.65L285.43 29.65L285.01 29.68L285.01 29.68Q284.40 29.68 283.98 29.32L283.98 29.32L283.98 29.32Q283.58 28.95 283.58 28.31L283.58 28.31L283.58 28.31Q283.58 27.58 283.98 27.27L283.98 27.27L283.98 27.27Q284.34 26.88 285.01 26.88L285.01 26.88ZM314.19 6.50L315.67 6.66L315.67 6.66Q315.31 8.88 314.64 12.38L314.64 12.38L319.62 12.38L319.62 13.30L319.62 13.30Q319.14 20.10 316.74 24.98L316.74 24.98L316.74 24.98Q319.51 27.16 320.91 28.56L320.91 28.56L319.87 29.74L319.87 29.74Q318.28 28.14 316.01 26.29L316.01 26.29L316.01 26.29Q313.82 29.93 310.46 32.51L310.46 32.51L309.46 31.22L309.46 31.22Q312.79 28.78 314.83 25.34L314.83 25.34L314.83 25.34Q313.01 23.88 310.46 22.04L310.46 22.04L310.46 22.04Q311.81 18.23 312.82 13.86L312.82 13.86L309.62 13.86L309.62 12.38L313.12 12.38L313.12 12.38Q313.77 9.27 314.19 6.50L314.19 6.50ZM315.53 24.05L315.53 24.05Q317.66 19.68 318.14 13.86L318.14 13.86L314.30 13.86L314.30 13.86Q313.24 18.51 312.12 21.56L312.12 21.56L312.12 21.56Q313.96 22.85 315.53 24.05L315.53 24.05ZM320.77 20.30L320.77 18.79L327.35 18.79L327.35 15.04L327.35 15.04Q329.70 12.96 331.80 10.00L331.80 10.00L321.64 10.00L321.64 8.48L333.56 8.48L333.56 10.00L333.56 10.00Q331.52 12.94 328.86 15.54L328.86 15.54L328.86 18.79L334.80 18.79L334.80 20.30L328.86 20.30L328.86 29.74L328.86 29.74Q328.86 32.12 326.79 32.12L326.79 32.12L322.87 32.12L322.48 30.66L322.48 30.66Q324.72 30.72 326.17 30.72L326.17 30.72L326.17 30.72Q327.35 30.72 327.35 29.26L327.35 29.26L327.35 20.30L320.77 20.30ZM345.94 18.34L345.94 13.10L344.54 14L343.59 12.88L343.59 12.88Q347.90 10.44 350.45 6.72L350.45 6.72L351.99 7.06L351.99 7.06Q351.29 8.09 350.73 8.79L350.73 8.79L358.04 8.79L358.04 9.83L358.04 9.83Q356.89 11.34 355.54 12.54L355.54 12.54L361.03 12.54L361.03 18.34L352.60 18.34L352.60 18.34Q352.55 18.40 352.49 18.51L352.49 18.51L352.49 18.51Q354.42 20.47 355.43 22.76L355.43 22.76L355.43 22.76Q358.54 21.39 360.56 19.43L360.56 19.43L361.54 20.52L361.54 20.52Q360.11 21.78 358.43 22.79L358.43 22.79L358.43 22.79Q359.66 26.85 362.91 29.93L362.91 29.93L361.90 31.14L361.90 31.14Q358.62 27.64 357.28 23.41L357.28 23.41L355.91 24.05L355.91 24.05Q356.36 25.51 356.44 27.27L356.44 27.27L356.44 27.27Q356.44 30.07 355.57 31.19L355.57 31.19L355.57 31.19Q354.82 32.06 352.86 32.37L352.86 32.37L351.15 32.40L350.67 31.02L352.66 31.02L352.66 31.02Q353.67 30.94 354.31 30.21L354.31 30.21L354.31 30.21Q354.93 29.43 354.93 27.27L354.93 27.27L354.93 27.27Q354.90 26.68 354.79 25.76L354.79 25.76L354.79 25.76Q351.12 29.20 344.93 31.39L344.93 31.39L344.15 30.10L344.15 30.10Q350.87 27.86 354.48 24.39L354.48 24.39L354.48 24.39Q354.14 23.24 353.61 22.26L353.61 22.26L353.61 22.26Q350.48 25.14 344.96 27.02L344.96 27.02L344.23 25.73L344.23 25.73Q349.89 23.97 353.00 21.20L353.00 21.20L353.00 21.20Q352.18 20.08 351.60 19.49L351.60 19.49L351.60 19.49Q349.13 21.90 344.85 22.88L344.85 22.88L344.26 21.59L344.26 21.59Q348.52 20.64 350.76 18.34L350.76 18.34L345.94 18.34ZM346.72 12.54L353.58 12.54L353.58 12.54Q354.93 11.45 356.22 10.02L356.22 10.02L349.64 10.02L349.64 10.02Q348.32 11.37 346.72 12.54L346.72 12.54ZM353.44 17.05L359.55 17.05L359.55 13.83L354.59 13.83L354.59 13.83Q354.23 15.57 353.44 17.05L353.44 17.05ZM347.42 17.05L351.79 17.05L351.79 17.05Q352.77 15.57 353.14 13.83L353.14 13.83L347.42 13.83L347.42 17.05ZM340.62 32.40L340.62 15.88L340.62 15.88Q339.25 18.09 337.62 20.02L337.62 20.02L337.12 18.42L337.12 18.42Q341.10 13.33 342.92 6.80L342.92 6.80L344.29 7.45L344.29 7.45Q343.42 10.47 342.10 13.16L342.10 13.16L342.10 32.40L340.62 32.40ZM369.38 20.64L369.38 11.96L380.04 11.96L380.04 11.96Q381.89 9.38 383.15 6.61L383.15 6.61L384.58 7.11L384.58 7.11Q383.07 10.11 381.67 11.96L381.67 11.96L386.62 11.96L386.62 20.64L369.38 20.64ZM370.92 19.18L385.08 19.18L385.08 13.41L370.92 13.41L370.92 19.18ZM371.08 7.34L372.40 6.69L372.40 6.69Q373.91 8.48 375.45 10.92L375.45 10.92L374.19 11.59L374.19 11.59Q372.71 9.16 371.08 7.34L371.08 7.34ZM368.20 23.24L369.66 23.52L369.66 23.52Q368.54 28 366.60 31.14L366.60 31.14L365.29 30.32L365.29 30.32Q367.28 27.24 368.20 23.24L368.20 23.24ZM376.91 22.48L378.28 22.04L378.28 22.04Q379.96 24.36 381.11 26.82L381.11 26.82L379.71 27.44L379.71 27.44Q378.50 24.72 376.91 22.48L376.91 22.48ZM385.64 23.18L387.10 22.71L387.10 22.71Q389.14 26.10 390.52 29.65L390.52 29.65L389.14 30.30L389.14 30.30Q387.55 26.29 385.64 23.18L385.64 23.18ZM381.95 32.06L374.86 32.06L374.86 32.06Q372.43 32.06 372.43 29.51L372.43 29.51L372.43 23.52L373.97 23.52L373.97 29.18L373.97 29.18Q373.97 30.60 375.34 30.60L375.34 30.60L381.67 30.60L381.67 30.60Q382.73 30.60 383.15 30.10L383.15 30.10L383.15 30.10Q383.74 29.43 383.91 26.24L383.91 26.24L385.34 26.71L385.34 26.71Q385.08 30.46 384.24 31.36L384.24 31.36L384.24 31.36Q383.49 32.06 381.95 32.06L381.95 32.06ZM403.84 22.71L396.68 22.71L396.68 25.73L403.84 25.73L403.84 22.71ZM396.68 21.36L403.84 21.36L403.84 18.31L396.68 18.31L396.68 21.36ZM403.84 27.05L396.68 27.05L396.68 32.45L395.19 32.45L395.19 16.97L405.33 16.97L405.33 30.16L405.33 30.16Q405.33 32.26 403.20 32.26L403.20 32.26L400.82 32.26L400.46 30.83L402.72 30.91L402.72 30.91Q403.84 30.91 403.84 29.85L403.84 29.85L403.84 27.05ZM415.21 18.84L410.56 18.84L410.56 18.84Q408.21 18.84 408.21 16.38L408.21 16.38L408.21 6.83L409.70 6.83L409.70 10.84L409.70 10.84Q414.57 10.08 417.59 9.24L417.59 9.24L418.10 10.61L418.10 10.61Q414.62 11.51 409.70 12.24L409.70 12.24L409.70 16.07L409.70 16.07Q409.70 17.44 411.01 17.44L411.01 17.44L414.93 17.44L414.93 17.44Q415.83 17.44 416.25 17.02L416.25 17.02L416.25 17.02Q416.72 16.46 416.89 13.69L416.89 13.69L418.32 14.17L418.32 14.17Q418.07 17.42 417.31 18.23L417.31 18.23L417.31 18.23Q416.61 18.84 415.21 18.84L415.21 18.84ZM409.78 25.20L409.78 29.40L409.78 29.40Q409.78 30.63 410.98 30.63L410.98 30.63L414.85 30.63L414.85 30.63Q415.80 30.63 416.19 30.18L416.19 30.18L416.19 30.18Q416.70 29.60 416.86 26.77L416.86 26.77L418.26 27.22L418.26 27.22Q418.01 30.55 417.26 31.36L417.26 31.36L417.26 31.36Q416.56 31.98 415.16 31.98L415.16 31.98L410.54 31.98L410.54 31.98Q408.30 31.98 408.30 29.74L408.30 29.74L408.30 20.13L409.78 20.13L409.78 23.83L409.78 23.83Q414.20 23.35 417.59 22.32L417.59 22.32L418.10 23.72L418.10 23.72Q414.12 24.84 409.78 25.20L409.78 25.20ZM401.97 9.60L403.14 8.85L403.14 8.85Q405.80 12.35 407.15 14.90L407.15 14.90L405.92 15.76L405.92 15.76Q405.10 14.25 404.85 13.86L404.85 13.86L404.85 13.86Q400.23 14.59 393.96 14.92L393.96 14.92L393.54 13.61L393.54 13.61Q393.90 13.50 394.24 13.22L394.24 13.22L394.24 13.22Q396.84 10.67 398.80 6.92L398.80 6.92L400.26 7.34L400.26 7.34Q398.16 11.34 395.70 13.52L395.70 13.52L395.70 13.52Q399.39 13.36 404.15 12.74L404.15 12.74L404.15 12.74Q402.95 10.92 401.97 9.60L401.97 9.60ZM423.47 13.52L423.47 12.18L432.43 12.18L432.43 12.18Q432.99 10.95 433.47 9.69L433.47 9.69L433.47 9.69Q428.76 9.97 424.26 9.97L424.26 9.97L423.84 8.68L423.84 8.68Q435.74 8.65 443.44 7.03L443.44 7.03L444.16 8.29L444.16 8.29Q440.27 9.16 434.90 9.58L434.90 9.58L434.90 9.58Q434.50 10.81 433.92 12.18L433.92 12.18L444.64 12.18L444.64 13.52L433.30 13.52L433.30 13.52Q432.82 14.45 432.01 15.79L432.01 15.79L446.24 15.79L446.24 17.16L431.09 17.16L431.09 17.16Q430.11 18.48 429.21 19.52L429.21 19.52L443.30 19.52L443.30 32.45L441.87 32.45L441.87 31.16L428.76 31.16L428.76 32.45L427.31 32.45L427.31 21.48L427.31 21.48Q424.87 23.74 422.07 25.65L422.07 25.65L421.26 24.33L421.26 24.33Q426.22 20.94 429.27 17.16L429.27 17.16L421.99 17.16L421.99 15.79L430.30 15.79L430.30 15.79Q431.06 14.64 431.73 13.52L431.73 13.52L423.47 13.52ZM441.87 24.25L428.76 24.25L428.76 26.38L441.87 26.38L441.87 24.25ZM428.76 23.04L441.87 23.04L441.87 20.80L428.76 20.80L428.76 23.04ZM441.87 27.58L428.76 27.58L428.76 29.88L441.87 29.88L441.87 27.58ZM457.83 13.19L457.83 11.84L464.86 11.84L464.86 9.52L464.86 9.52Q461.66 9.72 458.98 9.72L458.98 9.72L458.56 8.46L458.56 8.46Q466.48 8.46 471.66 7.14L471.66 7.14L472.33 8.34L472.33 8.34Q469.53 9.07 466.31 9.38L466.31 9.38L466.31 11.84L473.31 11.84L473.31 13.19L467.96 13.19L467.96 13.19Q470.29 15.57 474.60 17.33L474.60 17.33L473.96 18.59L473.96 18.59Q469.31 16.58 466.56 13.19L466.56 13.19L466.31 13.19L466.31 17.98L464.86 17.98L464.86 13.19L464.52 13.19L464.52 13.19Q462.25 16.60 457.07 18.79L457.07 18.79L456.32 17.53L456.32 17.53Q460.99 15.82 463.20 13.19L463.20 13.19L457.83 13.19ZM462.56 20.19L459.62 20.19L459.62 18.79L469.84 18.79L469.84 19.49L469.84 19.49Q469.48 20.89 469.14 21.87L469.14 21.87L472.95 21.87L472.95 22.65L472.95 22.65Q472.61 26.80 471.60 27.78L471.60 27.78L471.60 27.78Q470.82 28.53 469.03 28.62L469.03 28.62L466.09 28.64L465.64 27.22L465.64 27.22Q467.32 27.38 468.16 27.38L468.16 27.38L468.16 27.38Q469.78 27.30 470.43 26.82L470.43 26.82L470.43 26.82Q471.24 26.15 471.52 23.13L471.52 23.13L467.38 23.13L467.38 23.13Q467.91 21.67 468.27 20.19L468.27 20.19L463.96 20.19L463.96 20.19Q463.51 25.79 458.05 28.39L458.05 28.39L457.24 27.13L457.24 27.13Q462.14 24.92 462.56 20.19L462.56 20.19ZM450.27 8.43L451.30 7.45L451.30 7.45Q454.33 9.69 456.26 11.79L456.26 11.79L455.20 12.85L455.20 12.85Q453.49 10.86 450.27 8.43L450.27 8.43ZM474.32 31.89L467.80 31.89L467.80 31.89Q466.40 31.89 462.81 31.84L462.81 31.84L462.81 31.84Q460.04 31.75 458.44 31.30L458.44 31.30L458.44 31.30Q456.79 30.80 455.48 29.23L455.48 29.23L455.48 29.23Q454.92 28.50 454.41 28.50L454.41 28.50L454.41 28.50Q453.26 28.50 450.80 32.42L450.80 32.42L449.65 31.42L449.65 31.42Q452.00 27.72 453.71 27.13L453.71 27.13L453.71 18.17L449.57 18.17L449.57 16.72L455.14 16.72L455.14 27.19L455.14 27.19Q455.62 27.47 456.04 27.97L456.04 27.97L456.04 27.97Q457.10 29.23 458.30 29.82L458.30 29.82L458.30 29.82Q459.70 30.32 462.17 30.41L462.17 30.41L462.17 30.41Q464.97 30.46 467.57 30.46L467.57 30.46L471.58 30.46L474.68 30.35L474.32 31.89ZM501.62 10.84L483.20 10.84L483.20 10.84Q481.12 14.20 478.55 16.58L478.55 16.58L477.54 15.40L477.54 15.40Q481.38 11.96 483.59 6.72L483.59 6.72L485.10 7.06L485.10 7.06Q484.54 8.37 484.01 9.35L484.01 9.35L501.62 9.35L501.62 10.84ZM486.98 23.44L487.68 22.40L487.68 22.40Q490.76 23.52 493.28 25.20L493.28 25.20L492.55 26.32L492.55 26.32Q489.86 24.50 486.98 23.44L486.98 23.44ZM497.31 28.31L480.87 28.31L480.87 28.31Q481.52 24.98 481.88 21.50L481.88 21.50L477.20 21.50L477.20 20.05L482.02 20.05L482.02 20.05Q482.33 16.63 482.41 13.55L482.41 13.55L499.44 13.55L499.24 20.05L502.85 20.05L502.85 21.50L499.18 21.50L498.90 26.88L502.12 26.88L502.12 28.31L498.79 28.31L498.79 28.31Q498.68 29.46 498.57 29.88L498.57 29.88L498.57 29.88Q498.20 31.16 497.14 31.84L497.14 31.84L497.14 31.84Q496.08 32.40 494.06 32.40L494.06 32.40L490.92 32.40L490.48 31.00L490.48 31.00Q492.94 31.05 493.86 31.05L493.86 31.05L493.86 31.05Q494.90 31.05 495.80 30.83L495.80 30.83L495.80 30.83Q496.69 30.55 497.11 29.46L497.11 29.46L497.11 29.46Q497.25 29.06 497.31 28.31L497.31 28.31ZM482.64 26.88L497.42 26.88L497.70 21.50L483.39 21.50L483.39 21.50Q483.06 24.44 482.64 26.88L482.64 26.88ZM483.53 20.05L497.76 20.05L497.92 14.98L483.84 14.98L483.84 14.98Q483.76 17.02 483.53 20.05L483.53 20.05ZM487.23 16.86L487.93 15.82L487.93 15.82Q490.92 16.94 493.44 18.62L493.44 18.62L492.72 19.71L492.72 19.71Q490 17.89 487.23 16.86L487.23 16.86ZM517.24 32.40L517.24 15.09L518.76 15.09L518.76 32.40L517.24 32.40ZM517.30 6.89L518.70 6.89L518.70 6.89Q522.23 12.80 530.91 17.30L530.91 17.30L530.01 18.65L530.01 18.65Q521.95 14.50 518 8.34L518 8.34L518 8.34Q513.24 15.09 505.99 18.82L505.99 18.82L505.09 17.44L505.09 17.44Q513.02 13.38 517.30 6.89L517.30 6.89ZM545.24 6.92L546.78 6.92L546.78 6.92Q546.78 10.05 546.59 13.05L546.59 13.05L546.59 13.05Q548.94 24.70 558.88 30.86L558.88 30.86L557.87 32.14L557.87 32.14Q548.83 26.29 546.06 16.38L546.06 16.38L546.06 16.38Q543.73 25.93 534.02 32.17L534.02 32.17L533.09 30.83L533.09 30.83Q544.80 23.52 545.22 11.45L545.22 11.45L545.24 6.92ZM577.53 31.50L571.23 31.50L571.23 31.50Q568.57 31.50 568.57 28.98L568.57 28.98L568.57 12.74L570.11 12.74L570.11 28.64L570.11 28.64Q570.11 29.99 571.68 29.99L571.68 29.99L577.22 29.99L577.22 29.99Q578.37 29.99 578.84 29.18L578.84 29.18L578.84 29.18Q579.46 28.08 579.66 23.02L579.66 23.02L581.08 23.49L581.08 23.49Q580.83 29.06 579.94 30.44L579.94 30.44L579.94 30.44Q579.18 31.50 577.53 31.50L577.53 31.50ZM564.51 15.85L565.99 16.16L565.99 16.16Q564.79 23.13 562.55 28.25L562.55 28.25L561.23 27.41L561.23 27.41Q563.44 22.29 564.51 15.85L564.51 15.85ZM580.47 15.40L581.95 14.90L581.95 14.90Q584.86 20.36 586.94 26.29L586.94 26.29L585.54 26.91L585.54 26.91Q583.32 20.52 580.47 15.40L580.47 15.40ZM570.50 7.87L571.76 7.08L571.76 7.08Q575.74 11.03 577.92 14.06L577.92 14.06L576.63 14.92L576.63 14.92Q574.42 11.73 570.50 7.87L570.50 7.87Z"></path></svg>