<svg xmlns="http://www.w3.org/2000/svg" xmlns:xlink="http://www.w3.org/1999/xlink" width="56" height="39.2" style="background: rgb(64, 16, 81);"><path fill="#c463ff" d="M13.83 17.78L13.83 17.78Q12.12 22.88 7 26.15L7 26.15L5.99 24.95L5.99 24.95Q10.84 21.81 12.43 17.02L12.43 17.02L12.43 17.02Q12.99 15.20 13.27 13.08L13.27 13.08L4.65 13.08L4.65 32.40L3.14 32.40L3.14 11.59L13.44 11.59L13.44 11.59Q13.66 9.18 13.66 6.80L13.66 6.80L15.20 6.80L15.20 6.80Q15.20 9.04 15.01 11.59L15.01 11.59L24.89 11.59L24.89 29.54L24.89 29.54Q24.89 32.14 22.34 32.14L22.34 32.14L17.98 32.14L17.56 30.63L21.84 30.69L21.84 30.69Q23.38 30.69 23.38 29.23L23.38 29.23L23.38 13.08L14.84 13.08L14.84 13.08Q14.59 14.78 14.25 16.24L14.25 16.24L14.25 16.24Q18.79 20.52 21.81 24.67L21.81 24.67L20.66 25.82L20.66 25.82Q18.00 21.90 13.83 17.78L13.83 17.78ZM37.02 26.38L37.02 16.94L47.07 16.94L47.07 26.38L37.02 26.38ZM38.50 24.95L45.58 24.95L45.58 18.37L38.50 18.37L38.50 24.95ZM40.46 6.72L42.03 6.94L42.03 6.94Q41.50 9.16 40.43 11.12L40.43 11.12L53.06 11.12L53.06 29.85L53.06 29.85Q53.06 32.26 50.74 32.26L50.74 32.26L46.45 32.26L46.03 30.72L50.23 30.77L50.23 30.77Q51.52 30.77 51.52 29.51L51.52 29.51L51.52 12.60L32.70 12.60L32.70 32.37L31.16 32.37L31.16 11.12L38.84 11.12L38.84 11.12Q39.96 8.93 40.46 6.72L40.46 6.72Z"></path></svg>