<svg xmlns="http://www.w3.org/2000/svg" xmlns:xlink="http://www.w3.org/1999/xlink" width="224" height="39.2" style="background: rgb(64, 16, 81);"><path fill="#bfcbff" d="M18.42 26.91L18.42 9.63L19.91 9.63L19.91 26.91L18.42 26.91ZM23.27 32.14L19.77 32.14L19.46 30.72L19.46 30.72Q21.70 30.83 22.74 30.83L22.74 30.83L22.74 30.83Q24.00 30.83 24.00 29.29L24.00 29.29L24.00 6.97L25.51 6.97L25.51 29.65L25.51 29.65Q25.51 32.14 23.27 32.14L23.27 32.14ZM1.65 9.44L1.65 8.06L16.32 8.06L16.32 9.44L1.65 9.44ZM3.50 17.67L3.50 11.70L14.78 11.70L14.78 17.67L3.50 17.67ZM4.93 16.41L13.33 16.41L13.33 12.96L4.93 12.96L4.93 16.41ZM2.32 19.96L15.82 19.96L15.82 32.42L14.36 32.42L14.36 31.00L3.75 31.00L3.75 32.42L2.32 32.42L2.32 19.96ZM3.75 26.12L3.75 29.65L8.37 29.65L8.37 26.12L3.75 26.12ZM9.77 26.12L9.77 29.65L14.36 29.65L14.36 26.12L9.77 26.12ZM3.75 21.31L3.75 24.78L8.37 24.78L8.37 21.31L3.75 21.31ZM14.36 21.31L9.77 21.31L9.77 24.78L14.36 24.78L14.36 21.31ZM44.77 19.60L40.26 19.60L40.26 30.13L40.26 30.13Q43.26 29.34 46.28 27.97L46.28 27.97L46.62 29.37L46.62 29.37Q43.29 30.80 38.44 32.03L38.44 32.03L38.14 30.80L38.14 30.80Q38.81 30.55 38.81 30.10L38.81 30.10L38.81 8.12L51.97 8.12L51.97 19.60L46.17 19.60L46.17 19.60Q46.76 22.54 48.33 24.95L48.33 24.95L48.33 24.95Q50.82 23.74 53.14 21.17L53.14 21.17L54.12 22.15L54.12 22.15Q51.97 24.67 49.11 26.04L49.11 26.04L49.11 26.04Q51.27 28.87 54.85 30.88L54.85 30.88L54.04 32.17L54.04 32.17Q46.40 27.64 44.77 19.60L44.77 19.60ZM50.48 14.56L40.26 14.56L40.26 18.20L50.48 18.20L50.48 14.56ZM40.26 13.16L50.48 13.16L50.48 9.52L40.26 9.52L40.26 13.16ZM35.14 6.86L36.46 7.48L36.46 7.48Q34.27 12.04 29.60 15.46L29.60 15.46L29.15 14L29.15 14Q33.29 10.84 35.14 6.86L35.14 6.86ZM35.95 13.97L37.27 14.59L37.27 14.59Q36.12 16.86 34.69 18.62L34.69 18.62L34.69 32.40L33.21 32.40L33.21 20.27L33.21 20.27Q31.67 21.78 29.76 23.16L29.76 23.16L29.32 21.73L29.32 21.73Q33.88 18.31 35.95 13.97L35.95 13.97ZM57.74 31.42L57.74 29.99L69.50 29.99L69.50 25.65L60.17 25.65L60.17 24.22L69.50 24.22L69.50 21.50L71.01 21.50L71.01 24.22L80.33 24.22L80.33 25.65L71.01 25.65L71.01 29.99L82.10 29.99L82.10 31.42L57.74 31.42ZM64.09 21.42L64.09 7.08L65.58 7.08L65.58 21.42L64.09 21.42ZM59.05 19.94L59.05 9.18L60.51 9.18L60.51 19.94L59.05 19.94ZM68.15 10.02L68.15 8.57L79.86 8.57L79.86 9.94L79.86 9.94Q78.48 13.83 75.60 16.46L75.60 16.46L75.60 16.46Q78.29 18.56 82.26 19.71L82.26 19.71L81.54 21.03L81.54 21.03Q77.28 19.74 74.51 17.39L74.51 17.39L74.51 17.39Q71.74 19.49 67.82 20.83L67.82 20.83L67.09 19.54L67.09 19.54Q70.84 18.37 73.44 16.44L73.44 16.44L73.44 16.44Q70.70 13.69 69.55 10.02L69.55 10.02L68.15 10.02ZM78.37 10.02L70.90 10.02L70.90 10.02Q72.13 13.30 74.54 15.54L74.54 15.54L74.54 15.54Q77.08 13.24 78.37 10.02L78.37 10.02ZM95.87 24.72L95.87 17.47L101.92 17.47L101.92 14.78L96.91 14.78L96.91 8.12L108.47 8.12L108.47 14.78L103.43 14.78L103.43 17.47L109.42 17.47L109.42 24.72L103.43 24.72L103.43 29.51L103.43 29.51Q105.42 29.26 107.74 28.92L107.74 28.92L107.74 28.92Q107.18 27.50 106.48 26.04L106.48 26.04L107.88 25.65L107.88 25.65Q109.51 29.18 110.38 31.95L110.38 31.95L109.00 32.45L109.00 32.45Q108.67 31.42 108.25 30.24L108.25 30.24L108.25 30.24Q102.26 31.16 95.45 31.84L95.45 31.84L95.09 30.38L95.09 30.38Q98.53 30.10 101.92 29.71L101.92 29.71L101.92 24.72L95.87 24.72ZM103.43 23.38L108.05 23.38L108.05 18.79L103.43 18.79L103.43 23.38ZM97.27 23.38L101.92 23.38L101.92 18.79L97.27 18.79L97.27 23.38ZM93.35 15.79L88.20 15.79L87.58 20.78L93.66 20.78L93.66 20.78Q93.66 27.64 93.24 29.74L93.24 29.74L93.24 29.74Q92.68 32.12 89.15 32.20L89.15 32.20L89.15 32.20Q88.54 32.20 87.08 32.09L87.08 32.09L86.72 30.69L86.72 30.69Q88.17 30.80 88.87 30.80L88.87 30.80L88.87 30.80Q91.36 30.80 91.78 29.18L91.78 29.18L91.78 29.18Q92.20 27.44 92.20 22.12L92.20 22.12L86.04 22.12L86.86 14.39L91.92 14.39L91.92 9.58L86.27 9.58L86.27 8.15L93.35 8.15L93.35 15.79ZM98.31 13.50L107.04 13.50L107.04 9.44L98.31 9.44L98.31 13.50ZM118.50 11.87L123.09 11.87L123.09 30.69L121.63 30.69L121.63 28.98L115.98 28.98L115.98 31.47L114.52 31.47L114.52 11.87L117.04 11.87L117.04 11.87Q117.91 9.49 118.30 6.86L118.30 6.86L119.84 7.06L119.84 7.06Q119.39 9.63 118.50 11.87L118.50 11.87ZM115.98 20.94L115.98 27.58L121.63 27.58L121.63 20.94L115.98 20.94ZM115.98 13.33L115.98 19.57L121.63 19.57L121.63 13.33L115.98 13.33ZM126.62 18.98L127.85 18.20L127.85 18.20Q131.07 21.76 132.72 24.36L132.72 24.36L131.52 25.23L131.52 25.23Q129.84 22.51 126.62 18.98L126.62 18.98ZM128.46 11.90L137.59 11.90L137.59 11.90Q137.59 25.37 137.20 28.67L137.20 28.67L137.20 28.67Q136.78 32.03 133.31 32.03L133.31 32.03L130.56 31.98L130.20 30.58L130.20 30.58Q131.88 30.66 133.14 30.66L133.14 30.66L133.14 30.66Q135.41 30.66 135.74 28.17L135.74 28.17L135.74 28.17Q136.05 25.87 136.14 13.41L136.14 13.41L127.88 13.41L127.88 13.41Q126.67 16.18 125.05 18.31L125.05 18.31L124.15 17.14L124.15 17.14Q127.18 12.94 128.27 6.83L128.27 6.83L129.75 7L129.75 7Q129.22 9.74 128.46 11.90L128.46 11.90ZM157.81 18.17L157.81 13.58L151.34 13.58L151.34 12.15L159.88 12.15L159.88 12.15Q161.39 9.60 162.37 6.83L162.37 6.83L163.83 7.34L163.83 7.34Q162.76 9.97 161.34 12.15L161.34 12.15L165.90 12.15L165.90 13.58L159.32 13.58L159.32 18.17L165.09 18.17L165.09 19.60L159.32 19.60L159.32 24.30L166.66 24.30L166.66 25.76L159.32 25.76L159.32 32.68L157.81 32.68L157.81 25.76L150.67 25.76L150.67 24.30L157.81 24.30L157.81 19.60L152.21 19.60L152.21 18.17L157.81 18.17ZM147.11 17.67L147.11 32.42L145.63 32.42L145.63 17.00L145.63 17.00Q144.28 21.48 141.90 25.06L141.90 25.06L141.12 23.74L141.12 23.74Q144.17 19.46 145.46 14L145.46 14L141.96 14L141.96 12.52L145.63 12.52L145.63 6.92L147.11 6.92L147.11 12.52L150.08 12.52L150.08 14L147.11 14L147.11 16.02L147.11 16.02Q148.93 18.00 150.78 20.52L150.78 20.52L149.97 21.73L149.97 21.73Q148.23 19.07 147.11 17.67L147.11 17.67ZM153.13 7.62L154.42 7L154.42 7Q155.71 8.93 156.91 11.34L156.91 11.34L155.65 11.96L155.65 11.96Q154.53 9.60 153.13 7.62L153.13 7.62ZM169.85 20.61L169.85 19.12L181.83 19.12L181.83 14.87L181.83 14.87Q185.58 12.80 189.06 9.69L189.06 9.69L172.76 9.69L172.76 8.23L191.16 8.23L191.16 9.69L191.16 9.69Q187.82 12.82 183.32 15.71L183.32 15.71L183.32 19.12L194.15 19.12L194.15 20.61L183.32 20.61L183.32 29.74L183.32 29.74Q183.32 32.23 180.94 32.23L180.94 32.23L176.23 32.23L175.81 30.77L180.32 30.80L180.32 30.80Q181.83 30.80 181.83 29.23L181.83 29.23L181.83 20.61L169.85 20.61ZM203 25.87L203 25.87Q204.43 25.87 205.46 26.82L205.46 26.82L205.46 26.82Q206.47 27.78 206.47 29.23L206.47 29.23L206.47 29.23Q206.47 30.63 205.46 31.64L205.46 31.64L205.46 31.64Q204.37 32.59 203 32.59L203 32.59L203 32.59Q201.57 32.59 200.54 31.64L200.54 31.64L200.54 31.64Q199.53 30.66 199.53 29.23L199.53 29.23L199.53 29.23Q199.53 27.75 200.54 26.82L200.54 26.82L200.54 26.82Q201.52 25.87 203 25.87L203 25.87ZM203 27.05L203 27.05Q202.02 27.05 201.40 27.69L201.40 27.69L201.40 27.69Q200.73 28.28 200.73 29.23L200.73 29.23L200.73 29.23Q200.73 30.13 201.40 30.77L201.40 30.77L201.40 30.77Q202.05 31.42 203 31.42L203 31.42L203 31.42Q203.90 31.42 204.60 30.77L204.60 30.77L204.60 30.77Q205.27 30.13 205.27 29.23L205.27 29.23L205.27 29.23Q205.27 28.31 204.60 27.69L204.60 27.69L204.60 27.69Q203.95 27.05 203 27.05L203 27.05Z"></path></svg>