<svg xmlns="http://www.w3.org/2000/svg" xmlns:xlink="http://www.w3.org/1999/xlink" width="56" height="39.2" style="background: rgb(64, 16, 81);"><path fill="#ffabab" d="M18.09 32.40L18.09 6.92L19.60 6.92L19.60 15.48L19.60 15.48Q23.18 18.14 26.85 21.50L26.85 21.50L25.90 22.88L25.90 22.88Q22.20 19.18 19.60 17.16L19.60 17.16L19.60 32.40L18.09 32.40ZM5.49 19.32L6.30 18.12L6.30 18.12Q8.76 19.49 10.81 21.31L10.81 21.31L10.81 21.31Q12.96 17.42 13.64 12.49L13.64 12.49L7.64 12.49L7.64 12.49Q5.57 17.33 2.21 20.44L2.21 20.44L1.18 19.15L1.18 19.15Q6.08 14.59 7.78 6.89L7.78 6.89L9.30 7.17L9.30 7.17Q8.82 9.21 8.20 11.00L8.20 11.00L15.09 11.00L15.09 12.35L15.09 12.35Q13.66 25.06 2.74 31.61L2.74 31.61L1.74 30.32L1.74 30.32Q7.08 27.19 10.08 22.54L10.08 22.54L10.08 22.54Q7.76 20.47 5.49 19.32L5.49 19.32ZM37.02 26.38L37.02 16.94L47.07 16.94L47.07 26.38L37.02 26.38ZM38.50 24.95L45.58 24.95L45.58 18.37L38.50 18.37L38.50 24.95ZM40.46 6.72L42.03 6.94L42.03 6.94Q41.50 9.16 40.43 11.12L40.43 11.12L53.06 11.12L53.06 29.85L53.06 29.85Q53.06 32.26 50.74 32.26L50.74 32.26L46.45 32.26L46.03 30.72L50.23 30.77L50.23 30.77Q51.52 30.77 51.52 29.51L51.52 29.51L51.52 12.60L32.70 12.60L32.70 32.37L31.16 32.37L31.16 11.12L38.84 11.12L38.84 11.12Q39.96 8.93 40.46 6.72L40.46 6.72Z"></path></svg>