<svg xmlns="http://www.w3.org/2000/svg" xmlns:xlink="http://www.w3.org/1999/xlink" width="56" height="39.2" style="background: rgb(64, 16, 81);"><path fill="#ff54d4" d="M1.79 15.90L1.79 14.39L12.82 14.39L12.82 14.39Q13.19 11.84 13.24 9.04L13.24 9.04L13.24 6.92L14.76 6.92L14.76 8.71L14.76 8.71Q14.76 11.73 14.34 14.39L14.34 14.39L26.21 14.39L26.21 15.90L14.98 15.90L14.98 15.90Q17.92 25.79 26.71 31.05L26.71 31.05L25.79 32.28L25.79 32.28Q16.97 26.91 13.89 16.80L13.89 16.80L13.89 16.80Q11.51 27.64 2.18 32.45L2.18 32.45L1.23 31.19L1.23 31.19Q10.44 26.66 12.57 15.90L12.57 15.90L1.79 15.90ZM52.50 11.09L35.06 11.09L35.06 11.09Q33.15 14.50 30.49 17.11L30.49 17.11L29.48 15.96L29.48 15.96Q33.24 12.29 35.42 6.72L35.42 6.72L36.93 7.08L36.93 7.08Q36.26 8.74 35.81 9.63L35.81 9.63L52.50 9.63L52.50 11.09ZM51.83 32.34L51.83 32.34Q49.73 32.28 48.80 30.21L48.80 30.21L48.80 30.21Q47.80 28.11 47.80 21.62L47.80 21.62L47.80 19.77L31.81 19.77L31.81 18.34L49.22 18.34L49.22 21.62L49.22 21.62Q49.22 27.50 49.87 29.06L49.87 29.06L49.87 29.06Q50.46 30.69 51.66 30.69L51.66 30.69L51.66 30.69Q52.30 30.69 52.81 29.18L52.81 29.18L52.81 29.18Q53.12 27.89 53.56 25.76L53.56 25.76L54.82 26.38L54.82 26.38Q54.24 29.90 53.42 31.19L53.42 31.19L53.42 31.19Q52.70 32.34 51.83 32.34L51.83 32.34ZM34.92 15.40L34.92 13.97L51.04 13.97L51.04 15.40L34.92 15.40Z"></path></svg>