<svg xmlns="http://www.w3.org/2000/svg" xmlns:xlink="http://www.w3.org/1999/xlink" width="588" height="39.2" style="background: rgb(64, 16, 81);"><path fill="#bfcbff" d="M1.54 24.05L1.54 22.54L18.73 22.54L18.73 20.55L20.24 20.55L20.24 22.54L26.43 22.54L26.43 24.05L20.24 24.05L20.24 30.35L20.24 30.35Q20.24 32.48 17.95 32.48L17.95 32.48L14.31 32.48L13.97 31.02L13.97 31.02Q15.74 31.11 17.42 31.11L17.42 31.11L17.42 31.11Q18.73 31.11 18.73 30.02L18.73 30.02L18.73 24.05L1.54 24.05ZM4.56 8.06L22.15 8.06L22.15 14.39L6.08 14.39L6.08 16.83L6.08 16.83Q6.08 17.98 7.25 18.03L7.25 18.03L22.48 18.03L22.48 18.03Q23.44 18.03 23.83 17.39L23.83 17.39L23.83 17.39Q24.14 16.94 24.30 15.04L24.30 15.04L25.73 15.51L25.73 15.51Q25.54 17.33 25.17 18.23L25.17 18.23L25.17 18.23Q24.53 19.43 22.88 19.43L22.88 19.43L6.78 19.43L6.78 19.43Q4.56 19.43 4.56 17.30L4.56 17.30L4.56 8.06ZM6.08 9.46L6.08 12.99L20.64 12.99L20.64 9.46L6.08 9.46ZM6.44 26.29L7.53 25.23L7.53 25.23Q10.47 27.55 12.35 29.76L12.35 29.76L11.23 30.88L11.23 30.88Q9.44 28.67 6.44 26.29L6.44 26.29ZM32.28 11.37L32.28 9.94L40.04 9.94L40.04 6.80L41.55 6.80L41.55 9.94L48.52 9.94L48.52 11.37L41.55 11.37L41.55 15.15L45.30 15.15L45.30 15.15Q49.36 12.29 52.42 8.65L52.42 8.65L53.56 9.52L53.56 9.52Q50.88 12.71 47.77 15.15L47.77 15.15L54.46 15.15L54.46 16.60L45.75 16.60L44.35 17.50L44.35 17.50Q42 18.87 39.28 20.10L39.28 20.10L50.76 20.10L50.76 32.45L49.22 32.45L49.22 31.08L36.43 31.08L36.43 32.45L34.92 32.45L34.92 21.87L34.92 21.87Q32.00 22.90 29.93 23.49L29.93 23.49L29.32 22.09L29.32 22.09Q36.68 20.36 42.62 16.88L42.62 16.88L43.06 16.60L29.65 16.60L29.65 15.15L40.04 15.15L40.04 11.37L32.28 11.37ZM49.22 26.21L36.43 26.21L36.43 29.68L49.22 29.68L49.22 26.21ZM36.43 24.86L49.22 24.86L49.22 21.48L36.43 21.48L36.43 24.86ZM61.01 26.88L61.01 26.88Q62.69 26.88 62.69 29.20L62.69 29.20L62.69 29.20Q62.69 32.51 59.89 34.05L59.89 34.05L59.30 33.07L59.30 33.07Q61.32 31.72 61.43 29.65L61.43 29.65L61.01 29.68L61.01 29.68Q60.40 29.68 59.98 29.32L59.98 29.32L59.98 29.32Q59.58 28.95 59.58 28.31L59.58 28.31L59.58 28.31Q59.58 27.58 59.98 27.27L59.98 27.27L59.98 27.27Q60.34 26.88 61.01 26.88L61.01 26.88ZM100.88 29.96L100.88 6.83L102.45 6.83L102.45 16.18L109.93 16.18L109.93 17.67L102.45 17.67L102.45 29.96L110.99 29.96L110.99 31.44L94.61 31.44L94.61 29.96L100.88 29.96ZM87.22 8.12L88.31 7.11L88.31 7.11Q91.25 9.41 93.21 11.62L93.21 11.62L92.18 12.68L92.18 12.68Q90.36 10.53 87.22 8.12L87.22 8.12ZM85.32 17.08L85.32 15.60L91.08 15.60L91.08 28.53L91.08 28.53Q92.60 27.36 94.61 25.45L94.61 25.45L95.00 27.08L95.00 27.08Q92.43 29.48 89.63 31.33L89.63 31.33L89.01 29.96L89.01 29.96Q89.60 29.48 89.60 28.98L89.60 28.98L89.60 17.08L85.32 17.08ZM125.41 13.92L125.41 12.43L133.67 12.43L133.67 6.83L135.21 6.83L135.21 12.43L138.52 12.43L138.52 13.92L135.21 13.92L135.21 29.82L135.21 29.82Q135.21 32.31 132.69 32.31L132.69 32.31L128.18 32.31L127.85 30.86L127.85 30.86Q130.87 30.97 132.16 30.97L132.16 30.97L132.16 30.97Q133.67 30.97 133.67 29.43L133.67 29.43L133.67 13.92L125.41 13.92ZM114.07 15.09L115.14 14.11L115.14 14.11Q117.91 17.14 120.26 20.16L120.26 20.16L120.26 20.16Q121.97 16.07 122.33 11.31L122.33 11.31L114.49 11.31L114.49 9.83L123.73 9.83L123.73 10.95L123.73 10.95Q123.40 16.80 121.27 21.48L121.27 21.48L121.27 21.48Q123.28 24.22 124.68 26.46L124.68 26.46L123.56 27.58L123.56 27.58Q122.36 25.54 120.51 22.96L120.51 22.96L120.51 22.96Q118.16 27.24 114.13 30.52L114.13 30.52L113.26 29.20L113.26 29.20Q117.29 26.01 119.56 21.67L119.56 21.67L119.56 21.67Q117.32 18.70 114.07 15.09L114.07 15.09ZM125.44 18.40L126.62 17.58L126.62 17.58Q129.53 21.11 131.07 23.80L131.07 23.80L129.86 24.64L129.86 24.64Q128.07 21.56 125.44 18.40L125.44 18.40ZM141.99 12.63L141.99 11.14L154.20 11.14L154.20 11.14Q153.41 9.21 152.07 7.34L152.07 7.34L153.52 6.80L153.52 6.80Q154.76 8.65 155.74 11.14L155.74 11.14L166.29 11.14L166.29 12.63L151.42 12.63L151.12 18.12L162.79 18.12L162.79 18.12Q162.71 25.96 162.26 28.31L162.26 28.31L162.26 28.31Q161.56 32.06 158.23 32.20L158.23 32.20L158.23 32.20Q156.88 32.20 154.98 32.12L154.98 32.12L154.53 30.72L154.53 30.72Q157.33 30.83 158.06 30.83L158.06 30.83L158.06 30.83Q160.50 30.72 161 27.41L161 27.41L161 27.41Q161.25 25.40 161.25 19.57L161.25 19.57L150.95 19.57L150.95 19.57Q150.44 23.04 148.93 25.96L148.93 25.96L148.93 25.96Q146.89 29.40 143.19 32.45L143.19 32.45L142.07 31.39L142.07 31.39Q146.55 27.58 148.09 24.33L148.09 24.33L148.09 24.33Q149.49 21.14 149.74 17.02L149.74 17.02L149.74 17.02Q149.88 14 149.91 12.63L149.91 12.63L141.99 12.63ZM181.41 13.92L181.41 12.43L189.67 12.43L189.67 6.83L191.21 6.83L191.21 12.43L194.52 12.43L194.52 13.92L191.21 13.92L191.21 29.82L191.21 29.82Q191.21 32.31 188.69 32.31L188.69 32.31L184.18 32.31L183.85 30.86L183.85 30.86Q186.87 30.97 188.16 30.97L188.16 30.97L188.16 30.97Q189.67 30.97 189.67 29.43L189.67 29.43L189.67 13.92L181.41 13.92ZM170.07 15.09L171.14 14.11L171.14 14.11Q173.91 17.14 176.26 20.16L176.26 20.16L176.26 20.16Q177.97 16.07 178.33 11.31L178.33 11.31L170.49 11.31L170.49 9.83L179.73 9.83L179.73 10.95L179.73 10.95Q179.40 16.80 177.27 21.48L177.27 21.48L177.27 21.48Q179.28 24.22 180.68 26.46L180.68 26.46L179.56 27.58L179.56 27.58Q178.36 25.54 176.51 22.96L176.51 22.96L176.51 22.96Q174.16 27.24 170.13 30.52L170.13 30.52L169.26 29.20L169.26 29.20Q173.29 26.01 175.56 21.67L175.56 21.67L175.56 21.67Q173.32 18.70 170.07 15.09L170.07 15.09ZM181.44 18.40L182.62 17.58L182.62 17.58Q185.53 21.11 187.07 23.80L187.07 23.80L185.86 24.64L185.86 24.64Q184.07 21.56 181.44 18.40L181.44 18.40ZM200.90 32.42L200.90 16.21L200.90 16.21Q199.53 18.26 197.51 20.47L197.51 20.47L197.01 18.87L197.01 18.87Q201.68 13.50 203.73 6.78L203.73 6.78L205.13 7.42L205.13 7.42Q204.06 10.72 202.41 13.75L202.41 13.75L202.41 32.42L200.90 32.42ZM216.92 18.45L218.29 18.00L218.29 18.00Q220.53 22.99 222.24 28.78L222.24 28.78L220.86 29.40L220.86 29.40Q219.10 23.21 216.92 18.45L216.92 18.45ZM220.00 11.93L208.88 11.93L208.88 11.93Q207.51 15.23 205.63 18.06L205.63 18.06L204.34 17.25L204.34 17.25Q207.56 12.60 209.08 6.72L209.08 6.72L210.53 7.03L210.53 7.03Q210.03 8.82 209.44 10.47L209.44 10.47L221.54 10.47L221.54 11.48L221.54 11.48Q220.86 14.08 219.72 16.63L219.72 16.63L218.26 16.21L218.26 16.21Q219.30 14.39 220.00 11.93L220.00 11.93ZM212.58 32.20L208.88 32.20L208.54 30.77L208.54 30.77Q211.01 30.88 212.07 30.88L212.07 30.88L212.07 30.88Q213.16 30.88 213.16 29.79L213.16 29.79L213.16 14.56L214.62 14.56L214.62 30.16L214.62 30.16Q214.62 32.20 212.58 32.20L212.58 32.20ZM208.60 18.20L209.97 18.56L209.97 18.56Q208.38 24.47 205.94 28.92L205.94 28.92L204.48 28.39L204.48 28.39Q206.84 24.39 208.60 18.20L208.60 18.20ZM240.77 19.60L236.26 19.60L236.26 30.13L236.26 30.13Q239.26 29.34 242.28 27.97L242.28 27.97L242.62 29.37L242.62 29.37Q239.29 30.80 234.44 32.03L234.44 32.03L234.14 30.80L234.14 30.80Q234.81 30.55 234.81 30.10L234.81 30.10L234.81 8.12L247.97 8.12L247.97 19.60L242.17 19.60L242.17 19.60Q242.76 22.54 244.33 24.95L244.33 24.95L244.33 24.95Q246.82 23.74 249.14 21.17L249.14 21.17L250.12 22.15L250.12 22.15Q247.97 24.67 245.11 26.04L245.11 26.04L245.11 26.04Q247.27 28.87 250.85 30.88L250.85 30.88L250.04 32.17L250.04 32.17Q242.40 27.64 240.77 19.60L240.77 19.60ZM246.48 14.56L236.26 14.56L236.26 18.20L246.48 18.20L246.48 14.56ZM236.26 13.16L246.48 13.16L246.48 9.52L236.26 9.52L236.26 13.16ZM231.14 6.86L232.46 7.48L232.46 7.48Q230.27 12.04 225.60 15.46L225.60 15.46L225.15 14L225.15 14Q229.29 10.84 231.14 6.86L231.14 6.86ZM231.95 13.97L233.27 14.59L233.27 14.59Q232.12 16.86 230.69 18.62L230.69 18.62L230.69 32.40L229.21 32.40L229.21 20.27L229.21 20.27Q227.67 21.78 225.76 23.16L225.76 23.16L225.32 21.73L225.32 21.73Q229.88 18.31 231.95 13.97L231.95 13.97ZM257.74 17.36L257.74 7.92L274.54 7.92L274.54 17.36L257.74 17.36ZM259.25 16.02L273.03 16.02L273.03 13.30L259.25 13.30L259.25 16.02ZM259.25 9.24L259.25 12.04L273.03 12.04L273.03 9.24L259.25 9.24ZM265.58 30.18L265.58 21.11L253.71 21.11L253.71 19.74L278.38 19.74L278.38 21.11L267.06 21.11L267.06 24.75L275.35 24.75L275.35 26.15L267.06 26.15L267.06 30.41L267.06 30.41Q269.30 30.63 272.19 30.63L272.19 30.63L272.19 30.63Q274.93 30.63 278.18 30.52L278.18 30.52L277.76 32.00L272.30 31.98L272.30 31.98Q265.38 31.92 262.98 30.86L262.98 30.86L262.98 30.86Q260.74 29.85 258.97 26.85L258.97 26.85L258.97 26.85Q257.32 30.18 254.74 32.28L254.74 32.28L253.74 31.08L253.74 31.08Q257.66 27.83 259.06 22.34L259.06 22.34L260.51 22.60L260.51 22.60Q260.12 24.14 259.53 25.59L259.53 25.59L259.53 25.59Q261.35 28.78 263.68 29.71L263.68 29.71L263.68 29.71Q264.52 29.99 265.58 30.18L265.58 30.18ZM287.56 6.75L288.96 7.39L288.96 7.39Q287.95 10.50 286.50 13.24L286.50 13.24L286.50 32.42L284.98 32.42L284.98 15.79L284.98 15.79Q283.36 18.28 281.40 20.36L281.40 20.36L280.90 18.70L280.90 18.70Q285.54 13.38 287.56 6.75L287.56 6.75ZM295.46 7.17L297.05 6.89L297.05 6.89Q297.78 8.93 298.37 11.28L298.37 11.28L305.84 11.28L305.84 12.71L299.07 12.71L299.07 12.71Q299.57 17.05 300.78 20.52L300.78 20.52L300.78 20.52Q303.35 18.73 305.12 16.72L305.12 16.72L306.07 17.92L306.07 17.92Q304.19 19.96 301.25 21.87L301.25 21.87L301.25 21.87Q303.27 27.02 306.88 30.52L306.88 30.52L305.96 31.95L305.96 31.95Q299.04 25.06 297.64 12.71L297.64 12.71L297.16 12.71L297.16 12.71Q295.90 16.30 293.89 19.29L293.89 19.29L293.89 30.04L293.89 30.04Q296.88 29.12 299.63 27.80L299.63 27.80L299.88 29.26L299.88 29.26Q296.72 30.72 292.01 32.09L292.01 32.09L291.70 30.74L291.70 30.74Q292.38 30.49 292.38 29.88L292.38 29.88L292.38 21.25L292.38 21.25Q290.50 23.44 288.12 25.28L288.12 25.28L287.34 23.97L287.34 23.97Q293.13 19.63 295.65 12.71L295.65 12.71L288.93 12.71L288.93 11.28L296.86 11.28L296.86 11.28Q296.27 9.13 295.46 7.17L295.46 7.17ZM310.07 11.23L310.07 9.83L315.14 9.83L315.14 6.78L316.65 6.78L316.65 9.83L321.44 9.83L321.44 11.23L316.65 11.23L316.65 13.94L320.85 13.94L320.85 21.78L316.65 21.78L316.65 23.24L316.65 23.24Q319.06 24.89 321.86 27.30L321.86 27.30L321.02 28.53L321.02 28.53Q318.47 26.10 316.65 24.67L316.65 24.67L316.65 32.28L315.14 32.28L315.14 23.83L315.14 23.83Q313.04 27.97 309.93 30.52L309.93 30.52L309.12 29.18L309.12 29.18Q312.82 26.43 314.92 21.78L314.92 21.78L310.83 21.78L310.83 13.94L315.14 13.94L315.14 11.23L310.07 11.23ZM316.65 20.47L319.48 20.47L319.48 15.26L316.65 15.26L316.65 20.47ZM312.23 20.47L315.14 20.47L315.14 15.26L312.23 15.26L312.23 20.47ZM330.12 13.72L333.70 13.72L333.70 26.60L332.28 26.60L332.28 15.04L324.63 15.04L324.63 26.66L323.20 26.66L323.20 13.72L328.38 13.72L328.38 13.72Q329.76 12.24 330.96 10.39L330.96 10.39L326.09 10.39L326.09 10.39Q324.58 12.80 322.25 14.36L322.25 14.36L321.36 13.27L321.36 13.27Q325.02 10.78 326.28 6.64L326.28 6.64L327.68 6.86L327.68 6.86Q327.32 7.98 326.79 9.10L326.79 9.10L332.64 9.10L332.64 10.19L332.64 10.19Q331.38 12.29 330.12 13.72L330.12 13.72ZM329.31 27.89L330.43 27.16L330.43 27.16Q333.28 29.57 334.91 31.50L334.91 31.50L333.70 32.34L333.70 32.34Q332.16 30.41 329.31 27.89L329.31 27.89ZM327.85 22.37L327.85 17.33L329.22 17.33L329.22 22.37L329.22 22.37Q329.06 29.40 322.81 32.62L322.81 32.62L321.61 31.56L321.61 31.56Q327.77 28.70 327.85 22.37L327.85 22.37ZM343 12.96L343 12.96Q343.64 12.96 344.04 13.36L344.04 13.36L344.04 13.36Q344.43 13.75 344.43 14.36L344.43 14.36L344.43 14.36Q344.43 14.95 344.04 15.34L344.04 15.34L344.04 15.34Q343.62 15.76 343 15.76L343 15.76L343 15.76Q342.41 15.76 341.99 15.34L341.99 15.34L341.99 15.34Q341.57 14.92 341.57 14.36L341.57 14.36L341.57 14.36Q341.57 13.72 341.99 13.36L341.99 13.36L341.99 13.36Q342.38 12.96 343 12.96L343 12.96ZM343 23.21L343 23.21Q344.71 23.21 344.71 25.51L344.71 25.51L344.71 25.51Q344.71 28.84 341.91 30.38L341.91 30.38L341.29 29.40L341.29 29.40Q343.28 28.06 343.42 25.96L343.42 25.96L343.42 25.96Q343.20 26.01 343.03 26.01L343.03 26.01L343.03 26.01Q342.41 26.01 341.99 25.65L341.99 25.65L341.99 25.65Q341.57 25.23 341.57 24.64L341.57 24.64L341.57 24.64Q341.57 23.94 341.96 23.58L341.96 23.58L341.96 23.58Q342.36 23.21 343 23.21L343 23.21ZM365.57 10.30L365.57 8.82L390.43 8.82L390.43 10.30L378.84 10.30L378.84 10.30Q378.28 12.71 377.24 14.90L377.24 14.90L388.75 14.90L388.75 29.57L388.75 29.57Q388.75 32.23 386.40 32.23L386.40 32.23L383.82 32.23L383.40 30.69L385.90 30.74L385.90 30.74Q387.24 30.74 387.24 29.23L387.24 29.23L387.24 16.38L381.98 16.38L381.98 31.44L380.49 31.44L380.49 16.38L375.45 16.38L375.45 31.44L373.97 31.44L373.97 16.38L369.18 16.38L369.18 32.28L367.67 32.28L367.67 14.90L375.51 14.90L375.51 14.90Q376.63 12.68 377.08 10.30L377.08 10.30L365.57 10.30ZM411.63 7.81L412.61 6.89L412.61 6.89Q414.71 8.48 416.14 10.08L416.14 10.08L415.13 11.06L415.13 11.06Q413.81 9.55 411.63 7.81L411.63 7.81ZM415.02 15.34L416.39 15.93L416.39 15.93Q414.68 21.59 411.94 25.45L411.94 25.45L411.94 25.45Q412.58 26.99 413.42 28.22L413.42 28.22L413.42 28.22Q414.93 30.32 415.91 30.32L415.91 30.32L415.91 30.32Q416.84 30.30 417.51 25.82L417.51 25.82L418.88 26.54L418.88 26.54Q417.96 32.00 416.19 32.00L416.19 32.00L416.19 32.00Q414.46 32.00 412.47 29.48L412.47 29.48L412.47 29.48Q411.60 28.39 410.90 26.80L410.90 26.80L410.90 26.80Q407.85 30.46 403.76 32.28L403.76 32.28L402.89 31.00L402.89 31.00Q407.23 29.06 410.23 25.23L410.23 25.23L410.23 25.23Q409.58 23.58 409.14 21.81L409.14 21.81L409.14 21.81Q408.27 18.20 407.96 12.77L407.96 12.77L397.82 12.77L397.82 17.86L404.68 17.86L404.68 17.86Q404.63 24.56 404.18 26.66L404.18 26.66L404.18 26.66Q403.70 28.53 401.74 28.62L401.74 28.62L401.74 28.62Q400.71 28.62 399.28 28.53L399.28 28.53L398.80 27.13L398.80 27.13Q400.99 27.24 401.58 27.24L401.58 27.24L401.58 27.24Q402.64 27.16 402.89 25.79L402.89 25.79L402.89 25.79Q403.17 23.91 403.17 19.32L403.17 19.32L397.82 19.32L397.82 20.61L397.82 20.61Q397.71 27.97 394.63 32.42L394.63 32.42L393.48 31.39L393.48 31.39Q396.23 27.52 396.34 20.61L396.34 20.61L396.34 11.34L407.90 11.34L407.90 11.34Q407.82 9.16 407.82 6.80L407.82 6.80L409.33 6.80L409.33 6.80Q409.33 8.54 409.44 11.34L409.44 11.34L418.32 11.34L418.32 12.77L409.50 12.77L409.50 12.77Q409.81 18.28 410.62 21.45L410.62 21.45L410.62 21.45Q410.93 22.62 411.29 23.74L411.29 23.74L411.29 23.74Q413.62 20.24 415.02 15.34L415.02 15.34ZM423.28 15.96L423.28 11.54L432.29 11.54L432.29 15.96L423.28 15.96ZM424.65 14.90L430.89 14.90L430.89 12.57L424.65 12.57L424.65 14.90ZM433.19 20.66L433.19 21.87L433.19 21.87Q431.12 22.20 428.85 22.43L428.85 22.43L428.85 24.33L428.85 24.33Q428.85 26.32 426.50 26.32L426.50 26.32L424.23 26.32L423.86 25.00L423.86 25.00Q425.71 25.12 426.05 25.12L426.05 25.12L426.05 25.12Q427.39 25.12 427.39 23.97L427.39 23.97L427.39 22.57L427.39 22.57Q424.14 22.82 421.48 22.96L421.48 22.96L421.29 21.73L421.29 21.73Q424.90 21.59 427.39 21.36L427.39 21.36L427.39 20.05L430.08 18.59L422.44 18.59L422.44 17.36L432.18 17.36L432.18 18.40L428.85 20.27L428.85 21.22L428.85 21.22Q431.68 20.92 433.19 20.66L433.19 20.66ZM444.61 25.28L444.61 25.28Q443.88 25.28 443.24 24.50L443.24 24.50L443.24 24.50Q442.65 23.74 442.32 21.98L442.32 21.98L442.32 21.98Q442.01 20.27 442.01 17.47L442.01 17.47L442.01 17.47Q442.01 15.01 442.12 12.54L442.12 12.54L439.24 12.54L439.24 12.54Q439.07 16.13 438.17 19.04L438.17 19.04L438.17 19.04Q439.68 20.75 441.11 22.90L441.11 22.90L440.02 23.94L440.02 23.94Q438.98 22.26 437.61 20.61L437.61 20.61L437.61 20.61Q436.21 24.05 433.55 26.38L433.55 26.38L432.40 25.40L432.40 25.40Q435.20 23.04 436.52 19.38L436.52 19.38L436.52 19.38Q435.01 17.75 433.69 16.74L433.69 16.74L434.56 15.71L434.56 15.71Q435.76 16.58 437.02 17.81L437.02 17.81L437.02 17.81Q437.67 15.37 437.78 12.54L437.78 12.54L434.34 12.54L434.34 11.12L437.81 11.12L437.81 6.72L439.26 6.72L439.26 11.12L443.60 11.12L443.60 11.12Q443.41 14.34 443.41 17.53L443.41 17.53L443.41 17.53Q443.41 20.27 443.66 21.92L443.66 21.92L443.66 21.92Q444.00 23.63 444.47 23.66L444.47 23.66L444.47 23.66Q444.95 23.58 445.20 22.65L445.20 22.65L445.20 22.65Q445.45 21.81 445.62 20.08L445.62 20.08L446.82 20.61L446.82 20.61Q446.49 23.55 445.84 24.53L445.84 24.53L445.84 24.53Q445.34 25.20 444.61 25.28L444.61 25.28ZM425.91 6.94L427.45 6.66L427.45 6.66Q428.06 8.01 428.34 8.71L428.34 8.71L434.11 8.71L434.11 10.00L421.29 10.00L421.29 8.71L426.80 8.71L426.80 8.71Q426.41 7.78 425.91 6.94L425.91 6.94ZM425.18 27.02L426.50 27.66L426.50 27.66Q424.73 30.46 422.66 32.31L422.66 32.31L421.40 31.42L421.40 31.42Q423.61 29.54 425.18 27.02L425.18 27.02ZM429.46 27.52L430.89 27.22L430.89 27.22Q431.56 29.60 432.07 32.28L432.07 32.28L430.58 32.65L430.58 32.65Q430.11 29.65 429.46 27.52L429.46 27.52ZM435.40 27.33L436.83 26.99L436.83 26.99Q437.72 29.20 438.56 32.31L438.56 32.31L437.05 32.68L437.05 32.68Q436.35 29.46 435.40 27.33L435.40 27.33ZM440.97 27.16L442.23 26.38L442.23 26.38Q444.64 29.37 445.96 31.61L445.96 31.61L444.70 32.51L444.70 32.51Q443.46 30.27 440.97 27.16L440.97 27.16ZM454.50 11.87L459.09 11.87L459.09 30.69L457.63 30.69L457.63 28.98L451.98 28.98L451.98 31.47L450.52 31.47L450.52 11.87L453.04 11.87L453.04 11.87Q453.91 9.49 454.30 6.86L454.30 6.86L455.84 7.06L455.84 7.06Q455.39 9.63 454.50 11.87L454.50 11.87ZM451.98 20.94L451.98 27.58L457.63 27.58L457.63 20.94L451.98 20.94ZM451.98 13.33L451.98 19.57L457.63 19.57L457.63 13.33L451.98 13.33ZM462.62 18.98L463.85 18.20L463.85 18.20Q467.07 21.76 468.72 24.36L468.72 24.36L467.52 25.23L467.52 25.23Q465.84 22.51 462.62 18.98L462.62 18.98ZM464.46 11.90L473.59 11.90L473.59 11.90Q473.59 25.37 473.20 28.67L473.20 28.67L473.20 28.67Q472.78 32.03 469.31 32.03L469.31 32.03L466.56 31.98L466.20 30.58L466.20 30.58Q467.88 30.66 469.14 30.66L469.14 30.66L469.14 30.66Q471.41 30.66 471.74 28.17L471.74 28.17L471.74 28.17Q472.05 25.87 472.14 13.41L472.14 13.41L463.88 13.41L463.88 13.41Q462.67 16.18 461.05 18.31L461.05 18.31L460.15 17.14L460.15 17.14Q463.18 12.94 464.27 6.83L464.27 6.83L465.75 7L465.75 7Q465.22 9.74 464.46 11.90L464.46 11.90ZM480.90 32.42L480.90 16.21L480.90 16.21Q479.53 18.26 477.51 20.47L477.51 20.47L477.01 18.87L477.01 18.87Q481.68 13.50 483.73 6.78L483.73 6.78L485.13 7.42L485.13 7.42Q484.06 10.72 482.41 13.75L482.41 13.75L482.41 32.42L480.90 32.42ZM496.92 18.45L498.29 18.00L498.29 18.00Q500.53 22.99 502.24 28.78L502.24 28.78L500.86 29.40L500.86 29.40Q499.10 23.21 496.92 18.45L496.92 18.45ZM500.00 11.93L488.88 11.93L488.88 11.93Q487.51 15.23 485.63 18.06L485.63 18.06L484.34 17.25L484.34 17.25Q487.56 12.60 489.08 6.72L489.08 6.72L490.53 7.03L490.53 7.03Q490.03 8.82 489.44 10.47L489.44 10.47L501.54 10.47L501.54 11.48L501.54 11.48Q500.86 14.08 499.72 16.63L499.72 16.63L498.26 16.21L498.26 16.21Q499.30 14.39 500.00 11.93L500.00 11.93ZM492.58 32.20L488.88 32.20L488.54 30.77L488.54 30.77Q491.01 30.88 492.07 30.88L492.07 30.88L492.07 30.88Q493.16 30.88 493.16 29.79L493.16 29.79L493.16 14.56L494.62 14.56L494.62 30.16L494.62 30.16Q494.62 32.20 492.58 32.20L492.58 32.20ZM488.60 18.20L489.97 18.56L489.97 18.56Q488.38 24.47 485.94 28.92L485.94 28.92L484.48 28.39L484.48 28.39Q486.84 24.39 488.60 18.20L488.60 18.20ZM514.11 21.59L514.11 20.08L520.77 20.08L520.77 14.67L522.31 14.67L522.31 20.08L529.12 20.08L529.12 21.59L522.31 21.59L522.31 29.96L530.43 29.96L530.43 31.44L512.88 31.44L512.88 29.96L520.77 29.96L520.77 21.59L514.11 21.59ZM509.80 32.48L509.80 20.52L509.80 20.52Q507.98 22.48 506.02 24.11L506.02 24.11L505.04 22.88L505.04 22.88Q510.58 18.31 513.63 12.35L513.63 12.35L506.02 12.35L506.02 10.86L514.33 10.86L514.33 10.86Q515.14 8.93 515.84 6.72L515.84 6.72L517.38 6.89L517.38 6.89Q516.85 8.79 515.98 10.86L515.98 10.86L530.35 10.86L530.35 12.35L515.31 12.35L515.31 12.35Q513.58 15.88 511.31 18.73L511.31 18.73L511.31 32.48L509.80 32.48ZM552.50 13.89L557.34 13.89L557.34 18.34L555.83 18.34L555.83 15.29L536.23 15.29L536.23 18.34L534.72 18.34L534.72 13.89L539 13.89L539 13.89Q538.55 12.32 538.02 10.98L538.02 10.98L539.50 10.75L539.50 10.75Q539.87 11.70 540.48 13.89L540.48 13.89L545.58 13.89L545.58 13.89Q545.02 11.98 544.52 10.75L544.52 10.75L545.97 10.53L545.97 10.53Q546.56 11.98 547.06 13.89L547.06 13.89L550.93 13.89L550.93 13.89Q552.05 12.07 552.86 10.00L552.86 10.00L554.32 10.53L554.32 10.53Q553.53 12.38 552.50 13.89L552.50 13.89ZM556.25 7.39L557.00 8.76L557.00 8.76Q548.72 10.08 535.25 10.08L535.25 10.08L534.77 8.65L534.77 8.65Q547.85 8.65 556.25 7.39L556.25 7.39ZM542.19 16.18L543.70 16.35L543.23 18.56L555.35 18.56L555.35 20.02L542.84 20.02L542.84 20.02Q542.30 21.67 541.94 22.62L541.94 22.62L554.37 22.62L554.37 23.80L554.37 23.80Q552.30 26.60 549.28 28.70L549.28 28.70L549.28 28.70Q553.06 30.32 557.68 30.91L557.68 30.91L557.00 32.26L557.00 32.26Q551.94 31.58 547.90 29.57L547.90 29.57L547.90 29.57Q544.21 31.61 539.87 32.45L539.87 32.45L539.20 31.08L539.20 31.08Q543.34 30.35 546.42 28.78L546.42 28.78L546.42 28.78Q543.45 27.05 541.02 24.64L541.02 24.64L541.02 24.64Q538.58 29.37 534.60 32.09L534.60 32.09L533.88 30.77L533.88 30.77Q539.14 26.99 541.30 20.02L541.30 20.02L536.73 20.02L536.73 18.56L541.69 18.56L541.69 18.56Q541.97 17.44 542.19 16.18L542.19 16.18ZM552.58 23.97L542.02 23.97L542.02 23.97Q544.60 26.40 547.74 28L547.74 28L547.74 28Q550.54 26.26 552.58 23.97L552.58 23.97ZM583.18 24.19L573.83 24.19L573.83 26.54L583.18 26.54L583.18 24.19ZM573.83 23.04L583.18 23.04L583.18 20.58L573.83 20.58L573.83 23.04ZM583.18 27.69L573.83 27.69L573.83 32.34L572.38 32.34L572.38 19.35L584.61 19.35L584.61 29.48L584.61 29.48Q584.61 32.23 582.43 32.23L582.43 32.23L580.33 32.23L579.96 30.94L581.98 31.00L581.98 31.00Q583.18 31.00 583.18 29.18L583.18 29.18L583.18 27.69ZM577.78 8.82L577.78 6.69L579.32 6.69L579.32 8.82L585.98 8.82L585.98 10.05L579.32 10.05L579.32 12.38L585.06 12.38L585.06 13.58L579.32 13.58L579.32 15.90L586.77 15.90L586.77 17.14L570.16 17.14L570.16 16.77L569.32 16.97L569.32 16.97Q568.46 14.48 567.08 12.01L567.08 12.01L568.12 11.68L568.12 11.68Q569.18 13.41 570.16 15.90L570.16 15.90L577.78 15.90L577.78 13.58L571.96 13.58L571.96 12.38L577.78 12.38L577.78 10.05L570.98 10.05L570.98 8.82L577.78 8.82ZM562.49 12.21L563.67 12.29L563.67 12.29Q563.50 16.41 562.10 20.13L562.10 20.13L560.95 19.82L560.95 19.82Q562.32 16.27 562.49 12.21L562.49 12.21ZM565.04 32.28L565.04 6.97L566.55 6.97L566.55 32.28L565.04 32.28Z"></path></svg>