<svg xmlns="http://www.w3.org/2000/svg" xmlns:xlink="http://www.w3.org/1999/xlink" width="84" height="39.2" style="background: rgb(64, 16, 81);"><path fill="#bfcbff" d="M12.40 32.09L8.32 32.09L7.95 30.55L7.95 30.55Q10.70 30.66 11.84 30.66L11.84 30.66L11.84 30.66Q13.66 30.66 13.66 28.76L13.66 28.76L13.66 7.31L15.23 7.31L15.23 29.15L15.23 29.15Q15.23 32.09 12.40 32.09L12.40 32.09ZM6.30 13.80L7.78 14.39L7.78 14.39Q5.71 22.71 2.38 27.02L2.38 27.02L1.06 25.90L1.06 25.90Q4.54 21.39 6.30 13.80L6.30 13.80ZM20.08 14L21.45 13.16L21.45 13.16Q25.03 20.83 26.91 26.46L26.91 26.46L25.54 27.41L25.54 27.41Q23.49 21.31 20.08 14L20.08 14ZM29.85 14.64L29.85 13.16L38.11 13.16L38.11 13.16Q38.36 10.16 38.36 6.83L38.36 6.83L39.87 6.83L39.87 6.83Q39.87 10.02 39.65 13.16L39.65 13.16L54.35 13.16L54.35 14.64L44.83 14.64L44.83 24.72L44.83 24.72Q48.27 21.78 50.57 17.36L50.57 17.36L51.94 18.06L51.94 18.06Q49.06 23.46 44.83 26.71L44.83 26.71L44.83 28.70L44.83 28.70Q44.83 30.58 46.45 30.58L46.45 30.58L50.46 30.58L50.46 30.58Q51.52 30.58 51.88 29.99L51.88 29.99L51.88 29.99Q52.47 29.32 52.64 25.90L52.64 25.90L54.10 26.38L54.10 26.38Q53.84 30.30 52.98 31.25L52.98 31.25L52.98 31.25Q52.30 31.98 50.74 31.98L50.74 31.98L46.00 31.98L46.00 31.98Q43.32 31.98 43.32 29.01L43.32 29.01L43.32 27.78L43.32 27.78Q40.94 29.29 38.22 30.30L38.22 30.30L37.35 28.98L37.35 28.98Q40.66 27.78 43.32 25.93L43.32 25.93L43.32 14.64L39.51 14.64L39.51 14.64Q39.20 17.58 38.56 20.41L38.56 20.41L38.56 20.41Q36.74 27.78 30.55 32.37L30.55 32.37L29.51 31.08L29.51 31.08Q35.08 26.94 36.93 20.50L36.93 20.50L36.93 20.50Q37.66 17.72 37.97 14.64L37.97 14.64L29.85 14.64ZM44.88 7.92L45.92 6.94L45.92 6.94Q49.03 9.02 51.02 11.00L51.02 11.00L49.92 12.07L49.92 12.07Q48.10 10.14 44.88 7.92L44.88 7.92ZM57.71 14.84L57.71 13.36L65.30 13.36L65.30 13.36Q66.61 10.36 67.96 6.75L67.96 6.75L69.50 7.20L69.50 7.20Q68.38 10.22 67.00 13.36L67.00 13.36L82.29 13.36L82.29 14.84L77.45 14.84L77.45 14.84Q76.22 20.75 72.74 24.72L72.74 24.72L72.74 24.72Q73.64 25.20 74.23 25.56L74.23 25.56L74.23 25.56Q78.26 27.94 82.01 31.19L82.01 31.19L80.84 32.34L80.84 32.34Q76.97 29.01 72.69 26.46L72.69 26.46L72.69 26.46Q72.07 26.10 71.65 25.87L71.65 25.87L71.65 25.87Q66.92 30.46 58.66 32.31L58.66 32.31L58.02 30.88L58.02 30.88Q65.74 29.20 70.25 25.12L70.25 25.12L70.25 25.12Q66.39 23.13 61.43 21.36L61.43 21.36L61.43 21.36Q63.06 18.26 64.62 14.84L64.62 14.84L57.71 14.84ZM71.37 24.00L71.37 24.00Q74.82 20.22 75.91 14.84L75.91 14.84L66.36 14.84L66.36 14.84Q65.13 17.61 63.56 20.66L63.56 20.66L63.56 20.66Q67.96 22.26 71.37 24.00L71.37 24.00Z"></path></svg>