<svg xmlns="http://www.w3.org/2000/svg" xmlns:xlink="http://www.w3.org/1999/xlink" width="56" height="39.2" style="background: rgb(64, 16, 81);"><path fill="#4bffbb" d="M20.13 14.45L21.17 13.44L21.17 13.44Q24.39 16.24 26.43 18.79L26.43 18.79L25.34 19.88L25.34 19.88Q23.38 17.28 20.13 14.45L20.13 14.45ZM12.32 6.86L13.92 6.58L13.92 6.58Q14.48 8.15 14.90 9.77L14.90 9.77L25.93 9.77L25.93 11.28L18.03 11.28L18.03 20.52L16.52 20.52L16.52 11.28L11.51 11.28L11.51 20.58L10.00 20.58L10.00 11.28L2.07 11.28L2.07 9.77L13.30 9.77L13.30 9.77Q12.88 8.23 12.32 6.86L12.32 6.86ZM4.20 23.02L5.71 23.35L5.71 23.35Q4.70 27.69 3.00 30.86L3.00 30.86L1.68 30.02L1.68 30.02Q3.39 26.94 4.20 23.02L4.20 23.02ZM12.71 21.98L14.17 21.50L14.17 21.50Q15.65 23.66 16.91 26.43L16.91 26.43L15.51 27.08L15.51 27.08Q14.28 24.25 12.71 21.98L12.71 21.98ZM21.53 22.99L23.02 22.51L23.02 22.51Q25.00 25.87 26.40 29.51L26.40 29.51L25.00 30.16L25.00 30.16Q23.41 25.98 21.53 22.99L21.53 22.99ZM17.75 31.81L10.95 31.81L10.95 31.81Q8.23 31.81 8.23 29.01L8.23 29.01L8.23 22.29L9.72 22.29L9.72 28.70L9.72 28.70Q9.72 30.32 11.40 30.32L11.40 30.32L17.47 30.32L17.47 30.32Q18.65 30.32 19.07 29.82L19.07 29.82L19.07 29.82Q19.71 29.09 19.91 25.79L19.91 25.79L21.34 26.26L21.34 26.26Q21.03 30.16 20.16 31.08L20.16 31.08L20.16 31.08Q19.43 31.81 17.75 31.81L17.75 31.81ZM6.78 13.58L7.92 14.62L7.92 14.62Q5.77 17.64 2.41 20.05L2.41 20.05L1.48 18.84L1.48 18.84Q4.68 16.55 6.78 13.58L6.78 13.58ZM31.92 32.23L31.92 7L33.43 7L33.43 32.23L31.92 32.23ZM38.98 8.40L52.95 8.40L52.95 32.14L51.44 32.14L51.44 30.74L40.49 30.74L40.49 32.14L38.98 32.14L38.98 8.40ZM40.49 20.36L40.49 29.29L51.44 29.29L51.44 20.36L40.49 20.36ZM40.49 9.86L40.49 18.90L51.44 18.90L51.44 9.86L40.49 9.86Z"></path></svg>