<svg xmlns="http://www.w3.org/2000/svg" xmlns:xlink="http://www.w3.org/1999/xlink" width="56" height="39.2" style="background: rgb(64, 16, 81);"><path fill="#bfcbff" d="M7.42 17.61L7.42 32.28L5.94 32.28L5.94 17.33L5.94 17.33Q4.40 22.26 1.88 26.12L1.88 26.12L1.20 24.47L1.20 24.47Q4.51 19.94 5.85 14L5.85 14L1.68 14L1.68 12.52L5.94 12.52L5.94 6.92L7.42 6.92L7.42 12.52L11.00 12.52L11.00 14L7.42 14L7.42 15.93L7.42 15.93Q9.35 18.00 11.45 20.92L11.45 20.92L10.61 22.20L10.61 22.20Q8.71 19.26 7.42 17.61L7.42 17.61ZM16.18 17.95L12.04 17.95L12.04 16.52L12.04 16.52Q17.05 13.36 21.39 9.58L21.39 9.58L12.07 9.58L12.07 8.15L23.49 8.15L23.49 9.52L23.49 9.52Q19.46 13.30 14.62 16.58L14.62 16.58L25.59 16.58L25.59 16.58Q25.42 26.15 24.81 29.15L24.81 29.15L24.81 29.15Q24.14 32.00 21.31 32.09L21.31 32.09L21.31 32.09Q20.27 32.09 18.37 32.03L18.37 32.03L17.95 30.55L17.95 30.55Q19.54 30.63 21.08 30.63L21.08 30.63L21.08 30.63Q22.74 30.60 23.32 28.92L23.32 28.92L23.32 28.92Q23.86 27.33 24.08 17.95L24.08 17.95L21.81 17.95L21.81 17.95Q20.80 23.10 18.96 26.04L18.96 26.04L18.96 26.04Q16.91 29.15 12.77 31.58L12.77 31.58L11.84 30.38L11.84 30.38Q15.65 28.14 17.61 25.42L17.61 25.42L17.61 25.42Q19.52 22.60 20.38 17.95L20.38 17.95L17.61 17.95L17.61 17.95Q15.68 23.46 10.89 26.57L10.89 26.57L10.00 25.48L10.00 25.48Q14.42 22.65 16.18 17.95L16.18 17.95ZM30.21 8.37L31.25 7.36L31.25 7.36Q34.19 9.66 36.09 11.84L36.09 11.84L35 12.94L35 12.94Q33.26 10.78 30.21 8.37L30.21 8.37ZM54.38 31.89L48.50 31.89L48.50 31.89Q46.98 31.89 43.29 31.84L43.29 31.84L43.29 31.84Q40.35 31.75 38.70 31.30L38.70 31.30L38.70 31.30Q36.93 30.80 35.59 29.23L35.59 29.23L35.59 29.23Q35.03 28.50 34.44 28.50L34.44 28.50L34.44 28.50Q33.29 28.50 30.77 32.48L30.77 32.48L29.62 31.44L29.62 31.44Q32.03 27.72 33.77 27.13L33.77 27.13L33.77 18.17L29.54 18.17L29.54 16.72L35.20 16.72L35.20 27.19L35.20 27.19Q35.64 27.38 36.15 27.94L36.15 27.94L36.15 27.94Q37.24 29.20 38.58 29.79L38.58 29.79L38.58 29.79Q40.10 30.32 42.62 30.41L42.62 30.41L42.62 30.41Q45.53 30.46 48.27 30.46L48.27 30.46L51.91 30.44L54.74 30.32L54.38 31.89ZM47.54 28.20L43.62 28.20L43.32 26.71L43.32 26.71Q45.89 26.82 47.01 26.82L47.01 26.82L47.01 26.82Q48.30 26.82 48.30 25.65L48.30 25.65L48.30 13.19L37.88 13.19L37.88 11.68L48.30 11.68L48.30 7L49.81 7L49.81 11.68L54.01 11.68L54.01 13.19L49.81 13.19L49.81 26.04L49.81 26.04Q49.81 28.20 47.54 28.20L47.54 28.20ZM39.31 16.80L40.54 16.02L40.54 16.02Q43.20 19.12 44.66 21.53L44.66 21.53L43.37 22.43L43.37 22.43Q41.86 19.82 39.31 16.80L39.31 16.80Z"></path></svg>