<svg xmlns="http://www.w3.org/2000/svg" xmlns:xlink="http://www.w3.org/1999/xlink" width="56" height="39.2" style="background: rgb(64, 16, 81);"><path fill="#4bffbb" d="M24.86 22.54L25.90 23.58L25.90 23.58Q23.91 25.65 21.31 26.71L21.31 26.71L21.31 26.71Q23.41 29.26 26.71 31.05L26.71 31.05L25.90 32.34L25.90 32.34Q18.54 28.17 16.94 20.69L16.94 20.69L12.12 20.69L12.12 30.21L12.12 30.21Q15.34 29.51 18.09 28.48L18.09 28.48L18.42 29.82L18.42 29.82Q15.29 30.91 10.16 31.95L10.16 31.95L9.80 30.63L9.80 30.63Q10.67 30.38 10.67 29.85L10.67 29.85L10.67 9.46L16.30 9.46L16.30 9.46Q15.65 8.09 14.92 7L14.92 7L16.41 6.72L16.41 6.72Q17.14 7.90 17.84 9.46L17.84 9.46L24.00 9.46L24.00 20.69L18.37 20.69L18.37 20.69Q18.96 23.44 20.47 25.62L20.47 25.62L20.47 25.62Q22.74 24.67 24.86 22.54L24.86 22.54ZM2.35 8.43L3.44 7.39L3.44 7.39Q6.55 9.46 8.79 11.68L8.79 11.68L7.70 12.77L7.70 12.77Q5.71 10.70 2.35 8.43L2.35 8.43ZM1.65 14.98L2.74 13.97L2.74 13.97Q5.85 16.13 7.81 18.26L7.81 18.26L6.72 19.32L6.72 19.32Q4.90 17.33 1.65 14.98L1.65 14.98ZM7.11 21.67L8.46 22.23L8.46 22.23Q6.41 27.44 3.84 32.06L3.84 32.06L2.35 31.42L2.35 31.42Q5.12 26.60 7.11 21.67L7.11 21.67ZM22.54 15.79L12.12 15.79L12.12 19.29L22.54 19.29L22.54 15.79ZM12.12 14.45L22.54 14.45L22.54 10.86L12.12 10.86L12.12 14.45ZM30.18 8.18L31.22 7.20L31.22 7.20Q34.13 9.24 36.06 11.14L36.06 11.14L35 12.21L35 12.21Q33.29 10.39 30.18 8.18L30.18 8.18ZM29.60 15.09L30.60 14.11L30.60 14.11Q33.29 16.04 35.17 18.06L35.17 18.06L34.10 19.12L34.10 19.12Q32.48 17.28 29.60 15.09L29.60 15.09ZM33.91 21.90L35.22 22.43L35.22 22.43Q33.57 27.24 31.25 32.06L31.25 32.06L29.82 31.44L29.82 31.44Q32.20 26.71 33.91 21.90L33.91 21.90ZM38.86 15.01L38.86 7.56L51.60 7.56L51.60 15.01L38.86 15.01ZM40.35 13.83L50.12 13.83L50.12 11.82L40.35 11.82L40.35 13.83ZM40.35 8.74L40.35 10.70L50.12 10.70L50.12 8.74L40.35 8.74ZM37.13 21.92L37.13 16.49L53.31 16.49L53.31 21.92L37.13 21.92ZM48.30 20.75L51.91 20.75L51.91 17.70L48.30 17.70L48.30 20.75ZM43.57 20.75L46.96 20.75L46.96 17.70L43.57 17.70L43.57 20.75ZM38.50 20.75L42.22 20.75L42.22 17.70L38.50 17.70L38.50 20.75ZM38.72 25.03L37.04 25.03L37.04 23.69L52.50 23.69L52.50 24.86L52.50 24.86Q50.29 27.36 47.12 29.04L47.12 29.04L47.12 29.04Q50.37 30.24 54.85 31.00L54.85 31.00L54.01 32.26L54.01 32.26Q49.03 31.30 45.56 29.79L45.56 29.79L45.56 29.79Q41.61 31.50 36.48 32.28L36.48 32.28L35.78 30.94L35.78 30.94Q40.40 30.30 43.88 28.98L43.88 28.98L43.88 28.98Q40.71 27.30 38.72 25.03L38.72 25.03ZM45.42 28.34L45.42 28.34Q48.38 26.94 50.46 25.03L50.46 25.03L40.29 25.03L40.29 25.03Q42.28 26.94 45.42 28.34L45.42 28.34Z"></path></svg>