<svg xmlns="http://www.w3.org/2000/svg" xmlns:xlink="http://www.w3.org/1999/xlink" width="56" height="39.2" style="background: rgb(64, 16, 81);"><path fill="#847bff" d="M25.98 10.67L11.96 10.67L11.96 10.67Q10.36 13.33 8.46 15.15L8.46 15.15L7.48 13.97L7.48 13.97Q10.42 11.14 12.21 6.69L12.21 6.69L13.69 7.06L13.69 7.06Q13.30 8.01 12.71 9.24L12.71 9.24L25.98 9.24L25.98 10.67ZM7.14 21.36L7.14 19.94L10.25 19.94L10.25 19.94Q10.58 16.69 10.67 13.36L10.67 13.36L24.53 13.36L24.28 19.94L26.80 19.94L26.80 21.36L24.22 21.36L23.94 26.88L26.35 26.88L26.35 28.25L23.83 28.25L23.83 28.25Q23.66 29.51 23.58 29.82L23.58 29.82L23.58 29.82Q23.16 31.14 21.98 31.81L21.98 31.81L21.98 31.81Q20.80 32.37 18.59 32.37L18.59 32.37L16.30 32.37L15.85 31.00L15.85 31.00Q17.70 31.05 18.37 31.05L18.37 31.05L18.37 31.05Q19.57 31.05 20.64 30.83L20.64 30.83L20.64 30.83Q21.67 30.49 22.15 29.43L22.15 29.43L22.15 29.43Q22.26 29.09 22.37 28.25L22.37 28.25L9.02 28.25L9.02 28.25Q9.69 24.89 10.11 21.36L10.11 21.36L7.14 21.36ZM22.79 21.36L11.54 21.36L11.54 21.36Q11.20 24.33 10.70 26.88L10.70 26.88L22.48 26.88L22.48 26.88Q22.57 25.70 22.79 21.36L22.79 21.36ZM11.68 19.94L22.85 19.94L23.04 14.70L12.01 14.70L12.01 14.70Q11.87 17.53 11.68 19.94L11.68 19.94ZM14.95 16.44L15.93 15.51L15.93 15.51Q18.12 16.97 19.52 18.37L19.52 18.37L18.54 19.35L18.54 19.35Q17.19 17.98 14.95 16.44L14.95 16.44ZM14.73 23.07L15.71 22.15L15.71 22.15Q17.75 23.66 19.21 25.28L19.21 25.28L18.23 26.26L18.23 26.26Q16.94 24.78 14.73 23.07L14.73 23.07ZM1.90 8.51L3.00 7.45L3.00 7.45Q5.68 9.24 7.39 10.89L7.39 10.89L6.30 11.96L6.30 11.96Q4.76 10.36 1.90 8.51L1.90 8.51ZM1.51 15.32L2.58 14.28L2.58 14.28Q5.18 16.04 6.94 17.81L6.94 17.81L5.88 18.90L5.88 18.90Q4.20 17.16 1.51 15.32L1.51 15.32ZM5.82 22.29L7.14 22.79L7.14 22.79Q5.43 27.52 3.16 32.03L3.16 32.03L1.74 31.42L1.74 31.42Q3.98 27.19 5.82 22.29L5.82 22.29ZM47.60 15.06L47.60 15.06Q45.92 15.40 44.24 15.65L44.24 15.65L44.24 29.99L44.24 29.99Q46.48 29.34 48.92 28.39L48.92 28.39L49.17 29.71L49.17 29.71Q46.48 30.69 42.45 31.84L42.45 31.84L42.14 30.55L42.14 30.55Q42.78 30.38 42.78 29.96L42.78 29.96L42.78 14.50L42.78 14.50Q48.08 13.92 52.67 12.12L52.67 12.12L53.42 13.38L53.42 13.38Q51.32 14.14 48.94 14.76L48.94 14.76L48.94 14.76Q49 18.28 49.73 21.25L49.73 21.25L49.73 21.25Q52.05 19.85 53.59 18.31L53.59 18.31L54.43 19.40L54.43 19.40Q52.81 20.97 50.09 22.60L50.09 22.60L50.09 22.60Q51.55 27.41 54.85 31.05L54.85 31.05L53.70 32.17L53.70 32.17Q47.88 25.42 47.60 15.06L47.60 15.06ZM51.58 6.94L52.61 8.09L52.61 8.09Q47.49 10.14 39.68 10.89L39.68 10.89L39.68 19.71L39.68 19.71Q39.51 27.19 36.51 32.40L36.51 32.40L35.42 31.28L35.42 31.28Q38.14 26.43 38.30 19.71L38.30 19.71L38.30 9.60L38.30 9.60Q46.48 8.99 51.58 6.94L51.58 6.94ZM30.24 8.48L31.33 7.45L31.33 7.45Q34.19 9.58 36.01 11.59L36.01 11.59L34.97 12.63L34.97 12.63Q33.10 10.58 30.24 8.48L30.24 8.48ZM29.60 15.06L30.69 14L30.69 14Q33.29 16.04 35.17 18.17L35.17 18.17L34.10 19.24L34.10 19.24Q32.45 17.25 29.60 15.06L29.60 15.06ZM34.41 21.73L35.76 22.26L35.76 22.26Q33.91 27.27 31.44 32.12L31.44 32.12L30.02 31.50L30.02 31.50Q32.54 26.77 34.41 21.73L34.41 21.73Z"></path></svg>