<svg xmlns="http://www.w3.org/2000/svg" xmlns:xlink="http://www.w3.org/1999/xlink" width="56" height="39.2" style="background: rgb(64, 16, 81);"><path fill="#ffd925" d="M24.98 25.23L24.98 25.23Q23.83 25.23 22.93 24.05L22.93 24.05L22.93 24.05Q21.34 21.78 21.34 15.93L21.34 15.93L21.34 12.15L17.19 12.15L17.19 12.24L17.19 12.24Q17.11 15.76 16.38 18.34L16.38 18.34L16.38 18.34Q18.37 19.85 20.27 21.70L20.27 21.70L19.40 23.02L19.40 23.02Q17.64 21.20 15.88 19.82L15.88 19.82L15.88 19.82Q14.48 23.38 11.73 25.54L11.73 25.54L10.61 24.53L10.61 24.53Q13.36 22.40 14.62 18.87L14.62 18.87L14.62 18.87Q13.10 17.81 11.76 17.05L11.76 17.05L12.57 15.82L12.57 15.82Q13.94 16.63 15.06 17.42L15.06 17.42L15.06 17.42Q15.62 15.12 15.68 12.24L15.68 12.24L15.68 12.15L12.26 12.15L12.26 10.64L15.68 10.64L15.68 6.86L17.19 6.86L17.19 10.64L22.82 10.64L22.82 15.93L22.82 15.93Q22.82 20.89 23.86 22.93L23.86 22.93L23.86 22.93Q24.30 23.72 24.67 23.72L24.67 23.72L24.67 23.72Q25.00 23.72 25.31 22.82L25.31 22.82L25.31 22.82Q25.68 21.67 25.76 19.29L25.76 19.29L26.96 19.88L26.96 19.88Q26.74 23.41 26.15 24.44L26.15 24.44L26.15 24.44Q25.59 25.23 24.98 25.23L24.98 25.23ZM1.82 12.07L1.82 10.56L5.96 10.56L5.96 6.72L7.48 6.72L7.48 10.56L11.09 10.56L11.09 12.07L7.48 12.07L7.48 16.77L7.48 16.77Q9.18 16.35 11.06 15.76L11.06 15.76L11.06 17.22L7.48 18.23L7.48 22.99L7.48 22.99Q7.48 25.17 5.32 25.17L5.32 25.17L2.80 25.17L2.46 23.72L2.46 23.72Q4.09 23.83 4.79 23.83L4.79 23.83L4.79 23.83Q5.96 23.83 5.96 22.62L5.96 22.62L5.96 18.59L5.96 18.59Q3.70 19.10 1.40 19.52L1.40 19.52L1.04 18.09L1.04 18.09Q3.61 17.67 5.96 17.16L5.96 17.16L5.96 12.07L1.82 12.07ZM5.15 26.26L6.47 26.91L6.47 26.91Q4.84 30.21 2.80 32.56L2.80 32.56L1.54 31.67L1.54 31.67Q3.64 29.37 5.15 26.26L5.15 26.26ZM9.18 27.22L10.58 26.91L10.58 26.91Q11.48 29.23 12.21 32.20L12.21 32.20L10.70 32.56L10.70 32.56Q10.05 29.51 9.18 27.22L9.18 27.22ZM14.98 26.82L16.38 26.52L16.38 26.52Q17.67 29.20 18.62 32.14L18.62 32.14L17.14 32.51L17.14 32.51Q16.27 29.29 14.98 26.82L14.98 26.82ZM20.69 26.77L21.95 25.98L21.95 25.98Q24.36 29.04 25.79 31.53L25.79 31.53L24.53 32.42L24.53 32.42Q23.18 29.96 20.69 26.77L20.69 26.77ZM51.18 24.19L41.83 24.19L41.83 26.54L51.18 26.54L51.18 24.19ZM41.83 23.04L51.18 23.04L51.18 20.58L41.83 20.58L41.83 23.04ZM51.18 27.69L41.83 27.69L41.83 32.34L40.38 32.34L40.38 19.35L52.61 19.35L52.61 29.48L52.61 29.48Q52.61 32.23 50.43 32.23L50.43 32.23L48.33 32.23L47.96 30.94L49.98 31.00L49.98 31.00Q51.18 31.00 51.18 29.18L51.18 29.18L51.18 27.69ZM45.78 8.82L45.78 6.69L47.32 6.69L47.32 8.82L53.98 8.82L53.98 10.05L47.32 10.05L47.32 12.38L53.06 12.38L53.06 13.58L47.32 13.58L47.32 15.90L54.77 15.90L54.77 17.14L38.16 17.14L38.16 16.77L37.32 16.97L37.32 16.97Q36.46 14.48 35.08 12.01L35.08 12.01L36.12 11.68L36.12 11.68Q37.18 13.41 38.16 15.90L38.16 15.90L45.78 15.90L45.78 13.58L39.96 13.58L39.96 12.38L45.78 12.38L45.78 10.05L38.98 10.05L38.98 8.82L45.78 8.82ZM30.49 12.21L31.67 12.29L31.67 12.29Q31.50 16.41 30.10 20.13L30.10 20.13L28.95 19.82L28.95 19.82Q30.32 16.27 30.49 12.21L30.49 12.21ZM33.04 32.28L33.04 6.97L34.55 6.97L34.55 32.28L33.04 32.28Z"></path></svg>