<svg xmlns="http://www.w3.org/2000/svg" xmlns:xlink="http://www.w3.org/1999/xlink" width="224" height="39.2" style="background: rgb(64, 16, 81);"><path fill="#bfcbff" d="M20.50 13.89L25.34 13.89L25.34 18.34L23.83 18.34L23.83 15.29L4.23 15.29L4.23 18.34L2.72 18.34L2.72 13.89L7 13.89L7 13.89Q6.55 12.32 6.02 10.98L6.02 10.98L7.50 10.75L7.50 10.75Q7.87 11.70 8.48 13.89L8.48 13.89L13.58 13.89L13.58 13.89Q13.02 11.98 12.52 10.75L12.52 10.75L13.97 10.53L13.97 10.53Q14.56 11.98 15.06 13.89L15.06 13.89L18.93 13.89L18.93 13.89Q20.05 12.07 20.86 10.00L20.86 10.00L22.32 10.53L22.32 10.53Q21.53 12.38 20.50 13.89L20.50 13.89ZM24.25 7.39L25.00 8.76L25.00 8.76Q16.72 10.08 3.25 10.08L3.25 10.08L2.77 8.65L2.77 8.65Q15.85 8.65 24.25 7.39L24.25 7.39ZM10.19 16.18L11.70 16.35L11.23 18.56L23.35 18.56L23.35 20.02L10.84 20.02L10.84 20.02Q10.30 21.67 9.94 22.62L9.94 22.62L22.37 22.62L22.37 23.80L22.37 23.80Q20.30 26.60 17.28 28.70L17.28 28.70L17.28 28.70Q21.06 30.32 25.68 30.91L25.68 30.91L25.00 32.26L25.00 32.26Q19.94 31.58 15.90 29.57L15.90 29.57L15.90 29.57Q12.21 31.61 7.87 32.45L7.87 32.45L7.20 31.08L7.20 31.08Q11.34 30.35 14.42 28.78L14.42 28.78L14.42 28.78Q11.45 27.05 9.02 24.64L9.02 24.64L9.02 24.64Q6.58 29.37 2.60 32.09L2.60 32.09L1.88 30.77L1.88 30.77Q7.14 26.99 9.30 20.02L9.30 20.02L4.73 20.02L4.73 18.56L9.69 18.56L9.69 18.56Q9.97 17.44 10.19 16.18L10.19 16.18ZM20.58 23.97L10.02 23.97L10.02 23.97Q12.60 26.40 15.74 28L15.74 28L15.74 28Q18.54 26.26 20.58 23.97L20.58 23.97ZM51.18 24.19L41.83 24.19L41.83 26.54L51.18 26.54L51.18 24.19ZM41.83 23.04L51.18 23.04L51.18 20.58L41.83 20.58L41.83 23.04ZM51.18 27.69L41.83 27.69L41.83 32.34L40.38 32.34L40.38 19.35L52.61 19.35L52.61 29.48L52.61 29.48Q52.61 32.23 50.43 32.23L50.43 32.23L48.33 32.23L47.96 30.94L49.98 31.00L49.98 31.00Q51.18 31.00 51.18 29.18L51.18 29.18L51.18 27.69ZM45.78 8.82L45.78 6.69L47.32 6.69L47.32 8.82L53.98 8.82L53.98 10.05L47.32 10.05L47.32 12.38L53.06 12.38L53.06 13.58L47.32 13.58L47.32 15.90L54.77 15.90L54.77 17.14L38.16 17.14L38.16 16.77L37.32 16.97L37.32 16.97Q36.46 14.48 35.08 12.01L35.08 12.01L36.12 11.68L36.12 11.68Q37.18 13.41 38.16 15.90L38.16 15.90L45.78 15.90L45.78 13.58L39.96 13.58L39.96 12.38L45.78 12.38L45.78 10.05L38.98 10.05L38.98 8.82L45.78 8.82ZM30.49 12.21L31.67 12.29L31.67 12.29Q31.50 16.41 30.10 20.13L30.10 20.13L28.95 19.82L28.95 19.82Q30.32 16.27 30.49 12.21L30.49 12.21ZM33.04 32.28L33.04 6.97L34.55 6.97L34.55 32.28L33.04 32.28ZM61.74 17.36L61.74 7.92L78.54 7.92L78.54 17.36L61.74 17.36ZM63.25 16.02L77.03 16.02L77.03 13.30L63.25 13.30L63.25 16.02ZM63.25 9.24L63.25 12.04L77.03 12.04L77.03 9.24L63.25 9.24ZM69.58 30.18L69.58 21.11L57.71 21.11L57.71 19.74L82.38 19.74L82.38 21.11L71.06 21.11L71.06 24.75L79.35 24.75L79.35 26.15L71.06 26.15L71.06 30.41L71.06 30.41Q73.30 30.63 76.19 30.63L76.19 30.63L76.19 30.63Q78.93 30.63 82.18 30.52L82.18 30.52L81.76 32.00L76.30 31.98L76.30 31.98Q69.38 31.92 66.98 30.86L66.98 30.86L66.98 30.86Q64.74 29.85 62.97 26.85L62.97 26.85L62.97 26.85Q61.32 30.18 58.74 32.28L58.74 32.28L57.74 31.08L57.74 31.08Q61.66 27.83 63.06 22.34L63.06 22.34L64.51 22.60L64.51 22.60Q64.12 24.14 63.53 25.59L63.53 25.59L63.53 25.59Q65.35 28.78 67.68 29.71L67.68 29.71L67.68 29.71Q68.52 29.99 69.58 30.18L69.58 30.18ZM89.15 13.89L89.15 12.57L105.42 12.57L105.42 9.44L88.42 9.44L88.42 8.04L106.93 8.04L106.93 18.37L87.70 18.37L87.70 16.97L105.42 16.97L105.42 13.89L89.15 13.89ZM91.48 20.80L92.82 21.45L92.82 21.45Q91.42 24.56 89.43 26.88L89.43 26.88L88.26 26.01L88.26 26.01Q90.16 23.77 91.48 20.80L91.48 20.80ZM106.29 20.61L107.63 21.25L107.63 21.25Q106.15 24.25 104.30 26.24L104.30 26.24L103.10 25.37L103.10 25.37Q104.92 23.41 106.29 20.61L106.29 20.61ZM97.47 19.54L98.98 19.54L98.98 19.54Q98.98 21.42 98.67 23.04L98.67 23.04L98.67 23.04Q101.00 28.87 110.77 30.86L110.77 30.86L110.12 32.28L110.12 32.28Q100.55 30.18 98.11 24.89L98.11 24.89L98.11 24.89Q95.76 30.10 86.83 32.37L86.83 32.37L86.18 30.97L86.18 30.97Q95.20 28.84 96.96 23.58L96.96 23.58L96.96 23.58Q97.44 22.09 97.47 19.54L97.47 19.54ZM124.43 20.80L124.43 9.52L128.27 9.52L128.27 9.52Q129.00 8.12 129.33 6.75L129.33 6.75L130.84 6.94L130.84 6.94Q130.40 8.40 129.72 9.52L129.72 9.52L136.95 9.52L136.95 20.80L130.42 20.80L130.42 20.80Q128.63 28.17 123.34 32.28L123.34 32.28L122.25 31.36L122.25 31.36Q127.26 27.61 129.00 20.80L129.00 20.80L124.43 20.80ZM130.70 19.49L135.58 19.49L135.58 15.85L131.15 15.85L131.15 15.85Q130.98 17.92 130.70 19.49L130.70 19.49ZM125.80 19.49L129.28 19.49L129.28 19.49Q129.61 17.75 129.78 15.85L129.78 15.85L125.80 15.85L125.80 19.49ZM125.80 10.86L125.80 14.50L129.86 14.50L129.89 10.86L125.80 10.86ZM135.58 10.86L131.29 10.86L131.29 13.24L131.29 13.24Q131.29 13.72 131.24 14.50L131.24 14.50L135.58 14.50L135.58 10.86ZM135.97 31.75L132.58 31.75L132.58 31.75Q130.51 31.75 130.51 29.40L130.51 29.40L130.51 22.43L131.82 22.43L131.82 29.15L131.82 29.15Q131.82 30.46 132.94 30.46L132.94 30.46L135.60 30.46L135.60 30.46Q136.30 30.46 136.75 30.24L136.75 30.24L136.75 30.24Q137.37 29.88 137.54 27.89L137.54 27.89L138.80 28.31L138.80 28.31Q138.49 30.74 137.82 31.30L137.82 31.30L137.82 31.30Q137.14 31.75 135.97 31.75L135.97 31.75ZM135.46 23.69L136.39 23.44L136.39 23.44Q137.56 25.68 138.15 27.50L138.15 27.50L137.17 27.86L136.75 26.66L136.75 26.66Q134.90 27.41 132.97 27.66L132.97 27.66L132.64 26.74L132.64 26.74Q133.64 24.89 134.32 22.01L134.32 22.01L135.38 22.34L135.38 22.34Q134.74 24.84 133.84 26.54L133.84 26.54L133.84 26.54Q135.18 26.29 136.39 25.76L136.39 25.76L136.39 25.76Q136.02 24.78 135.46 23.69L135.46 23.69ZM114.66 10.92L114.66 9.46L122.47 9.46L122.47 10.92L114.66 10.92ZM113.54 17.89L113.54 16.44L123.26 16.44L123.26 17.89L118.94 17.89L118.94 17.89Q117.32 24.70 116.12 27.41L116.12 27.41L116.12 27.41Q118.86 26.82 121.49 25.65L121.49 25.65L121.49 25.65Q120.65 23.46 119.73 21.50L119.73 21.50L120.96 20.92L120.96 20.92Q122.56 24.36 123.98 28.39L123.98 28.39L122.70 29.04L122.70 29.04Q122.33 27.86 121.94 26.85L121.94 26.85L121.94 26.85Q118.41 28.28 114.55 29.09L114.55 29.09L114.18 27.69L114.52 27.58L114.52 27.58Q115.67 25.79 117.52 17.89L117.52 17.89L113.54 17.89ZM146.50 11.87L151.09 11.87L151.09 30.69L149.63 30.69L149.63 28.98L143.98 28.98L143.98 31.47L142.52 31.47L142.52 11.87L145.04 11.87L145.04 11.87Q145.91 9.49 146.30 6.86L146.30 6.86L147.84 7.06L147.84 7.06Q147.39 9.63 146.50 11.87L146.50 11.87ZM143.98 20.94L143.98 27.58L149.63 27.58L149.63 20.94L143.98 20.94ZM143.98 13.33L143.98 19.57L149.63 19.57L149.63 13.33L143.98 13.33ZM154.62 18.98L155.85 18.20L155.85 18.20Q159.07 21.76 160.72 24.36L160.72 24.36L159.52 25.23L159.52 25.23Q157.84 22.51 154.62 18.98L154.62 18.98ZM156.46 11.90L165.59 11.90L165.59 11.90Q165.59 25.37 165.20 28.67L165.20 28.67L165.20 28.67Q164.78 32.03 161.31 32.03L161.31 32.03L158.56 31.98L158.20 30.58L158.20 30.58Q159.88 30.66 161.14 30.66L161.14 30.66L161.14 30.66Q163.41 30.66 163.74 28.17L163.74 28.17L163.74 28.17Q164.05 25.87 164.14 13.41L164.14 13.41L155.88 13.41L155.88 13.41Q154.67 16.18 153.05 18.31L153.05 18.31L152.15 17.14L152.15 17.14Q155.18 12.94 156.27 6.83L156.27 6.83L157.75 7L157.75 7Q157.22 9.74 156.46 11.90L156.46 11.90ZM169.68 24.75L169.68 23.24L181.08 23.24L181.08 23.24Q181.27 21.98 181.30 20.55L181.30 20.55L182.84 20.55L182.84 20.55Q182.84 21.98 182.62 23.24L182.62 23.24L194.32 23.24L194.32 24.75L183.23 24.75L183.23 24.75Q186.00 29.37 194.74 31.05L194.74 31.05L194.12 32.42L194.12 32.42Q184.44 30.35 182.08 25.09L182.08 25.09L182.08 25.09Q179.82 30.24 169.96 32.42L169.96 32.42L169.34 31.05L169.34 31.05Q178.47 29.12 180.57 24.75L180.57 24.75L169.68 24.75ZM186.40 9.77L183.18 9.77L183.18 8.43L193.48 8.43L193.48 8.43Q193.42 16.94 192.61 18.59L192.61 18.59L192.61 18.59Q191.77 20.27 189.76 20.27L189.76 20.27L189.76 20.27Q188.75 20.27 187.40 20.19L187.40 20.19L187.01 18.79L189.42 18.90L189.42 18.90Q191.04 18.82 191.46 17.36L191.46 17.36L191.46 17.36Q191.88 15.93 191.97 9.77L191.97 9.77L187.88 9.77L187.88 9.77Q187.29 13.50 186.28 15.79L186.28 15.79L186.28 15.79Q185.05 18.14 182.70 20.05L182.70 20.05L181.78 18.90L181.78 18.90Q183.82 17.25 184.91 15.18L184.91 15.18L184.91 15.18Q185.86 13.24 186.40 9.77L186.40 9.77ZM170.46 10.30L170.46 8.93L175.31 8.93L175.31 6.92L176.82 6.92L176.82 8.93L181.69 8.93L181.69 10.30L176.82 10.30L176.82 12.94L181.13 12.94L181.13 14.28L176.82 14.28L176.82 17.00L181.72 17.00L181.72 18.37L176.82 18.37L176.82 20.94L175.31 20.94L175.31 18.37L170.04 18.37L170.04 17.00L175.31 17.00L175.31 14.28L170.97 14.28L170.97 12.94L175.31 12.94L175.31 10.30L170.46 10.30ZM209.44 6.89L210.56 6.89L210.56 6.89Q215.96 13.22 222.99 16.86L222.99 16.86L222.18 18.26L222.18 18.26Q215.04 14.42 210 8.26L210 8.26L210 8.26Q205.38 14.06 197.71 18.31L197.71 18.31L196.92 16.88L196.92 16.88Q204.46 12.85 209.44 6.89L209.44 6.89ZM201.35 21.36L218.65 21.36L218.65 32.37L217.17 32.37L217.17 30.55L202.83 30.55L202.83 32.37L201.35 32.37L201.35 21.36ZM202.83 22.82L202.83 29.09L217.17 29.09L217.17 22.82L202.83 22.82ZM202.78 17.39L202.78 15.90L217.22 15.90L217.22 17.39L202.78 17.39Z"></path></svg>