<svg xmlns="http://www.w3.org/2000/svg" xmlns:xlink="http://www.w3.org/1999/xlink" width="56" height="39.2" style="background: rgb(64, 16, 81);"><path fill="#847bff" d="M12.26 10.33L23.24 10.33L23.24 32.40L21.73 32.40L21.73 30.49L6.27 30.49L6.27 32.40L4.76 32.40L4.76 10.33L10.67 10.33L10.67 10.33Q11.70 8.57 12.15 6.78L12.15 6.78L13.69 7L13.69 7Q13.19 8.79 12.26 10.33L12.26 10.33ZM6.27 24.02L6.27 29.04L21.73 29.04L21.73 24.02L6.27 24.02ZM6.27 17.89L6.27 22.57L21.73 22.57L21.73 17.89L6.27 17.89ZM6.27 11.79L6.27 16.44L21.73 16.44L21.73 11.79L6.27 11.79ZM32.56 32.48L32.56 15.99L32.56 15.99Q31.02 18.34 29.43 20.13L29.43 20.13L28.92 18.54L28.92 18.54Q33.24 13.22 35.11 6.64L35.11 6.64L36.54 7.31L36.54 7.31Q35.59 10.44 34.05 13.41L34.05 13.41L34.05 32.48L32.56 32.48ZM36.71 12.26L36.71 10.81L54.80 10.81L54.80 12.26L36.71 12.26ZM39.31 16.32L39.31 14.95L52.36 14.95L52.36 16.32L39.31 16.32ZM39.31 20.30L39.31 18.90L52.36 18.90L52.36 20.30L39.31 20.30ZM38.84 23.02L52.84 23.02L52.84 32.40L51.35 32.40L51.35 30.86L40.35 30.86L40.35 32.40L38.84 32.40L38.84 23.02ZM40.35 24.44L40.35 29.40L51.35 29.40L51.35 24.44L40.35 24.44ZM44.04 7.20L45.50 6.80L45.50 6.80Q46.42 8.57 46.93 10.08L46.93 10.08L45.58 10.61L45.58 10.61Q44.91 8.74 44.04 7.20L44.04 7.20Z"></path></svg>