<svg xmlns="http://www.w3.org/2000/svg" xmlns:xlink="http://www.w3.org/1999/xlink" width="112" height="39.2" style="background: rgb(64, 16, 81);"><path fill="#ffd925" d="M3.14 8.82L3.14 7.59L24.84 7.59L24.84 8.82L14.73 8.82L14.73 10.61L25.54 10.61L25.54 15.32L24.14 15.32L24.14 11.79L14.73 11.79L14.73 16.74L13.27 16.74L13.27 11.79L3.86 11.79L3.86 15.40L2.46 15.40L2.46 10.61L13.27 10.61L13.27 8.82L3.14 8.82ZM5.80 14.17L5.80 13.22L11.51 13.22L11.51 14.17L5.80 14.17ZM5.77 16.49L5.77 15.54L11.48 15.54L11.48 16.49L5.77 16.49ZM16.49 14.17L16.49 13.22L22.18 13.22L22.18 14.17L16.49 14.17ZM16.49 16.49L16.49 15.54L22.23 15.54L22.23 16.49L16.49 16.49ZM1.93 19.80L1.93 18.65L4.59 18.65L4.59 17.39L5.82 17.39L5.82 18.65L10.98 18.65L10.98 17.50L12.21 17.50L12.21 18.65L14.70 18.65L14.70 19.80L12.21 19.80L12.21 22.34L9.07 22.34L9.07 23.91L13.58 23.91L13.58 27.61L9.07 27.61L9.07 29.20L14.28 29.20L14.28 30.44L9.07 30.44L9.07 32.59L7.73 32.59L7.73 30.44L1.85 30.44L1.85 29.20L7.73 29.20L7.73 27.61L3.22 27.61L3.22 23.91L7.73 23.91L7.73 22.34L4.59 22.34L4.59 19.80L1.93 19.80ZM10.98 19.80L5.82 19.80L5.82 21.34L10.98 21.34L10.98 19.80ZM9.07 26.57L12.35 26.57L12.35 24.92L9.07 24.92L9.07 26.57ZM4.45 26.57L7.73 26.57L7.73 24.92L4.45 24.92L4.45 26.57ZM23.35 23.66L17.53 23.66L17.53 23.88L17.53 23.88Q17.47 25.40 17.33 26.52L17.33 26.52L23.35 26.52L23.35 23.66ZM17.53 22.43L23.35 22.43L23.35 19.43L17.53 19.43L17.53 22.43ZM23.35 27.75L17.14 27.75L17.14 27.75Q16.55 30.52 15.20 32.54L15.20 32.54L14.22 31.61L14.22 31.61Q16.18 28.62 16.21 24.00L16.21 24.00L16.21 18.17L24.64 18.17L24.64 29.96L24.64 29.96Q24.64 32.45 22.57 32.45L22.57 32.45L20.22 32.45L19.88 31.16L19.88 31.16Q21.50 31.22 22.15 31.22L22.15 31.22L22.15 31.22Q23.35 31.22 23.35 29.51L23.35 29.51L23.35 27.75ZM37.38 11.56L37.38 10.14L42.36 10.14L42.36 10.14Q41.69 8.71 40.77 7.45L40.77 7.45L42.17 6.92L42.17 6.92Q43.18 8.26 43.90 10.14L43.90 10.14L47.43 10.14L47.43 10.14Q48.55 8.43 49.25 6.80L49.25 6.80L50.71 7.34L50.71 7.34Q49.95 8.90 49.08 10.14L49.08 10.14L54.26 10.14L54.26 11.56L46.26 11.56L46.26 11.56Q45.95 13.05 45.47 14.22L45.47 14.22L52.25 14.22L52.25 27.44L39.28 27.44L39.28 14.22L43.85 14.22L43.85 14.22Q44.41 12.91 44.66 11.56L44.66 11.56L37.38 11.56ZM40.71 26.04L50.82 26.04L50.82 23.30L40.71 23.30L40.71 26.04ZM40.71 19.52L40.71 22.04L50.82 22.04L50.82 19.52L40.71 19.52ZM40.71 15.62L40.71 18.26L50.82 18.26L50.82 15.62L40.71 15.62ZM30.27 8.43L31.30 7.45L31.30 7.45Q34.33 9.69 36.26 11.79L36.26 11.79L35.20 12.85L35.20 12.85Q33.49 10.86 30.27 8.43L30.27 8.43ZM54.24 31.89L47.88 31.89L47.88 31.89Q46.51 31.89 42.92 31.84L42.92 31.84L42.92 31.84Q40.18 31.75 38.56 31.30L38.56 31.30L38.56 31.30Q36.93 30.80 35.62 29.23L35.62 29.23L35.62 29.23Q35.06 28.50 34.52 28.50L34.52 28.50L34.52 28.50Q33.40 28.50 30.88 32.40L30.88 32.40L29.74 31.36L29.74 31.36Q32.12 27.72 33.85 27.13L33.85 27.13L33.85 18.17L29.57 18.17L29.57 16.72L35.28 16.72L35.28 27.22L35.28 27.22Q35.76 27.44 36.15 27.97L36.15 27.97L36.15 27.97Q37.21 29.23 38.44 29.82L38.44 29.82L38.44 29.82Q39.79 30.32 42.25 30.41L42.25 30.41L42.25 30.41Q45.05 30.46 47.66 30.46L47.66 30.46L51.58 30.46L54.60 30.35L54.24 31.89ZM61.38 20.64L61.38 11.96L72.04 11.96L72.04 11.96Q73.89 9.38 75.15 6.61L75.15 6.61L76.58 7.11L76.58 7.11Q75.07 10.11 73.67 11.96L73.67 11.96L78.62 11.96L78.62 20.64L61.38 20.64ZM62.92 19.18L77.08 19.18L77.08 13.41L62.92 13.41L62.92 19.18ZM63.08 7.34L64.40 6.69L64.40 6.69Q65.91 8.48 67.45 10.92L67.45 10.92L66.19 11.59L66.19 11.59Q64.71 9.16 63.08 7.34L63.08 7.34ZM60.20 23.24L61.66 23.52L61.66 23.52Q60.54 28 58.60 31.14L58.60 31.14L57.29 30.32L57.29 30.32Q59.28 27.24 60.20 23.24L60.20 23.24ZM68.91 22.48L70.28 22.04L70.28 22.04Q71.96 24.36 73.11 26.82L73.11 26.82L71.71 27.44L71.71 27.44Q70.50 24.72 68.91 22.48L68.91 22.48ZM77.64 23.18L79.10 22.71L79.10 22.71Q81.14 26.10 82.52 29.65L82.52 29.65L81.14 30.30L81.14 30.30Q79.55 26.29 77.64 23.18L77.64 23.18ZM73.95 32.06L66.86 32.06L66.86 32.06Q64.43 32.06 64.43 29.51L64.43 29.51L64.43 23.52L65.97 23.52L65.97 29.18L65.97 29.18Q65.97 30.60 67.34 30.60L67.34 30.60L73.67 30.60L73.67 30.60Q74.73 30.60 75.15 30.10L75.15 30.10L75.15 30.10Q75.74 29.43 75.91 26.24L75.91 26.24L77.34 26.71L77.34 26.71Q77.08 30.46 76.24 31.36L76.24 31.36L76.24 31.36Q75.49 32.06 73.95 32.06L73.95 32.06ZM87.28 10.84L87.28 9.44L92.37 9.44L92.37 6.78L93.88 6.78L93.88 9.44L99.26 9.44L99.26 10.84L93.88 10.84L93.88 14.25L101.36 14.25L101.36 14.25Q101.22 11.37 101.22 6.78L101.22 6.78L102.68 6.78L102.68 6.78Q102.68 11.45 102.82 14.25L102.82 14.25L110.26 14.25L110.26 15.71L102.90 15.71L102.90 15.71Q103.24 21.50 104.10 25.06L104.10 25.06L104.10 25.06Q106.29 21.87 107.55 17.47L107.55 17.47L108.95 18.06L108.95 18.06Q107.32 23.38 104.66 26.82L104.66 26.82L104.66 26.82Q106.06 30.58 107.88 30.66L107.88 30.66L107.88 30.66Q108.78 30.55 109.70 26.40L109.70 26.40L110.91 27.38L110.91 27.38Q109.65 32.28 107.88 32.28L107.88 32.28L107.88 32.28Q106.01 32.28 104.58 30.10L104.58 30.10L104.58 30.10Q103.99 29.20 103.57 28.14L103.57 28.14L103.57 28.14Q101.00 30.88 97.83 32.28L97.83 32.28L97.02 31.05L97.02 31.05Q100.49 29.51 102.98 26.54L102.98 26.54L102.98 26.54Q102.51 25.06 102.20 23.16L102.20 23.16L102.20 23.16Q101.70 20.05 101.44 15.71L101.44 15.71L85.57 15.71L85.57 14.25L92.37 14.25L92.37 10.84L87.28 10.84ZM85.62 20.80L85.62 19.38L92.48 19.38L92.48 19.38Q92.06 18.03 91.42 16.63L91.42 16.63L92.99 16.38L92.99 16.38Q93.46 17.64 94.00 19.38L94.00 19.38L100.02 19.38L100.02 20.80L92.88 20.80L92.88 20.80Q92.32 21.98 91.34 23.13L91.34 23.13L91.34 30.02L91.34 30.02Q93.60 29.26 95.54 28.34L95.54 28.34L95.79 29.74L95.79 29.74Q93.21 30.86 89.52 31.92L89.52 31.92L89.18 30.58L89.18 30.58Q89.88 30.32 89.88 29.82L89.88 29.82L89.88 24.58L89.88 24.58Q88.23 25.98 85.79 27.30L85.79 27.30L84.98 25.98L84.98 25.98Q89.68 23.72 91.36 20.80L91.36 20.80L85.62 20.80ZM93.07 23.07L94.02 22.18L94.02 22.18Q95.42 23.46 96.63 24.78L96.63 24.78L96.63 24.78Q98.03 23.46 99.06 21.95L99.06 21.95L100.16 22.76L100.16 22.76Q98.95 24.39 97.50 25.76L97.50 25.76L97.50 25.76Q98.67 27.16 99.20 27.92L99.20 27.92L98.14 28.98L98.14 28.98Q96.29 26.21 93.07 23.07L93.07 23.07ZM104.72 7.84L105.84 7.17L105.84 7.17Q108.14 10.16 109.23 12.12L109.23 12.12L108.08 12.94L108.08 12.94Q106.79 10.58 104.72 7.84L104.72 7.84Z"></path></svg>