<svg xmlns="http://www.w3.org/2000/svg" xmlns:xlink="http://www.w3.org/1999/xlink" width="588" height="39.2" style="background: rgb(64, 16, 81);"><path fill="#bfcbff" d="M1.62 9.60L1.62 8.15L26.40 8.15L26.40 9.60L15.01 9.60L15.01 9.60Q14.59 11.76 13.83 13.66L13.83 13.66L24.75 13.66L24.75 32.48L23.27 32.48L23.27 30.97L4.82 30.97L4.82 32.48L3.33 32.48L3.33 13.66L12.32 13.66L12.32 13.66Q13.13 11.70 13.47 9.60L13.47 9.60L1.62 9.60ZM4.82 15.09L4.82 29.51L9.16 29.51L9.16 15.09L4.82 15.09ZM10.58 25.51L10.58 29.51L17.42 29.51L17.42 25.51L10.58 25.51ZM18.84 15.09L18.84 29.51L23.27 29.51L23.27 15.09L18.84 15.09ZM10.58 20.33L10.58 24.19L17.42 24.19L17.42 20.33L10.58 20.33ZM10.58 15.09L10.58 18.98L17.42 18.98L17.42 15.09L10.58 15.09ZM47.07 6.66L48.55 7.20L48.55 7.20Q47.68 9.04 46.56 10.53L46.56 10.53L54.46 10.53L54.46 12.04L29.51 12.04L29.51 10.53L37.49 10.53L37.49 10.53Q36.62 8.51 35.56 7.06L35.56 7.06L37.13 6.80L37.13 6.80Q38.11 8.29 39.09 10.53L39.09 10.53L44.91 10.53L44.91 10.53Q46.09 8.79 47.07 6.66L47.07 6.66ZM39.17 32.23L36.96 32.23L36.54 30.74L38.67 30.80L38.67 30.80Q39.93 30.80 39.93 29.37L39.93 29.37L39.93 26.21L33.10 26.21L33.10 32.45L31.61 32.45L31.61 14.70L41.41 14.70L41.41 29.68L41.41 29.68Q41.41 32.23 39.17 32.23L39.17 32.23ZM33.10 21.20L33.10 24.81L39.93 24.81L39.93 21.20L33.10 21.20ZM33.10 16.13L33.10 19.82L39.93 19.82L39.93 16.13L33.10 16.13ZM50.04 32.14L46.37 32.14L46.03 30.72L46.03 30.72Q47.88 30.80 49.50 30.80L49.50 30.80L49.50 30.80Q50.82 30.80 50.82 29.40L50.82 29.40L50.82 13.80L52.33 13.80L52.33 29.79L52.33 29.79Q52.33 32.14 50.04 32.14L50.04 32.14ZM44.94 28.03L44.94 15.90L46.45 15.90L46.45 28.03L44.94 28.03ZM60.98 19.10L60.98 8.04L79.07 8.04L79.07 19.10L60.98 19.10ZM62.50 17.67L77.56 17.67L77.56 14.25L62.50 14.25L62.50 17.67ZM62.50 9.44L62.50 12.88L77.56 12.88L77.56 9.44L62.50 9.44ZM66.33 30.13L66.33 20.61L67.84 20.61L67.84 30.13L72.16 30.13L72.16 20.61L73.67 20.61L73.67 30.13L82.24 30.13L82.24 31.61L57.76 31.61L57.76 30.13L66.33 30.13ZM79.55 21.20L80.89 21.84L80.89 21.84Q79.27 25.73 77.17 28.45L77.17 28.45L75.99 27.61L75.99 27.61Q78.04 24.95 79.55 21.20L79.55 21.20ZM59.16 22.43L60.40 21.64L60.40 21.64Q62.72 25.09 63.90 27.52L63.90 27.52L62.72 28.36L62.72 28.36Q61.32 25.56 59.16 22.43L59.16 22.43ZM89.21 32.40L89.21 20.22L89.21 20.22Q87.61 21.81 85.68 23.16L85.68 23.16L85.23 21.73L85.23 21.73Q89.88 18.31 91.95 13.97L91.95 13.97L93.27 14.59L93.27 14.59Q92.12 16.86 90.69 18.59L90.69 18.59L90.69 32.40L89.21 32.40ZM91.81 6.83L93.10 7.45L93.10 7.45Q90.72 11.98 85.65 15.37L85.65 15.37L85.18 13.89L85.18 13.89Q89.80 10.78 91.81 6.83L91.81 6.83ZM95.40 16.58L95.40 7.92L108.33 7.92L108.33 16.58L95.40 16.58ZM96.85 15.29L106.88 15.29L106.88 12.82L96.85 12.82L96.85 15.29ZM96.85 9.18L96.85 11.62L106.88 11.62L106.88 9.18L96.85 9.18ZM94.02 20.22L94.02 18.84L110.12 18.84L110.12 20.22L106.54 20.22L106.54 23.02L110.71 23.02L110.71 24.39L106.54 24.39L106.54 30.16L106.54 30.16Q106.54 32.23 104.36 32.23L104.36 32.23L101.22 32.23L100.91 30.80L100.91 30.80Q102.93 30.91 103.82 30.91L103.82 30.91L103.82 30.91Q105.06 30.91 105.06 29.79L105.06 29.79L105.06 24.39L93.07 24.39L93.07 23.02L105.06 23.02L105.06 20.22L94.02 20.22ZM95.56 26.32L96.68 25.51L96.68 25.51Q99.09 27.78 100.49 29.68L100.49 29.68L99.32 30.46L99.32 30.46Q97.78 28.39 95.56 26.32L95.56 26.32ZM133.17 16.66L121.52 16.66L121.52 20.13L133.17 20.13L133.17 16.66ZM133.17 24.92L133.17 21.50L121.52 21.50L121.52 24.92L133.17 24.92ZM133.17 29.99L133.17 26.29L121.52 26.29L121.52 32.37L120.09 32.37L120.09 17.16L120.09 17.16Q117.54 20.44 114.21 23.10L114.21 23.10L113.26 21.84L113.26 21.84Q118.83 17.42 121.77 11.62L121.77 11.62L113.99 11.62L113.99 10.16L122.47 10.16L122.47 10.16Q123.17 8.60 123.76 6.72L123.76 6.72L125.30 6.89L125.30 6.89Q124.82 8.48 124.15 10.16L124.15 10.16L138.32 10.16L138.32 11.62L123.51 11.62L123.51 11.62Q122.56 13.55 121.41 15.32L121.41 15.32L134.62 15.32L134.62 30.44L134.62 30.44Q134.62 32.26 132.50 32.31L132.50 32.31L129.36 32.31L129.00 30.94L129.00 30.94Q131.18 31.00 132.02 31.00L132.02 31.00L132.02 31.00Q133.17 31.00 133.17 29.99L133.17 29.99ZM152.80 15.23L152.80 6.83L154.28 6.83L154.28 9.77L165.31 9.77L165.31 11.20L154.28 11.20L154.28 15.23L163.21 15.23L163.21 23.83L145.15 23.83L145.15 15.23L152.80 15.23ZM146.66 22.40L161.73 22.40L161.73 16.66L146.66 16.66L146.66 22.40ZM145.07 25.26L146.36 25.90L146.36 25.90Q144.73 29.62 142.63 32.28L142.63 32.28L141.40 31.42L141.40 31.42Q143.58 28.76 145.07 25.26L145.07 25.26ZM149.30 26.35L150.72 26.04L150.72 26.04Q151.65 29.12 152.26 32.14L152.26 32.14L150.72 32.51L150.72 32.51Q150.19 29.01 149.30 26.35L149.30 26.35ZM155.20 26.10L156.60 25.79L156.60 25.79Q157.89 28.78 158.84 32.09L158.84 32.09L157.33 32.45L157.33 32.45Q156.44 28.76 155.20 26.10L155.20 26.10ZM161.25 26.07L162.48 25.28L162.48 25.28Q165.12 28.76 166.57 31.53L166.57 31.53L165.34 32.40L165.34 32.40Q163.88 29.65 161.25 26.07L161.25 26.07ZM178.61 18.45L178.61 19.96L178.61 19.96Q176.99 20.80 175.25 21.56L175.25 21.56L175.25 30.07L175.25 30.07Q175.25 32.23 173.12 32.23L173.12 32.23L170.35 32.23L170.02 30.77L170.02 30.77Q171.81 30.88 172.59 30.88L172.59 30.88L172.59 30.88Q173.77 30.88 173.77 29.71L173.77 29.71L173.77 22.18L173.77 22.18Q171.81 22.90 169.60 23.60L169.60 23.60L169.20 22.09L169.20 22.09Q171.53 21.50 173.77 20.66L173.77 20.66L173.77 13.72L169.65 13.72L169.65 12.24L173.77 12.24L173.77 6.94L175.25 6.94L175.25 12.24L178.67 12.24L178.67 13.72L175.25 13.72L175.25 20.08L175.25 20.08Q177.13 19.26 178.61 18.45L178.61 18.45ZM191.02 18.54L191.49 9.72L185.75 9.72L184.94 18.54L191.02 18.54ZM190.40 30.04L190.93 20.02L184.80 20.02L183.85 30.04L190.40 30.04ZM178.64 30.04L182.36 30.04L183.32 20.02L179.40 20.02L179.40 18.54L183.46 18.54L184.27 9.72L180.29 9.72L180.29 8.26L193.03 8.26L191.91 30.04L194.80 30.04L194.80 31.53L178.64 31.53L178.64 30.04ZM207.96 19.71L207.96 8.12L220.61 8.12L220.61 19.71L207.96 19.71ZM209.44 18.28L219.13 18.28L219.13 14.67L209.44 14.67L209.44 18.28ZM209.44 9.58L209.44 13.24L219.13 13.24L219.13 9.58L209.44 9.58ZM213.42 23.91L213.42 20.97L214.90 20.97L214.90 23.91L221.31 23.91L221.31 25.34L214.90 25.34L214.90 30.02L222.60 30.02L222.60 31.47L205.63 31.47L205.63 30.02L213.42 30.02L213.42 25.34L207.12 25.34L207.12 23.91L213.42 23.91ZM200.65 32.14L198.10 32.14L197.76 30.69L197.76 30.69Q199.44 30.80 200.12 30.80L200.12 30.80L200.12 30.80Q201.24 30.80 201.24 29.79L201.24 29.79L201.24 22.12L201.24 22.12Q199.30 22.82 197.51 23.38L197.51 23.38L197.12 21.87L197.12 21.87Q199.33 21.28 201.24 20.58L201.24 20.58L201.24 13.89L197.60 13.89L197.60 12.40L201.24 12.40L201.24 6.97L202.75 6.97L202.75 12.40L205.72 12.40L205.72 13.89L202.75 13.89L202.75 19.96L202.75 19.96Q204.43 19.21 205.72 18.54L205.72 18.54L205.72 20.08L205.72 20.08Q204.04 20.94 202.75 21.48L202.75 21.48L202.75 30.16L202.75 30.16Q202.75 32.14 200.65 32.14L200.65 32.14ZM229.01 26.88L229.01 26.88Q230.69 26.88 230.69 29.20L230.69 29.20L230.69 29.20Q230.69 32.51 227.89 34.05L227.89 34.05L227.30 33.07L227.30 33.07Q229.32 31.72 229.43 29.65L229.43 29.65L229.01 29.68L229.01 29.68Q228.40 29.68 227.98 29.32L227.98 29.32L227.98 29.32Q227.58 28.95 227.58 28.31L227.58 28.31L227.58 28.31Q227.58 27.58 227.98 27.27L227.98 27.27L227.98 27.27Q228.34 26.88 229.01 26.88L229.01 26.88ZM262.11 21.59L262.11 20.08L268.77 20.08L268.77 14.67L270.31 14.67L270.31 20.08L277.12 20.08L277.12 21.59L270.31 21.59L270.31 29.96L278.43 29.96L278.43 31.44L260.88 31.44L260.88 29.96L268.77 29.96L268.77 21.59L262.11 21.59ZM257.80 32.48L257.80 20.52L257.80 20.52Q255.98 22.48 254.02 24.11L254.02 24.11L253.04 22.88L253.04 22.88Q258.58 18.31 261.63 12.35L261.63 12.35L254.02 12.35L254.02 10.86L262.33 10.86L262.33 10.86Q263.14 8.93 263.84 6.72L263.84 6.72L265.38 6.89L265.38 6.89Q264.85 8.79 263.98 10.86L263.98 10.86L278.35 10.86L278.35 12.35L263.31 12.35L263.31 12.35Q261.58 15.88 259.31 18.73L259.31 18.73L259.31 32.48L257.80 32.48ZM283.70 13.50L283.70 12.24L293.24 12.24L293.24 10.08L282.74 10.08L282.74 8.79L293.24 8.79L293.24 6.83L294.76 6.83L294.76 8.79L305.28 8.79L305.28 10.08L294.76 10.08L294.76 12.24L304.30 12.24L304.30 13.50L283.70 13.50ZM289.07 22.40L288.04 20.08L285.38 20.08L285.38 15.26L302.62 15.26L302.62 20.08L300.13 20.08L298.84 22.40L306.43 22.40L306.43 23.74L281.57 23.74L281.57 22.40L289.07 22.40ZM297.25 22.40L298.54 20.08L289.60 20.08L290.64 22.40L297.25 22.40ZM286.83 18.87L301.17 18.87L301.17 16.44L286.83 16.44L286.83 18.87ZM284.98 25.59L303.04 25.59L303.04 32.37L301.59 32.37L301.59 31.19L286.44 31.19L286.44 32.37L284.98 32.37L284.98 25.59ZM286.44 26.88L286.44 29.90L301.59 29.90L301.59 26.88L286.44 26.88ZM323.88 6.61L325.39 6.86L325.39 6.86Q325.05 9.32 324.55 11.37L324.55 11.37L333.65 11.37L333.65 12.38L333.65 12.38Q333.00 15.93 331.83 19.54L331.83 19.54L330.32 19.12L330.32 19.12Q331.41 16.32 332.08 12.85L332.08 12.85L324.10 12.85L324.10 12.85Q323.09 16.02 321.47 18.17L321.47 18.17L320.24 17.30L320.24 17.30Q323.12 13.38 323.88 6.61L323.88 6.61ZM320.18 26.66L319.06 27.75L319.06 27.75Q317.18 24.89 315.98 23.21L315.98 23.21L315.98 23.21Q313.66 28.25 309.99 31.11L309.99 31.11L309.23 29.79L309.23 29.79Q312.90 26.91 315.06 21.95L315.06 21.95L315.06 21.95Q312.31 18.26 309.85 15.60L309.85 15.60L310.88 14.62L310.88 14.62Q313.21 17.02 315.70 20.33L315.70 20.33L315.70 20.33Q317.04 16.55 317.72 11.70L317.72 11.70L309.65 11.70L309.65 10.25L319.20 10.25L319.20 11.65L319.20 11.65Q318.30 17.36 316.65 21.62L316.65 21.62L316.65 21.62Q318.33 23.91 320.18 26.66L320.18 26.66ZM326.42 15.06L327.91 15.06L327.91 15.06Q327.91 17.81 327.60 20.27L327.60 20.27L327.60 20.27Q329.67 27.08 334.66 31.11L334.66 31.11L333.62 32.31L333.62 32.31Q329.22 28.45 327.12 22.85L327.12 22.85L326.76 24.25L326.76 24.25Q325.25 29.18 319.93 32.31L319.93 32.31L318.95 31.14L318.95 31.14Q323.62 28.39 325.22 24.14L325.22 24.14L325.22 24.14Q326.42 20.44 326.42 15.06L326.42 15.06ZM342.50 11.87L347.09 11.87L347.09 30.69L345.63 30.69L345.63 28.98L339.98 28.98L339.98 31.47L338.52 31.47L338.52 11.87L341.04 11.87L341.04 11.87Q341.91 9.49 342.30 6.86L342.30 6.86L343.84 7.06L343.84 7.06Q343.39 9.63 342.50 11.87L342.50 11.87ZM339.98 20.94L339.98 27.58L345.63 27.58L345.63 20.94L339.98 20.94ZM339.98 13.33L339.98 19.57L345.63 19.57L345.63 13.33L339.98 13.33ZM350.62 18.98L351.85 18.20L351.85 18.20Q355.07 21.76 356.72 24.36L356.72 24.36L355.52 25.23L355.52 25.23Q353.84 22.51 350.62 18.98L350.62 18.98ZM352.46 11.90L361.59 11.90L361.59 11.90Q361.59 25.37 361.20 28.67L361.20 28.67L361.20 28.67Q360.78 32.03 357.31 32.03L357.31 32.03L354.56 31.98L354.20 30.58L354.20 30.58Q355.88 30.66 357.14 30.66L357.14 30.66L357.14 30.66Q359.41 30.66 359.74 28.17L359.74 28.17L359.74 28.17Q360.05 25.87 360.14 13.41L360.14 13.41L351.88 13.41L351.88 13.41Q350.67 16.18 349.05 18.31L349.05 18.31L348.15 17.14L348.15 17.14Q351.18 12.94 352.27 6.83L352.27 6.83L353.75 7L353.75 7Q353.22 9.74 352.46 11.90L352.46 11.90ZM377.24 6.92L378.78 6.92L378.78 6.92Q378.78 10.05 378.59 13.05L378.59 13.05L378.59 13.05Q380.94 24.70 390.88 30.86L390.88 30.86L389.87 32.14L389.87 32.14Q380.83 26.29 378.06 16.38L378.06 16.38L378.06 16.38Q375.73 25.93 366.02 32.17L366.02 32.17L365.09 30.83L365.09 30.83Q376.80 23.52 377.22 11.45L377.22 11.45L377.24 6.92ZM393.62 9.60L393.62 8.15L418.40 8.15L418.40 9.60L407.01 9.60L407.01 9.60Q406.59 11.76 405.83 13.66L405.83 13.66L416.75 13.66L416.75 32.48L415.27 32.48L415.27 30.97L396.82 30.97L396.82 32.48L395.33 32.48L395.33 13.66L404.32 13.66L404.32 13.66Q405.13 11.70 405.47 9.60L405.47 9.60L393.62 9.60ZM396.82 15.09L396.82 29.51L401.16 29.51L401.16 15.09L396.82 15.09ZM402.58 25.51L402.58 29.51L409.42 29.51L409.42 25.51L402.58 25.51ZM410.84 15.09L410.84 29.51L415.27 29.51L415.27 15.09L410.84 15.09ZM402.58 20.33L402.58 24.19L409.42 24.19L409.42 20.33L402.58 20.33ZM402.58 15.09L402.58 18.98L409.42 18.98L409.42 15.09L402.58 15.09ZM439.07 6.66L440.55 7.20L440.55 7.20Q439.68 9.04 438.56 10.53L438.56 10.53L446.46 10.53L446.46 12.04L421.51 12.04L421.51 10.53L429.49 10.53L429.49 10.53Q428.62 8.51 427.56 7.06L427.56 7.06L429.13 6.80L429.13 6.80Q430.11 8.29 431.09 10.53L431.09 10.53L436.91 10.53L436.91 10.53Q438.09 8.79 439.07 6.66L439.07 6.66ZM431.17 32.23L428.96 32.23L428.54 30.74L430.67 30.80L430.67 30.80Q431.93 30.80 431.93 29.37L431.93 29.37L431.93 26.21L425.10 26.21L425.10 32.45L423.61 32.45L423.61 14.70L433.41 14.70L433.41 29.68L433.41 29.68Q433.41 32.23 431.17 32.23L431.17 32.23ZM425.10 21.20L425.10 24.81L431.93 24.81L431.93 21.20L425.10 21.20ZM425.10 16.13L425.10 19.82L431.93 19.82L431.93 16.13L425.10 16.13ZM442.04 32.14L438.37 32.14L438.03 30.72L438.03 30.72Q439.88 30.80 441.50 30.80L441.50 30.80L441.50 30.80Q442.82 30.80 442.82 29.40L442.82 29.40L442.82 13.80L444.33 13.80L444.33 29.79L444.33 29.79Q444.33 32.14 442.04 32.14L442.04 32.14ZM436.94 28.03L436.94 15.90L438.45 15.90L438.45 28.03L436.94 28.03ZM453.38 20.64L453.38 11.96L464.04 11.96L464.04 11.96Q465.89 9.38 467.15 6.61L467.15 6.61L468.58 7.11L468.58 7.11Q467.07 10.11 465.67 11.96L465.67 11.96L470.62 11.96L470.62 20.64L453.38 20.64ZM454.92 19.18L469.08 19.18L469.08 13.41L454.92 13.41L454.92 19.18ZM455.08 7.34L456.40 6.69L456.40 6.69Q457.91 8.48 459.45 10.92L459.45 10.92L458.19 11.59L458.19 11.59Q456.71 9.16 455.08 7.34L455.08 7.34ZM452.20 23.24L453.66 23.52L453.66 23.52Q452.54 28 450.60 31.14L450.60 31.14L449.29 30.32L449.29 30.32Q451.28 27.24 452.20 23.24L452.20 23.24ZM460.91 22.48L462.28 22.04L462.28 22.04Q463.96 24.36 465.11 26.82L465.11 26.82L463.71 27.44L463.71 27.44Q462.50 24.72 460.91 22.48L460.91 22.48ZM469.64 23.18L471.10 22.71L471.10 22.71Q473.14 26.10 474.52 29.65L474.52 29.65L473.14 30.30L473.14 30.30Q471.55 26.29 469.64 23.18L469.64 23.18ZM465.95 32.06L458.86 32.06L458.86 32.06Q456.43 32.06 456.43 29.51L456.43 29.51L456.43 23.52L457.97 23.52L457.97 29.18L457.97 29.18Q457.97 30.60 459.34 30.60L459.34 30.60L465.67 30.60L465.67 30.60Q466.73 30.60 467.15 30.10L467.15 30.10L467.15 30.10Q467.74 29.43 467.91 26.24L467.91 26.24L469.34 26.71L469.34 26.71Q469.08 30.46 468.24 31.36L468.24 31.36L468.24 31.36Q467.49 32.06 465.95 32.06L465.95 32.06ZM489.44 6.89L490.56 6.89L490.56 6.89Q495.91 12.99 502.91 16.52L502.91 16.52L502.10 17.98L502.10 17.98Q494.96 14.17 490 8.26L490 8.26L490 8.26Q485.38 13.89 477.79 18.00L477.79 18.00L477.01 16.55L477.01 16.55Q484.48 12.68 489.44 6.89L489.44 6.89ZM483.25 17.08L483.25 15.62L496.83 15.62L496.83 17.08L483.25 17.08ZM478.86 22.76L478.86 21.25L501.20 21.25L501.20 22.76L487.90 22.76L487.90 22.76Q485.77 26.99 482.64 30.30L482.64 30.30L482.64 30.30Q490.31 29.88 496.80 28.92L496.80 28.92L496.80 28.92Q495.01 26.52 493.39 24.70L493.39 24.70L494.56 23.97L494.56 23.97Q498.43 28.34 500.42 31.53L500.42 31.53L499.18 32.42L499.18 32.42Q498.43 31.16 497.59 30.02L497.59 30.02L497.59 30.02Q491.37 31.05 480.84 31.75L480.84 31.75L480.42 30.41L480.42 30.41Q480.96 30.24 481.21 29.99L481.21 29.99L481.21 29.99Q484.32 26.52 486.22 22.76L486.22 22.76L478.86 22.76ZM512.76 13.52L512.76 6.89L514.30 6.89L514.30 19.40L512.76 19.40L512.76 15.04L512.76 15.04Q509.88 16.77 506.24 18.12L506.24 18.12L505.62 16.72L505.62 16.72Q509.74 15.37 512.76 13.52L512.76 13.52ZM516.26 11.59L516.26 10.22L522.51 10.22L522.51 6.80L523.99 6.80L523.99 10.22L530.07 10.22L530.07 11.59L523.99 11.59L523.99 16.21L529.28 16.21L529.28 17.58L517.16 17.58L517.16 16.21L522.51 16.21L522.51 11.59L516.26 11.59ZM506.13 9.32L506.94 8.15L506.94 8.15Q509.35 9.32 511.36 11.03L511.36 11.03L510.61 12.24L510.61 12.24Q508.42 10.39 506.13 9.32L506.13 9.32ZM505.65 22.62L505.65 21.22L517.92 21.22L517.92 21.22Q517.22 19.91 516.40 18.82L516.40 18.82L517.80 18.37L517.80 18.37Q518.73 19.63 519.48 21.22L519.48 21.22L530.35 21.22L530.35 22.62L519.62 22.62L519.62 22.62Q520.97 25.06 522.96 26.88L522.96 26.88L522.96 26.88Q525.42 25.40 527.32 23.41L527.32 23.41L528.39 24.36L528.39 24.36Q526.60 26.24 524.02 27.78L524.02 27.78L524.02 27.78Q526.82 29.96 530.60 31.11L530.60 31.11L529.73 32.40L529.73 32.40Q521.61 29.71 518.17 22.62L518.17 22.62L518.06 22.62L518.06 22.62Q516.21 24.70 513.27 26.35L513.27 26.35L513.27 30.60L513.27 30.60Q516.94 29.82 519.79 28.90L519.79 28.90L520.02 30.24L520.02 30.24Q516.49 31.33 511.45 32.34L511.45 32.34L511.14 31.00L511.14 31.00Q511.87 30.74 511.87 30.21L511.87 30.21L511.87 27.08L511.87 27.08Q509.40 28.25 506.32 29.26L506.32 29.26L505.54 27.94L505.54 27.94Q513.04 25.87 516.46 22.62L516.46 22.62L505.65 22.62ZM546.78 16.80L553.90 16.80L553.90 8.96L555.41 8.96L555.41 18.26L546.78 18.26L546.78 29.01L555.21 29.01L555.21 21.20L556.70 21.20L556.70 32.23L555.21 32.23L555.21 30.49L536.79 30.49L536.79 32.23L535.30 32.23L535.30 21.20L536.79 21.20L536.79 29.01L545.22 29.01L545.22 18.26L536.59 18.26L536.59 8.96L538.10 8.96L538.10 16.80L545.22 16.80L545.22 6.83L546.78 6.83L546.78 16.80ZM561.46 20.16L561.46 18.65L586.52 18.65L586.52 20.16L561.46 20.16Z"></path></svg>